<?xml version="1.0" encoding="UTF-8" standalone="no"?>
<svg
   xmlns:dc="http://purl.org/dc/elements/1.1/"
   xmlns:cc="http://creativecommons.org/ns#"
   xmlns:rdf="http://www.w3.org/1999/02/22-rdf-syntax-ns#"
   xmlns:svg="http://www.w3.org/2000/svg"
   xmlns="http://www.w3.org/2000/svg"
   xml:space="preserve"
   enable-background="new 0 0 595.28 841.89"
   viewBox="0 0 340 456.33044"
   height="486.75247"
   width="362.66666"
   y="0px"
   x="0px"
   id="Calque_1"
   version="1.1"><metadata
     id="metadata3280"><rdf:RDF><cc:Work
         rdf:about=""><dc:format>image/svg+xml</dc:format><dc:type
           rdf:resource="http://purl.org/dc/dcmitype/StillImage" /><dc:title></dc:title></cc:Work></rdf:RDF></metadata><defs
     id="defs3278" /><path
     style="fill:#c9781f"
     id="path3156"
     d="m 65.412121,155.07154 c 0,0 24.66784,-21.47409 97.677319,-21.47409 66.97804,0 85.80047,15.19398 104.91761,21.47409 l -99.73639,48.73542 z" /><g
     transform="matrix(0.63926204,0,0,0.63926204,-21.039129,-84.874827)"
     id="g3158"><path
       style="fill:#f6d2a2"
       id="path3160"
       d="m 118.946,476.458 c 0.707,14.572 15.264,7.83 21.858,3.274 6.259,-4.325 8.089,-0.73 8.638,-9.266 0.36,-5.61 1.007,-11.22 0.688,-16.853 -9.464,-0.858 -19.759,1.396 -27.518,7.033 -3.996,2.905 -11.49,12.174 -3.666,15.812" /><path
       style="fill:#c6b198"
       id="path3162"
       d="m 118.946,476.458 c 2.119,-0.788 4.364,-1.348 5.802,-3.264" /><path
       style="fill:#37abc8"
       id="path3164"
       d="M 152.588,302.861 C 96.804,287.174 138.284,216.207 183.08,245.397 Z" /><path
       style="fill:#37abc8"
       id="path3166"
       d="m 400.436,240.071 c 44.155,-31.014 84.056,38.959 32.74,56.565 z" /><path
       style="fill:#f6d2a2"
       id="path3168"
       d="m 409.934,655.8 c 11.216,6.94 31.716,27.923 14.891,38.098 -16.166,14.802 -25.214,-16.247 -39.403,-20.549 6.111,-8.298 13.856,-15.865 24.512,-17.549 z" /><path
       style="fill:none"
       id="path3170"
       d="m 424.825,693.897 c -2.494,-4.96 -3.332,-10.748 -7.496,-14.746" /><path
       style="fill:#f6d2a2"
       id="path3172"
       d="m 209.561,679.514 c -13.164,2.037 -20.574,13.914 -31.548,19.945 -10.341,6.166 -14.297,-1.974 -15.229,-3.627 -1.621,-0.739 -1.485,0.688 -3.987,-1.831 -9.587,-15.13 9.989,-26.189 20.182,-33.705 14.198,-2.871 23.096,9.438 30.582,19.218 z" /><path
       style="fill:none"
       id="path3174"
       d="m 162.785,695.831 c 0.501,-5.766 5.074,-9.628 7.251,-14.504" /><path
       style="fill:#077e91"
       id="path3176"
       d="m 154.916,283.26 c -7.36,-3.893 -12.759,-9.18 -8.257,-17.693 4.168,-7.88 11.911,-7.025 19.271,-3.132 z" /><path
       style="fill:#077e91"
       id="path3178"
       d="m 421.549,275.859 c 7.36,-3.893 12.759,-9.18 8.257,-17.693 -4.168,-7.881 -11.91,-7.025 -19.271,-3.132 z" /><path
       style="fill:#f6d2a2"
       id="path3180"
       d="m 472.21,474.607 c -0.707,14.572 -15.264,7.83 -21.858,3.274 -6.259,-4.325 -8.089,-0.73 -8.638,-9.265 -0.36,-5.61 -1.007,-11.22 -0.688,-16.853 9.464,-0.858 19.759,1.396 27.518,7.033 3.996,2.904 11.49,12.174 3.666,15.811" /><path
       style="fill:#c6b198"
       id="path3182"
       d="m 472.21,474.607 c -2.119,-0.788 -4.364,-1.348 -5.802,-3.264" /><g
       id="g3184"><path
         style="fill:#37abc8"
         id="path3186"
         d="m 289.988,210.595 c 55.847,0 108.2,7.987 135.492,61.642 24.496,60.141 15.785,124.993 19.521,188.553 3.208,54.577 10.322,117.629 -14.997,168.205 -26.635,53.21 -93.191,66.595 -148.026,64.634 -43.071,-1.541 -95.101,-15.593 -119.409,-54.944 -28.519,-46.165 -15.017,-114.81 -12.946,-166.179 2.454,-60.849 -16.482,-121.882 3.508,-181.425 20.737,-61.765 76.665,-75.724 136.857,-80.486" /></g><path
       style="fill:#ffffff"
       id="path3188"
       d="m 299.847,285.567 c 10.027,58.288 105.304,42.877 91.619,-15.91 -12.271,-52.716 -94.951,-38.124 -91.619,15.91" /><path
       style="fill:#ffffff"
       id="path3190"
       d="m 185.992,294.994 c 12.996,50.745 94.24,37.753 91.178,-13.149 -3.669,-60.964 -103.603,-49.2 -91.178,13.149" /><path
       style="fill:#ffffff"
       id="path3192"
       d="m 318.343,353.511 c 0.044,7.79 1.843,15.403 0.289,24.148 -1.935,3.656 -5.729,4.043 -9.001,5.52 -4.524,-0.71 -8.328,-3.68 -10.143,-7.912 -1.161,-9.202 0.433,-18.111 0.726,-27.316 z" /><g
       id="g3194"><ellipse
         id="ellipse3196"
         ry="14.86"
         rx="13.719"
         cy="286.71799"
         cx="208.39999" /><ellipse
         style="fill:#ffffff"
         id="ellipse3198"
         ry="3.777"
         rx="3.234"
         cy="290.07101"
         cx="214.64" /></g><g
       id="g3200"><ellipse
         id="ellipse3202"
         ry="14.86"
         rx="13.491"
         cy="283.017"
         cx="323.34799" /><ellipse
         style="fill:#ffffff"
         id="ellipse3204"
         ry="3.777"
         rx="3.181"
         cy="286.371"
         cx="329.48499" /></g><path
       style="fill:#ffffff"
       id="path3206"
       d="m 279.137,354.685 c -5.986,14.507 3.338,43.515 19.579,22.119 -1.161,-9.202 0.433,-18.111 0.726,-27.316 z" /><g
       id="g3208"><path
         style="fill:#f6d2a2"
         id="path3210"
         d="m 278.185,326.748 c -11.156,0.951 -20.276,14.216 -14.475,24.71 7.682,13.9 24.828,-1.23 35.507,0.188 12.291,0.252 22.361,12.996 32.233,2.304 10.979,-11.892 -4.727,-23.474 -17.002,-28.652 z" /></g></g><g
     transform="matrix(0.63926204,0,0,0.63926204,-21.039129,-84.874827)"
     id="g3212"><path
       style="fill:#ef9325"
       id="path3214"
       d="m 135.236,375.349 c 0,0 3.532,38.261 3.29,54.754 -0.242,16.492 15.56,6.079 16.38,32.016 0.82,25.937 -9.572,21.018 -15.047,33.713 -5.475,12.694 -9.196,72.145 -9.196,72.145 0,0 5.618,11.108 23.166,21.11 17.548,10.002 45.765,15.62 70.198,14.513 24.433,-1.107 41.885,-6.341 46.249,-9.236 4.363,-2.894 11.605,-12.05 14.329,-19.131 2.724,-7.081 8.415,-65.402 8.018,-98.775 -0.397,-33.373 -5.911,-64.166 -5.911,-64.166 z" /><path
       style="fill:#e5e5e5"
       id="path3216"
       d="m 290.007,537.841 c -71.952,8.032 -155.439,-14.172 -155.439,-14.172 0,0 1.226,-22.521 6.626,-30.447 74.833,23.185 150.329,15.834 150.329,15.834 1.12,10.514 0.331,18.872 -1.516,28.785 z" /><path
       style="fill:#e5e5e5"
       id="path3218"
       d="m 280.95,582.228 c -71.952,8.032 -150.287,-15.064 -150.287,-15.064 0,0 -0.251,-21.631 2.607,-31.13 74.833,23.185 154.763,17.407 154.763,17.407 -0.673,11.413 -2.278,22.646 -7.083,28.787 z" /></g><g
     transform="matrix(0.63926204,0,0,0.63926204,-21.039129,-84.874827)"
     id="g3220"><path
       style="fill:#ef9325"
       id="path3222"
       d="m 452.156,375.349 c 0,0 -0.488,38.261 -0.243,54.754 0.245,16.492 -9.578,6.079 -10.409,32.016 -0.831,25.937 9.692,21.018 15.236,33.713 5.544,12.694 9.312,72.145 9.312,72.145 0,0 -5.689,11.108 -23.457,21.11 -17.768,10.002 -46.34,15.62 -71.08,14.513 -24.74,-1.107 -42.411,-6.341 -46.83,-9.236 -4.419,-2.895 -11.751,-12.05 -14.509,-19.131 -2.758,-7.081 -8.521,-65.402 -8.119,-98.775 0.402,-33.373 5.985,-64.166 5.985,-64.166 z" /><path
       style="fill:#e5e5e5"
       id="path3224"
       d="m 304.706,537.841 c 72.856,8.032 157.392,-14.172 157.392,-14.172 0,0 -1.242,-22.521 -6.709,-30.447 -75.774,23.185 -152.218,15.834 -152.218,15.834 -1.134,10.514 -0.335,18.872 1.535,28.785 z" /><path
       style="fill:#e5e5e5"
       id="path3226"
       d="m 313.876,582.228 c 72.856,8.032 152.175,-15.064 152.175,-15.064 0,0 0.254,-21.631 -2.64,-31.13 -75.774,23.185 -156.707,17.407 -156.707,17.407 0.682,11.413 2.307,22.646 7.172,28.787 z" /></g><g
     transform="matrix(0.63926204,0,0,0.63926204,-21.039129,-84.874827)"
     id="g3228"><path
       style="fill:#d2e261"
       id="path3230"
       d="m 481.221,445.525 c -2.264,4.272 -6.745,6.334 -10.009,4.604 l -2.615,-1.385 c -3.264,-1.729 -4.076,-6.595 -1.812,-10.867 l 50.985,-96.234 c 2.263,-4.272 6.745,-6.334 10.009,-4.604 l 2.615,1.385 c 3.264,1.729 4.076,6.595 1.812,10.867 z" /><path
       id="path3232"
       d="m 457.143,490.972 c -1.319,2.489 -5.034,3.105 -8.298,1.375 l -2.615,-1.385 c -3.264,-1.729 -4.842,-5.149 -3.523,-7.638 l 23.92,-45.149 c 1.319,-2.489 5.034,-3.105 8.298,-1.375 l 2.615,1.385 c 3.264,1.729 4.842,5.149 3.523,7.638 z" /><path
       style="fill:#9b9b9b"
       id="path3234"
       d="m 478.411,436.54 -2.615,-1.385 c -3.264,-1.729 -6.604,-1.823 -7.459,-0.21 l -1.529,2.886 c 0.855,-1.614 4.194,-1.52 7.459,0.21 l 2.615,1.385 c 3.264,1.729 5.218,4.44 4.363,6.053 l 1.529,-2.886 c 0.855,-1.613 -1.099,-4.323 -4.363,-6.053 z" /></g><ellipse
     style="fill:#f6d2a2"
     id="ellipse3236"
     ry="8.6829996"
     rx="11.224"
     cy="462.66101"
     cx="456.83801"
     transform="matrix(0.59911638,0.2229746,-0.2229746,0.59911638,100.48325,-168.1724)" /><g
     transform="matrix(0.63926204,0,0,0.63926204,-21.039129,-84.874827)"
     id="g3238"><path
       style="fill:#d2e261"
       id="path3240"
       d="m 111.779,447.078 c 2.065,4.372 6.447,6.637 9.787,5.059 l 2.675,-1.264 c 3.34,-1.578 4.374,-6.401 2.309,-10.773 L 80.032,341.629 c -2.065,-4.372 -6.447,-6.637 -9.787,-5.059 l -2.675,1.264 c -3.34,1.578 -4.374,6.401 -2.309,10.773 z" /><path
       id="path3242"
       d="m 133.748,493.582 c 1.203,2.547 4.886,3.332 8.227,1.755 l 2.675,-1.264 c 3.34,-1.578 5.073,-4.922 3.869,-7.469 l -21.825,-46.199 c -1.203,-2.547 -4.886,-3.332 -8.227,-1.755 l -2.675,1.264 c -3.34,1.578 -5.073,4.922 -3.869,7.469 z" /><path
       style="fill:#9b9b9b"
       id="path3244"
       d="m 114.998,438.232 2.675,-1.264 c 3.34,-1.578 6.68,-1.519 7.46,0.132 l 1.395,2.954 c -0.78,-1.651 -4.12,-1.71 -7.46,-0.133 l -2.675,1.264 c -3.34,1.578 -5.416,4.196 -4.636,5.847 l -1.395,-2.954 c -0.779,-1.65 1.296,-4.268 4.636,-5.846 z" /></g><ellipse
     style="fill:#f6d2a2"
     id="ellipse3246"
     ry="8.6829996"
     rx="11.224"
     cy="463.922"
     cx="137.56"
     transform="matrix(-0.59911638,0.2229746,-0.2229746,-0.59911638,252.76813,458.95304)" /><g
     transform="matrix(0.63926204,0,0,0.63926204,-21.039129,-84.874827)"
     id="g3248"><g
       id="g3250"><path
         style="fill:#960000"
         id="path3252"
         d="m 159.132,324.732 c -2.218,4.033 -7.45,5.414 -11.687,3.084 l -4.873,-2.679 c -4.237,-2.33 -5.873,-7.488 -3.656,-11.521 l 50.714,-92.23 c 2.218,-4.033 7.45,-5.414 11.687,-3.084 l 4.873,2.679 c 4.237,2.33 5.33,6.689 3.656,11.521 -17.765,51.258 -50.714,92.23 -50.714,92.23 z" /><path
         style="fill:#595959"
         id="path3254"
         d="m 172.547,272.051 c 15.422,-28.047 25.555,-52.169 23.141,-54.905 l 0.057,-0.103 c -0.066,-0.036 -0.136,-0.06 -0.202,-0.096 -0.008,-0.005 -0.01,-0.021 -0.019,-0.026 l -0.007,0.014 c -23.699,-12.841 -55.583,-0.124 -71.334,28.522 -15.751,28.646 -9.41,62.381 14.128,75.514 l -0.007,0.014 c 0.009,0.005 0.023,-0.002 0.032,0.002 0.066,0.037 0.123,0.083 0.189,0.119 l 0.057,-0.103 c 3.602,0.573 18.543,-20.905 33.965,-48.952 z" /></g><g
       id="g3256"><path
         style="fill:#960000"
         id="path3258"
         d="m 426.693,324.925 c 2.1,4.095 7.291,5.627 11.593,3.42 l 4.948,-2.538 c 4.302,-2.206 6.087,-7.315 3.987,-11.41 L 399.19,220.742 c -2.1,-4.095 -7.291,-5.627 -11.593,-3.42 l -4.948,2.538 c -4.302,2.206 -5.521,6.533 -3.987,11.41 16.279,51.749 48.031,93.655 48.031,93.655 z" /><path
         style="fill:#595959"
         id="path3260"
         d="m 414.804,271.879 c -14.606,-28.48 -24.039,-52.885 -21.547,-55.55 l -0.054,-0.105 c 0.067,-0.034 0.138,-0.056 0.205,-0.09 0.009,-0.005 0.011,-0.021 0.02,-0.025 l 0.007,0.014 c 24.059,-12.152 55.563,1.48 70.481,30.569 14.918,29.089 7.606,62.627 -16.301,75.075 l 0.007,0.014 c -0.009,0.004 -0.023,-0.003 -0.032,10e-4 -0.067,0.035 -0.125,0.08 -0.192,0.114 l -0.054,-0.105 c -3.618,0.468 -17.934,-21.432 -32.54,-49.912 z" /></g><path
       style="fill:#353535"
       id="path3262"
       d="m 462.36,259.869 c 0,0 -17.746,-44.446 -38.326,-67.945 -20.58,-23.498 -221.937,-31.512 -255.003,0 -33.066,31.512 -45.533,67.945 -45.533,67.945 v -9.844 c 0,0 15.295,-43.268 45.533,-67.945 30.238,-24.677 228.946,-23.378 254.582,0 25.635,23.378 38.747,67.945 38.747,67.945 z" /><ellipse
       style="fill:#960000"
       id="ellipse3264"
       ry="16.975"
       rx="6.9489999"
       cy="248.211"
       cx="462.09201"
       transform="matrix(-0.8898,0.4563,-0.4563,-0.8898,986.5333,258.1984)" /><ellipse
       style="fill:#960000"
       id="ellipse3266"
       ry="16.975"
       rx="6.9489999"
       cy="247.02901"
       cx="125.962"
       transform="matrix(0.8763,0.4818,-0.4818,0.8763,134.6121,-30.1261)" /></g><g
     transform="matrix(0.63926204,0,0,0.63926204,-21.039129,-84.874827)"
     id="g3268"><path
       style="opacity:0.6;fill:#ffffff"
       id="path3270"
       d="M 386.49,250.492 H 349.285 319.791 274.555 249 198.68 c -33.72,0 -33.604,89.606 -1.945,94.771 l 65.466,-4.21 c 7.915,0 23.719,-30.655 26.684,-33.065 2.965,-2.41 12.729,-2.704 16.575,0 3.846,2.704 12.593,29.976 20.507,29.976 l 65.466,7.298 c 30.579,-14.072 22.87,-94.77 -4.943,-94.77 z" /><path
       style="opacity:0.5;fill:#ffffff"
       id="path3272"
       d="m 248.545,269.019 c -20.685,-0.462 -53.05,-0.274 -70.729,-0.13 -2.964,9.719 -6.269,22.024 -4.63,33.972 16.056,0 50.96,0.078 75.782,0.078 14.946,0 27.512,2.82 39.198,5.875 0.288,-0.368 0.53,-0.639 0.719,-0.792 2.965,-2.41 12.729,-2.704 16.575,0 0.995,0.7 2.323,3.058 3.874,6.149 5.967,1.258 11.943,2.127 18.153,2.205 16.915,0.214 56.557,0.146 82.066,0.074 3.249,-10.857 0.853,-22.495 0.125,-33.432 -24.906,0 -64.487,-0.562 -83.463,-0.562 -26.738,-0.001 -50.083,-12.821 -77.67,-13.437 z" /></g><path
     id="path3274"
     d="m 155.89646,123.63135 c -0.52803,-12.35565 23.02878,-13.90011 25.81085,-3.55813 2.77504,10.31833 -24.65122,12.71492 -25.81085,3.55813 -0.92565,-7.31124 0,0 0,0 z" /><g
     transform="matrix(0.16363642,0,0,0.16363643,2.8667513,26.432443)"
     id="g4788"><g
       transform="matrix(4.1803662,0,0,4.1803662,-117.56255,1825.0688)"
       style="font-style:normal;font-variant:normal;font-weight:normal;font-stretch:normal;font-size:40px;line-height:125%;font-family:'DejaVu Sans';-inkscape-font-specification:'DejaVu Sans';letter-spacing:0px;word-spacing:0px;display:inline;fill:#000000;fill-opacity:1;stroke:none"
       id="text3009"><path
         d="m 119.09119,162.63228 h 4.14844 c 1.68746,0 3.04684,-0.0469 4.07813,-0.14063 1.07808,-0.0937 2.13277,-0.30468 3.16406,-0.63281 1.07808,-0.32812 1.87495,-0.84375 2.39062,-1.54687 0.51558,-0.75 0.77339,-1.71094 0.77344,-2.88282 -5e-5,-1.31249 -0.44536,-2.46093 -1.33594,-3.44531 -0.89067,-0.98437 -2.10942,-1.47655 -3.65625,-1.47656 h -0.42187 l -4.78125,0.21094 h -0.77344 c -2.95316,0 -5.10941,-1.05468 -6.46875,-3.16407 -1.3594,-2.15623 -2.03909,-5.64842 -2.03906,-10.47656 v -38.32031 h 12.9375 c 3.0937,6e-5 4.64058,-1.335877 4.64062,-4.007814 -4e-5,-1.265559 -0.39848,-2.296808 -1.19531,-3.09375 -0.75004,-0.796806 -1.89848,-1.195243 -3.44531,-1.195313 h -12.9375 V 72.069778 c -3e-5,-1.640533 -0.46878,-2.88272 -1.40625,-3.726562 -0.93753,-0.890531 -2.1094,-1.335843 -3.51563,-1.335938 -1.50002,9.5e-5 -2.88283,0.539157 -4.14843,1.617188 -1.21877,1.078217 -1.87502,2.367278 -1.96875,3.867187 l -1.68751,19.96875 h -8.64844 c -1.546881,7e-5 -2.718754,0.398507 -3.515625,1.195313 -0.796878,0.750067 -1.195315,1.734441 -1.195313,2.953125 -2e-6,1.265689 0.398435,2.2735 1.195313,3.023437 0.843745,0.750062 2.039057,1.125062 3.585937,1.125002 h 8.578128 v 40.5 c -1e-5,7.26564 1.59374,12.65626 4.78126,16.17187 3.18747,3.46875 7.47653,5.20313 12.86718,5.20313"
         style="font-size:144px;font-family:Nunito;-inkscape-font-specification:Nunito;fill:#333333"
         id="path3014" /><path
         d="m 154.80994,161.6479 c 1.73436,0 3.23436,-0.51562 4.5,-1.54687 1.31248,-1.03125 1.96873,-2.48437 1.96875,-4.35938 v -36.21093 c -2e-5,-5.48433 1.73435,-9.86714 5.20313,-13.14844 3.51559,-3.28119 8.43746,-4.92182 14.76562,-4.92188 1.49996,6e-5 2.6484,-0.49212 3.44532,-1.476559 0.79682,-1.031187 1.19526,-2.249936 1.19531,-3.65625 -5e-5,-1.499933 -0.44536,-2.812432 -1.33594,-3.9375 -0.84379,-1.12493 -2.01567,-1.687429 -3.51562,-1.6875 -4.96879,7.1e-5 -9.23441,1.476632 -12.79688,4.429687 -3.51565,2.906314 -5.8594,6.539122 -7.03125,10.898442 l 0.0703,-8.437504 c -2e-5,-1.781184 -0.63283,-3.163995 -1.89843,-4.148438 -1.21877,-1.03118 -2.69534,-1.546805 -4.42969,-1.546875 -1.73439,7e-5 -3.23439,0.515695 -4.5,1.546875 -1.26564,0.984443 -1.89845,2.414129 -1.89844,4.289063 v 58.007809 c -1e-5,1.87501 0.60936,3.32813 1.82813,4.35938 1.21873,1.03125 2.69529,1.54687 4.42968,1.54687"
         style="font-size:144px;font-family:Nunito;-inkscape-font-specification:Nunito;fill:#333333"
         id="path3016" /><path
         d="m 326.8058,161.6479 c 1.73435,0 3.23435,-0.53906 4.5,-1.61718 1.2656,-1.125 1.89841,-2.67187 1.89844,-4.64063 v -54.63281 h 11.88281 c 2.99996,6e-5 4.49996,-1.359314 4.5,-4.078127 -4e-5,-1.218683 -0.37504,-2.226495 -1.125,-3.023437 -0.70317,-0.796806 -1.82817,-1.195243 -3.375,-1.195313 h -11.88281 v -5.484375 c -3e-5,-3.796796 0.14059,-6.796793 0.42187,-9 0.3281,-2.249914 0.91404,-3.960849 1.75782,-5.132812 0.89059,-1.21866 1.8984,-1.992097 3.02343,-2.320313 1.12497,-0.374908 2.69528,-0.562408 4.71094,-0.5625 h 5.97656 c 1.40621,9.2e-5 2.48433,-0.468657 3.23438,-1.40625 0.79682,-0.937406 1.19526,-2.062404 1.19531,-3.375 -5e-5,-1.312402 -0.39849,-2.437401 -1.19531,-3.375 -0.75005,-0.984274 -1.80474,-1.476461 -3.16406,-1.476562 h -8.57813 c -6.28128,1.01e-4 -11.20315,1.781349 -14.76562,5.34375 -3.56252,3.515717 -5.34377,9.468836 -5.34375,17.859375 v 8.929687 h -9.21094 c -1.54688,7e-5 -2.69532,0.398507 -3.44531,1.195313 -0.75001,0.796942 -1.12501,1.804754 -1.125,3.023437 -1e-5,1.171939 0.37499,2.156313 1.125,2.953125 0.74999,0.750062 1.89843,1.125062 3.44531,1.125002 h 9.21094 v 54.63281 c -2e-5,1.96876 0.60935,3.51563 1.82812,4.64063 1.26561,1.07812 2.76561,1.61718 4.5,1.61718"
         style="font-size:144px;font-family:Nunito;-inkscape-font-specification:Nunito;fill:#333333"
         id="path3020" /><path
         d="m 371.17299,75.515091 c 2.48435,8.6e-5 4.47654,-0.703038 5.97656,-2.109375 1.49998,-1.453035 2.24998,-3.328033 2.25,-5.625 -2e-5,-2.343654 -0.75002,-4.218652 -2.25,-5.625 -1.50002,-1.453024 -3.46877,-2.179586 -5.90625,-2.179688 -2.48439,1.02e-4 -4.50001,0.726664 -6.04687,2.179688 -1.50001,1.453223 -2.25001,3.328221 -2.25,5.625 -1e-5,2.296967 0.74999,4.171965 2.25,5.625 1.49998,1.406337 3.49217,2.109461 5.97656,2.109375 m -0.0703,86.132809 c 1.73435,0 3.23435,-0.5625 4.5,-1.6875 1.31247,-1.17187 1.96872,-2.74218 1.96875,-4.71093 V 98.085403 c -3e-5,-1.968684 -0.63284,-3.515557 -1.89844,-4.640625 -1.21877,-1.12493 -2.6719,-1.68743 -4.35938,-1.6875 -1.73439,7e-5 -3.25782,0.56257 -4.57031,1.6875 -1.26564,1.125068 -1.89845,2.671941 -1.89844,4.640625 v 57.164067 c -1e-5,2.0625 0.60937,3.65625 1.82813,4.78125 1.21873,1.07812 2.6953,1.61718 4.42969,1.61718"
         style="font-size:144px;font-family:Nunito;-inkscape-font-specification:Nunito;fill:#333333"
         id="path3022" /><path
         d="m 404.92299,161.6479 c 1.73436,0 3.23435,-0.5625 4.5,-1.6875 1.31248,-1.12499 1.96873,-2.6953 1.96875,-4.71093 v -30.65625 l 33.04687,35.15625 c 1.17182,1.3125 2.57807,1.96875 4.21875,1.96875 1.54682,0 2.90619,-0.58594 4.07813,-1.75782 1.21868,-1.17187 1.82806,-2.5078 1.82812,-4.00781 -6e-5,-1.35937 -0.51569,-2.57812 -1.54687,-3.65625 l -27.91406,-29.39062 25.52343,-22.85157 c 1.12494,-1.078059 1.68744,-2.27337 1.6875,-3.585934 -6e-5,-1.453058 -0.586,-2.765557 -1.75781,-3.9375 -1.12506,-1.171805 -2.43756,-1.757742 -3.9375,-1.757813 -1.17193,7.1e-5 -2.27349,0.445383 -3.30469,1.335938 L 411.39174,121.35884 V 67.569778 c -2e-5,-1.968654 -0.63284,-3.515527 -1.89844,-4.640625 -1.21877,-1.1249 -2.67189,-1.687399 -4.35937,-1.6875 -1.73439,1.01e-4 -3.25783,0.5626 -4.57032,1.6875 -1.26563,1.125098 -1.89844,2.671971 -1.89843,4.640625 v 87.679692 c -1e-5,2.0625 0.60936,3.65625 1.82812,4.78125 1.21874,1.07812 2.6953,1.61718 4.42969,1.61718"
         style="font-size:144px;font-family:Nunito;-inkscape-font-specification:Nunito;fill:#333333"
         id="path3024" /></g><path
       style="display:inline;fill:#37abc8;fill-opacity:1;stroke:none"
       d="m 776.62606,2500.7168 c -33.86547,-2.9196 -59.74328,-13.1348 -78.56521,-31.0137 -19.14975,-18.1909 -27.36664,-41.9069 -24.12384,-69.6286 3.73164,-31.9013 18.89136,-54.4293 45.47029,-67.5719 20.48497,-10.1294 40.92086,-13.9825 74.2015,-13.9904 23.6457,-0.01 43.45939,1.9263 73.67896,7.1839 7.4724,1.3001 13.94181,2.3644 14.37649,2.3653 0.63211,0 1.13342,-2.3782 2.5045,-11.8865 2.48071,-17.2034 2.92533,-23.1396 2.24949,-30.0309 -0.78666,-8.0217 -1.81332,-11.8425 -4.85232,-18.0592 -7.8409,-16.0392 -26.4539,-25.8526 -56.3431,-29.7057 -8.54805,-1.1019 -28.27642,-1.2561 -36.83948,-0.2884 -14.34651,1.622 -22.35237,3.6887 -40.20696,10.3786 -10.44586,3.9141 -10.4936,3.9262 -14.66034,3.6816 -7.16306,-0.4197 -12.05304,-3.6628 -15.18945,-10.0734 -1.29168,-2.6399 -1.5188,-3.7297 -1.51885,-7.2868 0,-5.3399 1.39069,-8.1747 6.23314,-12.7045 10.85909,-10.1583 29.13255,-18.8091 47.57591,-22.5234 11.80945,-2.3782 17.62271,-2.8782 33.18165,-2.8543 16.09952,0.042 26.39396,0.9338 40.7011,3.5942 23.79706,4.4245 41.86649,12.2234 55.49189,23.9501 4.04288,3.4794 10.13915,10.3276 12.75137,14.3237 0.79841,1.2215 1.6209,2.221 1.8277,2.221 0.20693,0 1.52767,-1.4677 2.9352,-3.2611 20.63182,-26.2903 55.38062,-41.1712 96.0916,-41.1503 28.7948,0 55.5598,7.2994 75.5111,20.5528 15.8247,10.5123 28.6803,26.7063 33.8736,42.6702 2.9819,9.1659 3.4352,12.5529 3.4627,25.8661 0.016,8.2838 -0.2116,13.8713 -0.6736,16.4602 -4.6692,26.1661 -15.7909,44.2934 -35.0951,57.2012 -15.53,10.384 -35.0343,16.4601 -60.5435,18.8601 -12.8411,1.2081 -36.32755,1.094 -51.54251,-0.2509 -12.9128,-1.1411 -28.76889,-3.149 -35.53309,-4.4992 -5.6619,-1.1304 -25.0506,-4.3677 -25.21024,-4.2092 -0.0703,0.071 -0.99285,5.8692 -2.04985,12.888 -1.68766,11.2067 -1.92673,14.003 -1.96214,22.9511 -0.0376,9.0977 0.0915,10.6938 1.18915,14.8925 3.52969,13.5013 11.30818,22.5326 25.42034,29.5146 13.88254,6.8684 28.43586,9.8406 50.42569,10.2988 9.73545,0.2048 14.72115,0.062 20.81185,-0.5827 14.7651,-1.5656 21.4933,-3.2833 41.1098,-10.4948 4.8858,-1.7964 9.872,-3.4309 11.0805,-3.6324 2.5898,-0.4318 7.4198,0.4599 10.2348,1.89 5.081,2.5805 9.3499,9.4627 9.3233,15.0301 -0.029,6.5042 -2.2232,10.4438 -8.6626,15.5672 -15.3968,12.2502 -35.0556,19.7627 -58.5228,22.3646 -8.3681,0.928 -27.4738,1.0647 -36.70232,0.2633 -25.98905,-2.2573 -44.03272,-6.7024 -60.52259,-14.9089 -12.86662,-6.4034 -22.68346,-14.3474 -30.01545,-24.2895 -1.80157,-2.443 -3.33187,-4.5027 -3.40069,-4.578 -0.069,-0.075 -1.26635,1.3361 -2.66126,3.1353 -6.16583,7.9536 -15.59468,16.5025 -24.80897,22.4937 -13.30221,8.6492 -32.39892,15.2475 -51.72224,17.8715 -5.76268,0.7822 -24.88234,1.4276 -29.78512,1.005 z m 33.18166,-37.2321 c 15.77633,-3.4964 29.83536,-11.3772 40.04156,-22.4447 9.30988,-10.0952 16.94591,-25.2189 21.14838,-41.8852 2.36889,-9.395 6.30655,-35.5428 5.43369,-36.082 -0.34447,-0.2132 -2.42546,-0.5497 -4.62386,-0.7487 -2.19846,-0.2007 -8.46495,-0.9389 -13.92555,-1.645 -32.43526,-4.195 -52.33389,-5.8249 -63.48931,-5.1995 -21.20826,1.188 -29.85413,3.0395 -42.58748,9.1207 -6.5233,3.1152 -11.02568,6.4959 -14.5881,10.953 -5.11092,6.3951 -8.19582,12.7501 -10.34612,21.3132 -1.5648,6.2312 -1.72448,22.5471 -0.27214,27.804 2.44652,8.8552 5.35078,13.8671 11.88143,20.5034 8.94252,9.0869 20.73103,15.1488 35.35353,18.18 7.47705,1.5501 7.25577,1.535 19.77505,1.3465 9.08402,-0.1379 12.48275,-0.393 16.19892,-1.2157 z M 1016.4745,2340.883 c 13.1943,-1.1642 21.3072,-3.2126 31.2752,-7.8955 8.2903,-3.8952 13.1088,-7.8762 17.6686,-14.5978 6.7131,-9.8962 9.3272,-19.2614 9.2601,-33.1758 -0.048,-9.9175 -0.8885,-14.0431 -4.3122,-21.1631 -7.6497,-15.908 -25.6199,-27.3028 -49.1887,-31.1902 -5.8812,-0.9698 -21.66658,-0.7976 -27.69493,0.3011 -11.5973,2.116 -21.40043,5.9729 -30.04639,11.8207 -15.97364,10.8042 -26.99764,27.0905 -33.13643,48.9538 -2.41127,8.5877 -3.05405,11.884 -5.20388,26.687 l -1.98309,13.6552 2.65642,0.2926 c 8.02308,0.8896 26.11491,3.0802 36.62189,4.4346 6.6102,0.852 14.72275,1.7612 18.02786,2.0208 9.55476,0.75 26.68545,0.6802 36.05555,-0.1463 v 0 z"
       id="path4507" /></g></svg>