<svg width="90px" height="96px" viewBox="0 0 90 96" version="1.1" xmlns="http://www.w3.org/2000/svg" xmlns:xlink="http://www.w3.org/1999/xlink">
  <g id="Page-1" stroke="none" stroke-width="1" fill="none" fill-rule="evenodd">
    <g id="noun_1232825_cc" transform="translate(-5.000000, 0.000000)" fill-rule="nonzero" fill="#000000">
      <g id="Group" transform="translate(5.000000, 0.000000)">
        <path d="M75.2,7.1 L73.8,5.7 L68.2,10.8 C64.6,7.6 60.4,5 55.8,3.2 C55.8,3.1 55.8,3.1 55.7,3.1 L55.6,3.2 C51.1,1.5 46.3,0.5 41.2,0.5 C18.9,0.5 0.8,18.7 0.8,41 C0.8,50.2 3.9,58.7 9.1,65.5 L3.5,70.6 L4.7,72.1 C13.4,82.3 25.8,88.3 39,88.9 L39,92 L27,92 C25.9,92 25,92.9 25,94 C25,95.1 25.9,96 27,96 L54,96 C55.1,96 56,95.1 56,94 C56,92.9 55.1,92 54,92 L43,92 L43,89 C68.7,88 89.2,66.9 89.2,41 C89.2,28.2 84.3,16.1 75.2,7.1 Z M41.2,4.5 C45.1,4.5 48.9,5.1 52.4,6.3 C52.4,6.6 52.3,6.9 52.2,7.1 C50.9,9.7 52.5,11.2 53.3,11.8 C53.7,12.1 54,12.4 54.2,12.8 C54.4,13.2 54.9,14.2 52.6,16.5 C51.4,17.7 50.5,19.2 50,20.7 C49.3,22.7 49.6,24.3 50.6,25.3 C51.2,26.1 52.8,30.2 53.1,32 C52.2,32.6 51.1,32.1 48.5,30.3 C48.1,30 47.6,29.7 47.2,29.4 C46,28.6 45.1,27.2 44.2,25.9 C43.3,24.4 42.4,23 40.9,22.3 C38.7,21.2 36.7,23.1 34.3,25.4 C32.7,26.8 30.3,29 29,29 C27.4,29 26.6,27.5 25.6,25.6 C25.2,24.8 24.9,24.1 24.4,23.6 C23.5,22.7 21.3,19.7 21,18.8 C20.9,18.2 20.7,17.7 20.2,17.4 C19.7,17 19,16.4 13.7,17.2 C20.4,9.4 30.2,4.5 41.2,4.5 Z M4.8,41 C4.8,34 6.8,27.4 10.3,21.8 C13,21.3 16.1,20.8 17.6,20.7 C18.8,23.2 21.6,26.3 21.6,26.3 C21.7,26.4 21.9,26.9 22.1,27.3 C23.1,29.3 24.9,33 29.1,33 C32,33 34.7,30.5 37.1,28.2 C37.8,27.5 38.9,26.5 39.5,26.1 C39.9,26.5 40.4,27.3 40.8,28 C41.8,29.5 43,31.4 44.9,32.7 C45.3,33 45.7,33.3 46.1,33.6 C47.8,34.8 50,36.4 52.3,36.4 C53.6,36.4 55,35.9 56.4,34.5 C58.5,32.4 54.7,24.5 53.6,22.9 C53.6,22.3 54.1,20.8 55.4,19.5 C58.3,16.6 59.1,13.8 57.8,11.2 C57.2,10.1 56.5,9.4 56,9 C56,9 55.9,8.9 55.9,8.9 C56.1,8.6 56.2,8.2 56.3,7.9 C68.9,13.5 77.8,26.2 77.8,41 C77.8,46.6 76.5,51.9 74.2,56.7 L68.6,55.1 C68.1,55 67.6,55 67.2,55.2 L63.5,57 L59,57 L56.6,53.8 C56.5,53.7 56.5,53.7 56.4,53.6 L53.4,50.6 C52.9,50.1 52.2,49.9 51.5,50.1 L47.5,51.1 C46.9,51.2 46.5,51.6 46.2,52.1 C46,52.4 45.8,52.7 45.6,53 C44.9,52.9 43.5,52.6 42.1,52.3 L39.5,48.9 C39.1,48.4 38.5,48.1 37.9,48.1 C37.4,48.1 35,48.2 33.5,49.7 C33.3,49.9 33.2,50 33.1,50.1 C33,50.1 33,50.1 32.9,50.1 L29.9,50.1 C28.8,50.1 27.9,51 27.9,52.1 L27.9,57.1 C27.9,60.1 31.6,60.1 32.9,60.1 C32.9,60.1 32.9,60.1 32.9,60.1 C33.4,60.1 35.2,60.5 36.9,60.9 C37.3,61.4 37.7,61.9 37.9,62.2 C37.8,62.4 37.7,62.6 37.7,62.7 C37.4,63.2 37,64 37,64.9 C37,64.9 37,65 36.9,65 C36.5,64.9 35.6,64.6 34.9,64.2 C34.8,64.2 34.7,64.1 34.6,64.1 L31.6,63.1 C31,62.9 30.3,63 29.8,63.4 C29.3,63.8 29,64.4 29,65 L29,67 C29,67.1 28.9,67.5 28.8,67.8 C28.6,68.6 28.3,69.6 28.7,70.5 C28.7,70.5 28.6,70.6 28.6,70.6 C28.4,70.8 28.3,70.9 28.2,71 C28.1,71 28.1,71 28,71 L27,71 C25.9,71 25,71.9 25,73 L25,73.7 C13,67.7 4.8,55.3 4.8,41 Z M34.2,69.5 C33.9,68.8 33.4,68.4 32.8,68.2 C32.8,68 32.9,67.9 32.9,67.7 L33.2,67.8 C34,68.2 35.7,69 37,69 C39.1,69 41,67.1 41,65.1 C41,65 41.2,64.7 41.3,64.4 C41.6,63.8 42,63 42,62 C42,60.5 40.6,58.8 39.4,57.6 C39.1,57.3 38.8,57.2 38.5,57.1 C37.2,56.7 34.1,56 33,56 C32.8,56 32.4,56 32,56 L32,54 L33,54 C34.7,54 35.1,53.7 36.4,52.4 C36.5,52.3 36.8,52.2 37.1,52.1 L39.4,55.2 C39.7,55.6 40.1,55.8 40.5,55.9 C41.8,56.2 44.9,57 46,57 C47.5,57 48.7,55.7 49.3,54.7 L51.4,54.2 L53.5,56.3 L56.4,60.2 C56.8,60.7 57.4,61 58,61 L64,61 C64.3,61 64.6,60.9 64.9,60.8 L68.2,59.1 L72.2,60.2 C65.7,70.5 54.3,77.4 41.2,77.4 C36.9,77.4 32.8,76.6 29,75.3 L29,74.9 C29.9,74.8 30.4,74.4 31.3,73.4 C31.9,73.3 32.6,73.1 33.4,72.3 C34.6,71.2 34.5,70.2 34.2,69.5 Z M41.2,85 C29,85 17.3,79.9 9,71 L11.6,68.6 C19,76.6 29.5,81.5 41.2,81.5 C63.5,81.5 81.7,63.3 81.7,41 C81.7,30.5 77.7,20.9 71.1,13.7 L73.7,11.3 C81.2,19.4 85.3,29.9 85.3,41 C85.2,65.3 65.5,85 41.2,85 Z" id="Shape"></path>
        <path d="M17,54.4 C16.9,55.5 16.4,56.7 16.2,57.1 C15.8,57.9 16,58.8 16.6,59.4 C16.9,59.7 18.3,61 20,61 C21.8,61 22.7,59.3 23.5,57.8 C23.8,57.3 24.2,56.6 24.4,56.4 C25.3,55.5 27.8,53 25.4,50.6 C24.9,50.1 23.7,47.4 22.8,45.3 C22.6,44.8 22.1,44.3 21.6,44.1 L18.6,43.1 C18.4,43 18.2,43 18,43 L14,43 C13,43 12.2,43.7 12,44.6 L11,49.6 C10.8,50.6 11.4,51.7 12.5,51.9 C13.5,52.1 14.6,52.5 15.1,52.8 C15.3,53.5 15.8,54.1 17,54.4 Z M15.6,47 L17.6,47 L19.4,47.6 C20.1,49.2 21.2,51.7 22.1,52.9 C21.9,53.1 21.7,53.4 21.5,53.5 C21.3,53.7 21.1,54 20.9,54.2 C20.9,54.1 20.9,54 20.9,53.9 C20.9,52.7 20.5,51.3 18.6,50.6 C18.2,49.9 17.2,49.1 15.2,48.5 L15.6,47 Z" id="Shape"></path>
      </g>
    </g>
  </g>
</svg>
