
<svg width="62px" height="62px" viewBox="0 0 62 62" version="1.1" xmlns="http://www.w3.org/2000/svg" xmlns:xlink="http://www.w3.org/1999/xlink">
  <g id="Page-1" stroke="none" stroke-width="1" fill="none" fill-rule="evenodd">
    <g transform="translate(-19.000000, 0.000000)" fill-rule="nonzero" fill="#000000">
      <path d="M29,6 L33,6 L33,8 L29,8 L29,6 Z M35,8 L39,8 L39,6 L35,6 L35,8 Z M43,8 L51,8 L51,6 L43,6 L43,8 Z M29,24 L33,24 L33,22 L29,22 L29,24 Z M35,24 L39,24 L39,22 L35,22 L35,24 Z M43,24 L51,24 L51,22 L43,22 L43,24 Z M29,40 L33,40 L33,38 L29,38 L29,40 Z M35,40 L39,40 L39,38 L35,38 L35,40 Z M43,40 L51,40 L51,38 L43,38 L43,40 Z M50,54 C48.895,54 48,54.895 48,56 C48,57.105 48.895,58 50,58 C51.105,58 52,57.105 52,56 C52,54.895 51.105,54 50,54 Z M81,56 C81,56.552 80.553,57 80,57 L55.91,57 C55.432,59.833 52.968,62 50,62 C47.032,62 44.569,59.833 44.09,57 L20,57 C19.448,57 19,56.552 19,56 C19,55.448 19.448,55 20,55 L44.09,55 C44.513,52.493 46.493,50.514 49,50.09 L49,46 L24,46 C23.448,46 23,45.552 23,45 L23,33 C23,32.448 23.448,32 24,32 L49,32 L49,30 L24,30 C23.448,30 23,29.552 23,29 L23,17 C23,16.448 23.448,16 24,16 L49,16 L49,14 L24,14 C23.448,14 23,13.552 23,13 L23,1 C23,0.448 23.448,0 24,0 L76,0 C76.553,0 77,0.448 77,1 L77,13 C77,13.552 76.553,14 76,14 L51,14 L51,16 L76,16 C76.553,16 77,16.448 77,17 L77,29 C77,29.552 76.553,30 76,30 L51,30 L51,32 L76,32 C76.553,32 77,32.448 77,33 L77,45 C77,45.552 76.553,46 76,46 L51,46 L51,50.09 C53.507,50.513 55.486,52.493 55.91,55 L80,55 C80.553,55 81,55.448 81,56 Z M25,12 L75,12 L75,2 L25,2 L25,12 Z M25,28 L75,28 L75,18 L25,18 L25,28 Z M25,44 L75,44 L75,34 L25,34 L25,44 Z M54,56 C54,53.794 52.206,52 50,52 C47.794,52 46,53.794 46,56 C46,58.206 47.794,60 50,60 C52.206,60 54,58.206 54,56 Z" id="Shape"></path>
    </g>
  </g>
</svg>
