<svg xmlns="http://www.w3.org/2000/svg" width="96" height="96" viewBox="0 0 96 96">
  <path fill="#24A1C1" d="M24.6173779,76.9745185 C18.1909935,76.4183394 13.2803647,74.4723602 9.7086748,71.0664584 C6.07477709,67.6011211 4.51552239,63.0832612 5.13088309,57.8023218 C5.83900711,51.7251753 8.71574816,47.4336275 13.759423,44.9299833 C17.646695,43.0003488 21.5246533,42.2663394 27.8400591,42.2648345 C32.327118,42.2629295 36.0870063,42.6317916 41.8215369,43.6333559 C43.2395156,43.8810229 44.4671647,44.0837703 44.5496505,44.0839418 C44.6696011,44.0839418 44.7647307,43.6308985 45.0249098,41.8195826 C45.4956547,38.5423625 45.5800267,37.4115259 45.4517779,36.0987443 C45.3024996,34.5706233 45.1076784,33.8427671 44.5309912,32.6584957 C43.0430852,29.6030538 39.5110423,27.7336169 33.8392035,26.9996075 C32.2171071,26.7896973 28.4734093,26.7603225 26.8484646,26.9446678 C24.12604,27.2536562 22.6068308,27.6473592 19.2187055,28.9217744 C17.2364766,29.6674042 17.2274174,29.6697092 16.4367278,29.6231133 C15.0774502,29.5431611 14.1495171,28.9253558 13.5543452,27.7041468 C13.3092332,27.2012501 13.2661344,26.9936449 13.2661249,26.3160231 C13.2661249,25.2987807 13.5300253,24.7587558 14.448939,23.8958362 C16.5095832,21.9606963 19.9771943,20.3127328 23.4770459,19.6051646 C25.7180325,19.1521213 26.8211692,19.0568721 29.7736671,19.0614251 C32.8287466,19.069426 34.7822417,19.2393125 37.4971953,19.7461144 C42.0129765,20.5889745 45.4418704,22.0746525 48.0274556,24.30857 C48.7946412,24.9713901 49.9514825,26.2759612 50.4471829,27.0372119 C50.5986909,27.2699057 50.7547684,27.4603088 50.7940112,27.4603088 C50.8332787,27.4603088 51.0839052,27.1807143 51.3510011,26.8390745 C55.2661396,21.8308145 61.8601465,18.996027 69.5855496,19.0000042 C75.0497127,19.0000042 80.1286966,20.3905324 83.9146982,22.9152838 C86.9176273,24.9178601 89.3571335,28.0027911 90.3426253,31.0438884 C90.9084771,32.7899777 90.9944962,33.4351958 90.9998643,35.971339 C91.0027509,37.5493896 90.959561,38.6137994 90.8718909,39.1069807 C89.9858535,44.0915808 87.8753758,47.5448023 84.2121693,50.0037175 C81.2651632,51.9818529 77.5639853,53.1393402 72.7233047,53.5965363 C70.2865499,53.8266774 65.8297107,53.8049416 62.9424872,53.5487403 C60.4921265,53.3313626 57.4832408,52.9488608 56.1996517,52.6916499 C55.1252374,52.4763105 51.445996,51.8596101 51.4157024,51.8898041 C51.4023621,51.9033294 51.227297,53.0078772 51.0267184,54.3449474 C50.7064645,56.4798057 50.661098,57.0124964 50.6543785,58.7170951 C50.6472435,60.4501924 50.6717418,60.7542469 50.8800342,61.5540925 C51.5498358,64.1260685 53.0258987,65.8465166 55.7038525,67.1765764 C58.3382332,68.4849956 61.0999024,69.0511949 65.2727398,69.1384813 C67.1201597,69.1774954 68.0662569,69.1502922 69.2220412,69.0274779 C72.0238983,68.7292336 73.300656,68.4020145 77.0231252,67.0282353 C77.9502651,66.686024 78.8964571,66.3746544 79.1257847,66.3362689 C79.6172307,66.2540117 80.5337819,66.4238792 81.0679623,66.6963109 C82.0321438,67.187892 82.8422194,68.4989401 82.8371718,69.5595209 C82.8316687,70.7985605 82.4152926,71.549048 81.1933382,72.5250475 C78.2716083,74.8586909 74.5411122,76.2898101 70.0879259,76.7854679 C68.4999773,76.9622504 64.8744386,76.9882915 63.1232148,76.8356261 C58.1914768,76.4056141 54.7674712,75.5588297 51.6383181,73.9955046 C49.1967206,72.7756672 47.3338559,71.2623479 45.9425218,69.3683938 C45.600652,68.9030062 45.310259,68.5106367 45.2971995,68.4962922 C45.2841059,68.4820048 45.0568942,68.7508171 44.7921931,69.0935618 C43.622152,70.6087098 41.8329131,72.2372616 40.0843897,73.3785755 C37.5601337,75.0262343 33.936301,76.2831998 30.2694662,76.7830676 C29.1759277,76.9320755 25.5477399,77.0550231 24.6173779,76.9745185 L24.6173779,76.9745185 Z M30.914001,69.8818632 C33.9077513,69.2158046 36.575623,67.7145248 38.5123734,65.6061838 C40.2790363,63.6830644 41.7280657,60.8020239 42.5255355,57.6271204 C42.9750611,55.837388 43.72228,50.8562741 43.5566442,50.7535573 C43.4912768,50.7129431 43.0963837,50.6488404 42.6792106,50.6109312 C42.2620261,50.5726981 41.0728835,50.4320722 40.0366683,50.2975613 C33.8816836,49.4984205 30.1056768,49.1879272 27.9888004,49.3070649 C23.9642754,49.533377 22.3236165,49.8860848 19.9073087,51.0445436 C18.6694332,51.6379842 17.8150519,52.2820021 17.1390395,53.1310725 C16.1691803,54.3493288 15.583783,55.5599461 15.1757375,57.191203 C14.8787977,58.3782366 14.8484965,61.4863893 15.1240956,62.4878204 C15.5883525,64.1747218 16.1394711,65.1294807 17.3787413,66.3936852 C19.0756931,68.124725 21.3127061,69.2795073 24.0875031,69.856946 C25.5063642,70.1522376 25.4643736,70.149361 27.8400591,70.1134521 C29.5638623,70.0871824 30.2088126,70.0385862 30.914001,69.8818632 L30.914001,69.8818632 Z M70.1315332,46.526436 C72.635312,46.3046578 74.1748333,45.9144409 76.0663824,45.0223559 C77.6395675,44.2803266 78.5539365,43.5219525 79.4192139,42.2414985 C80.6931062,40.3562882 81.1891634,38.5722326 81.1766688,35.9215618 C81.1673218,34.0322939 81.0078267,33.2463737 80.358138,31.8900252 C78.9065145,28.8595767 75.4964508,26.6888856 71.0239846,25.9483421 C69.9079555,25.7635968 66.9124878,25.7964006 65.7685352,26.0057012 C63.5678066,26.4087958 61.7075436,27.143529 60.0668677,28.2575256 C57.0356754,30.3157083 54.9437375,33.4182224 53.7788275,37.5831459 C53.3212597,39.219089 53.1992844,39.8470289 52.7913281,42.6669766 L52.4150126,45.2682703 L52.9191006,45.3240101 C54.4415775,45.4934775 57.874722,45.9107833 59.8685491,46.1687943 C61.1229149,46.331099 62.6623698,46.5043001 63.2895546,46.5537535 C65.1026864,46.6966273 68.3534429,46.6833305 70.1315332,46.5258836 L70.1315332,46.5258836 L70.1315332,46.526436 Z"/>
</svg>
