<svg xmlns="http://www.w3.org/2000/svg" width="72" height="72" viewBox="0 0 72 72">
  <circle cx="36" cy="36" r="36" fill="#c62a71"/>
  <g fill="#fff">
    <g fill-rule="evenodd">
      <path d="M34.886 42.4a6.47 6.47 0 116.46-6.48 6.46 6.46 0 01-6.46 6.48M47.476 38.92a3 3 0 113-3 3 3 0 01-3 3M58.396 41.73a2.86 2.86 0 11.06-.24c0 .07 0 .15-.06.24M56.286 34a3 3 0 112.22-3.59 3.14 3.14 0 010 1.17 2.87 2.87 0 01-2.22 2.42M66.906 41.4a3 3 0 11-2.42-3.46 3 3 0 012.51 3.19.77.77 0 00-.06.27M64.476 33.91a3 3 0 112.45-3.43 3.32 3.32 0 010 .77 3 3 0 01-2.48 2.66M62.396 51.74a3 3 0 11.37-1.23 2.69 2.69 0 01-.37 1.23M61.316 24.31a3 3 0 111.14-4.08 2.79 2.79 0 01.37 1.77 3 3 0 01-1.51 2.35"/>
    </g>
    <path
      d="M34.996 66a30 30 0 110-60 29.71 29.71 0 0118.22 6.17L49.546 17a24 24 0 00-38.55 19 24 24 0 0038.56 19.06l3.66 4.79A29.74 29.74 0 0134.996 66z"/>
  </g>
</svg>
