<svg xmlns="http://www.w3.org/2000/svg" width="32" height="32" viewBox="0 0 32 32">
  <g fill="none">
    <circle cx="16" cy="16" r="16" fill="#CA2170"/>
    <path fill="#FFF" d="M11.4584691,13.9059027 C10.1039643,13.9073677 9.00383358,12.8130959 9.00001,11.4597195 C8.9961853,10.1066373 10.0901428,9.00589931 11.4449417,9.00002359 C12.7994476,8.99415233 13.9028137,10.0851921 13.9110468,11.4382755 C13.9169293,12.0913154 13.6604964,12.719091 13.1999766,13.1832409 C12.7391627,13.6465085 12.1119026,13.9067839 11.4584691,13.9059027 Z M16.1321856,12.6563312 C15.5069844,12.6563312 15,12.1498792 15,11.5253345 C15,10.9007897 15.5069844,10.3943388 16.1321856,10.3943388 C16.7573868,10.3943388 17.26437,10.9007897 17.26437,11.5253345 C17.2652647,11.8255635 17.1461532,12.1137469 16.9335378,12.3258457 C16.7212154,12.5382374 16.4327288,12.6572125 16.1321856,12.6563312 Z M20.2756886,13.7226995 C20.0998328,14.2855536 19.5052147,14.6048759 18.9382407,14.440955 C18.3712656,14.2770341 18.0392557,13.6900911 18.1912921,13.1201859 C18.3436226,12.5502819 18.9235368,12.2065765 19.4969804,12.3455272 C20.0710134,12.4856533 20.4271367,13.0579081 20.299215,13.6336879 C20.299215,13.6630643 20.299215,13.689504 20.2756886,13.7218171 L20.2756886,13.7226995 Z M19.4758081,10.8076661 C19.0288146,10.919297 18.5588851,10.7503816 18.2859836,10.3796506 C18.0130833,10.0095067 17.9913217,9.51098701 18.2306977,9.11822256 C18.4703689,8.72516511 18.923831,8.51600424 19.3787636,8.58797574 C19.8334021,8.6608296 20.1992304,9.00042286 20.3050963,9.44812099 C20.3333275,9.59500296 20.3333275,9.74482391 20.3050963,9.89170588 C20.2433408,10.3470422 19.9022154,10.7151306 19.4522817,10.811191 L19.4758081,10.8076661 Z M23.5046227,13.5990241 C23.3964026,14.2138739 22.8094317,14.6248516 22.1939343,14.5170397 C21.5781427,14.4089349 21.1667334,13.8231661 21.2743652,13.2080221 C21.3819959,12.5922898 21.9683797,12.1810192 22.5841702,12.2885369 C23.1684963,12.3813665 23.5840222,12.9060317 23.5399117,13.4959125 C23.5263843,13.5273444 23.5184442,13.5611282 23.5163853,13.5957921 L23.5046227,13.5990241 Z M22.5812301,10.7586081 C21.9660268,10.8605442 21.3843478,10.4448662 21.2825984,9.83030935 C21.1805549,9.21633958 21.5960819,8.63527231 22.2112841,8.53304206 C22.8258991,8.43081192 23.4081664,8.84590155 23.510504,9.46016544 C23.5222666,9.55769534 23.5222666,9.65640061 23.510504,9.7539305 C23.4646288,10.2603814 23.0832144,10.6728285 22.5812301,10.7586081 Z M21.7931111,17.5152078 C21.5078599,18.0263591 20.8823635,18.2408086 20.3433266,18.0122592 C19.8034061,17.7831215 19.523448,17.1850164 19.6934225,16.624512 C19.8639852,16.0643016 20.430078,15.7226528 21.0058745,15.8322272 C21.5816722,15.9426828 21.9822012,16.4682293 21.9342672,17.0513532 C21.9254436,17.2158612 21.8769224,17.3744946 21.7931111,17.515502 L21.7931111,17.5152078 Z M21.3843478,7.12208774 C20.8379589,7.42936619 20.1462963,7.23606866 19.8386952,6.69025284 C19.5310941,6.14473081 19.7245938,5.45350117 20.2709838,5.14622272 C20.8167855,4.83894427 21.5090353,5.03165434 21.8166375,5.57717637 C21.9333848,5.77488035 21.9830836,6.00460481 21.9577925,6.23227287 C21.9233858,6.60182954 21.7101822,6.93084661 21.387289,7.1135685 L21.3843478,7.12208774 Z M11.5666684,22.7418333 C7.45668969,22.8079313 3.63019739,20.6552191 1.55579888,17.1103546 C-0.518599627,13.5651948 -0.518599627,9.17810524 1.55579888,5.63294615 C3.63019739,2.08837486 7.45668969,-0.0643368804 11.5666684,0.00146655576 C14.0674744,-0.00264555789 16.4982905,0.824009284 18.4774093,2.35158849 L17.086439,4.16412007 C14.3397875,2.0636986 10.6379827,1.70236727 7.53638328,3.23229666 C4.43478381,4.76193226 2.47095732,7.91785222 2.47095732,11.3731195 C2.47272205,14.8286795 4.4359603,17.9843057 7.5366774,19.5162911 C10.6373945,21.0468082 14.3397875,20.689883 17.0893791,18.5938681 L18.4774093,20.4093377 C16.4959386,21.929867 14.0651214,22.7500586 11.5666684,22.7418333 Z" transform="translate(4 5)"/>
  </g>
</svg>
