<svg width="128" height="128" viewBox="0 0 128 128" xmlns="http://www.w3.org/2000/svg">
    <g fill="none" fill-rule="evenodd">
        <g fill="#dfdfdf">
            <path d="M128 0H0v128h128V0z"/>
            <path d="M48 0H0v48h48V0zM128 0H80v48h48V0zM128 80H80v48h48V80zM48 80H0v48h48V80z"/>
        </g>
        <path d="M27.429 27.429h73.142v73.142H27.43V27.43z"/>
        <path d="m65.323 31.205 16.89 9.164a2.905 2.905 0 0 1 1.516 2.557l-.014 14.763 15.34 8.323a2.905 2.905 0 0 1 1.516 2.558l-.016 16.47a2.905 2.905 0 0 1-1.51 2.55L82.17 96.792a2.873 2.873 0 0 1-2.776-.013l-15.279-8.512-15.63 8.525a2.873 2.873 0 0 1-2.775-.013l-16.794-9.356a2.906 2.906 0 0 1-1.488-2.539V68.606c0-1.063.577-2.041 1.505-2.55l15.337-8.403v-14.69c0-1.064.577-2.041 1.505-2.55l16.794-9.202a2.873 2.873 0 0 1 2.753-.006zM79.888 63.21l-11.997 6.57a1.937 1.937 0 0 0-1.004 1.7v10.554c0 .704.38 1.352.992 1.693l12.006 6.688c.575.32 1.273.324 1.85.009l12.042-6.566a1.937 1.937 0 0 0 1.007-1.7l.01-10.703c0-.712-.388-1.367-1.01-1.705l-12.061-6.544a1.916 1.916 0 0 0-1.835.004zm-33.69 0-11.991 6.57a1.937 1.937 0 0 0-1.004 1.7v10.554c0 .704.38 1.352.992 1.693l12.006 6.688c.575.32 1.273.324 1.85.009l12.041-6.566a1.937 1.937 0 0 0 1.007-1.7l.01-10.672c.001-.71-.385-1.365-1.007-1.703l-12.066-6.576a1.916 1.916 0 0 0-1.838.003zm16.844-25.645L51.05 44.137a1.937 1.937 0 0 0-1.004 1.699v10.552c0 .705.381 1.355.996 1.695l12.036 6.673c.575.319 1.271.321 1.848.007l12.01-6.554a1.937 1.937 0 0 0 1.007-1.699l.01-10.699c0-.712-.388-1.367-1.01-1.705l-12.065-6.545a1.916 1.916 0 0 0-1.835.004z" fill="#7F8C2B" fill-rule="nonzero"/>
    </g>
</svg>
