<svg xmlns="http://www.w3.org/2000/svg" width="32" height="32" viewBox="0 0 32 32">
  <g fill="none">
    <circle cx="16" cy="16" r="16" fill="#000"/>
    <g transform="translate(4 6)">
      <path fill="#A41E11" d="M22.0405157,5.89017943 C20.8261639,6.52359693 14.5360266,9.10975006 13.196801,9.80771582 C11.8575755,10.5056816 11.1137624,10.4990458 10.0556535,9.99351828 C8.99754468,9.4879908 2.30382991,6.78420298 1.0973204,6.20749143 C0.494065645,5.91913566 0.177960153,5.67662725 0.177960153,5.44739044 L0.177960153,3.14718006 C0.177960153,3.14718006 8.89318161,1.24994385 10.300575,0.745019623 C11.7079683,0.240095393 12.1947949,0.22199775 13.3928588,0.660563957 C14.5909228,1.09913016 21.749747,2.3906986 22.9327295,2.82443877 L22.9327295,5.09267665 C22.9327295,5.32010369 22.6600584,5.57528045 22.0417223,5.89138594 L22.0405157,5.89017943 Z" transform="translate(0 9.32)"/>
      <path fill="#D82C20" d="M22.0405157,12.9090485 C20.8261639,13.542466 14.5360266,16.1286191 13.196801,16.8265849 C11.8575755,17.5245506 11.1137624,17.5179148 10.0556535,17.0123874 C8.99754468,16.5068599 2.30382991,13.8030721 1.0973204,13.2263605 C-0.109189111,12.649649 -0.133319301,12.2533106 1.05086978,11.7894077 L10.2999717,8.20848746 C11.7067618,7.70416648 12.1941916,7.68546559 13.3922556,8.12403179 C14.5903195,8.562598 20.8424518,11.0510239 22.0248311,11.4913998 C23.2072104,11.9317758 23.2536611,12.2816636 22.0393092,12.9150811 L22.0405157,12.9090485 Z"/>
      <path fill="#A41E11" d="M22.0405157,5.89017943 C20.8261639,6.52359693 14.5360266,9.10975006 13.196801,9.80771582 C11.8575755,10.5056816 11.1137624,10.4990458 10.0556535,9.99351828 C8.99754468,9.4879908 2.30382991,6.78420298 1.0973204,6.20749143 C0.494065645,5.91913566 0.177960153,5.67662725 0.177960153,5.44739044 L0.177960153,3.14718006 C0.177960153,3.14718006 8.89318161,1.24994385 10.300575,0.745019623 C11.7079683,0.240095393 12.1947949,0.22199775 13.3928588,0.660563957 C14.5909228,1.09913016 21.749747,2.3906986 22.9327295,2.82443877 L22.9327295,5.09267665 C22.9327295,5.32010369 22.6600584,5.57528045 22.0417223,5.89138594 L22.0405157,5.89017943 Z" transform="translate(0 5.569)"/>
      <path fill="#D82C20" d="M22.0405157,5.26822378 C20.8261639,5.90164127 14.5360266,8.48779441 13.196801,9.18576016 C11.8575755,9.88372592 11.1137624,9.87709011 10.0556535,9.37156263 C8.99754468,8.86603514 2.30382991,6.16224733 1.0973204,5.58553578 C-0.109189111,5.00882424 -0.133319301,4.61248586 1.05086978,4.14858295 L10.2999717,0.56826598 C11.7067618,0.0633417493 12.1941916,0.0452441067 13.3922556,0.483810314 C14.5903195,0.922376521 20.8424518,3.41140564 22.0260376,3.8439393 C23.2096235,4.27647296 23.2548676,4.63420303 22.0405157,5.26762053 L22.0405157,5.26822378 Z" transform="translate(0 3.89)"/>
      <path fill="#A41E11" d="M22.0405157,7.56903742 C20.8261639,8.20245491 14.5360266,10.788608 13.196801,11.4871771 C11.8575755,12.1857461 11.1137624,12.178507 10.0556535,11.6729795 C8.99754468,11.167452 2.30382991,8.46366422 1.0973204,7.88695267 C0.494065645,7.5985969 0.177960153,7.35608849 0.177960153,7.12685168 L0.177960153,4.82543479 C0.177960153,4.82543479 8.89318161,2.92819858 10.300575,2.42327435 C11.7079683,1.91835012 12.1947949,1.90025248 13.3928588,2.33881869 C14.5909228,2.77738489 21.749747,4.06895333 22.9327295,4.5026935 L22.9327295,6.77093138 C22.9327295,6.99835842 22.6600584,7.25353518 22.0417223,7.56964067 L22.0405157,7.56903742 Z"/>
      <path fill="#D82C20" d="M22.0405157,5.26822378 C20.8261639,5.90164127 14.5360266,8.48779441 13.196801,9.18576016 C11.8575755,9.88372592 11.1137624,9.87709011 10.0556535,9.37156263 C8.99754468,8.86603514 2.30382991,6.16224733 1.0973204,5.58553578 C-0.109189111,5.00882424 -0.133319301,4.61248586 1.05086978,4.14858295 L10.2999717,0.56826598 C11.7067618,0.0633417493 12.1941916,0.0452441067 13.3922556,0.483810314 C14.5903195,0.922376521 20.8424518,3.41140564 22.0260376,3.8439393 C23.2096235,4.27647296 23.2548676,4.63420303 22.0405157,5.26762053 L22.0405157,5.26822378 Z"/>
      <g fill="#FFF" transform="translate(3.62 .874)">
        <path d="M8.50347903,3.44579116 L7.79043191,2.26039557 L5.51374847,2.05528895 L7.21251386,1.44238212 L6.70276359,0.501304702 L8.29294312,1.1226571 L9.79263445,0.631607729 L9.38724725,1.6040544 L10.9158948,2.17714641 L8.94445826,2.38225303 L8.50347903,3.44579116 Z M4.70538709,5.80572377 L9.97783366,4.99615589 L8.3852411,7.3319583 L4.70538709,5.80572377 Z"/>
        <ellipse cx="3.284" cy="3.862" rx="2.818" ry="1.092"/>
      </g>
      <polygon fill="#7A0C00" points="19.987 4.577 16.868 5.809 16.866 3.343"/>
      <polygon fill="#AD2115" points="16.869 5.809 16.531 5.941 13.415 4.71 16.867 3.344"/>
    </g>
  </g>
</svg>
