<svg xmlns="http://www.w3.org/2000/svg" xmlns:xlink="http://www.w3.org/1999/xlink" width="48" height="48" viewBox="0 0 48 48">
    <defs>
        <filter id="uu6lu311da">
            <feColorMatrix in="SourceGraphic" values="0 0 0 0 1.000000 0 0 0 0 1.000000 0 0 0 0 1.000000 0 0 0 1.000000 0"/>
        </filter>
        <path id="0g1zhwxulb" d="M0 0H48V48H0z"/>
    </defs>
    <g fill="none" fill-rule="evenodd">
        <g>
            <g>
                <g filter="url(#uu6lu311da)" transform="translate(-237 -439) translate(209 427) translate(28 12)">
                    <mask id="l3ns2tyrwc" fill="#fff">
                        <use xlink:href="#0g1zhwxulb"/>
                    </mask>
                    <path fill="#000" fill-rule="nonzero" d="M6.51 9.361l.071-.002L41.474 9c1.379-.014 2.252 1.458 1.603 2.654l-.036.065-17.815 29.997c-.508.855-1.612 1.136-2.467.629-.834-.496-1.122-1.56-.663-2.405l.035-.062 15.09-25.41c.339-.57.151-1.307-.419-1.645-.189-.112-.405-.17-.625-.168l-29.558.304c-.97.01-1.77-.75-1.817-1.711l-.002-.07c-.01-.971.75-1.77 1.71-1.817zm5.698 9.877l.07-.002 11.599-.167c1.38-.02 2.26 1.453 1.611 2.652l-.036.065-5.97 10.083c-.507.855-1.611 1.138-2.467.631-.835-.494-1.124-1.558-.666-2.404l.035-.062 3.788-6.398c.17-.285.075-.653-.21-.822-.095-.056-.204-.085-.314-.084l-7.318.106c-.97.013-1.772-.743-1.823-1.704l-.003-.07c-.014-.97.743-1.773 1.704-1.824z" mask="url(#l3ns2tyrwc)"/>
                </g>
            </g>
        </g>
    </g>
</svg>
