<svg xmlns="http://www.w3.org/2000/svg" xmlns:xlink="http://www.w3.org/1999/xlink" width="48" height="48" viewBox="0 0 48 48">
    <defs>
        <filter id="5viyazg9za">
            <feColorMatrix in="SourceGraphic" values="0 0 0 0 1.000000 0 0 0 0 1.000000 0 0 0 0 1.000000 0 0 0 1.000000 0"/>
        </filter>
        <path id="4qnhqjqh1b" d="M0 0H48V48H0z"/>
    </defs>
    <g fill="none" fill-rule="evenodd">
        <g>
            <g>
                <g filter="url(#5viyazg9za)" transform="translate(-237 -247) translate(209 235) translate(28 12)">
                    <mask id="m4407qpcrc" fill="#fff">
                        <use xlink:href="#4qnhqjqh1b"/>
                    </mask>
                    <path fill="#000" fill-rule="nonzero" d="M18.105 10.998l.062.034 5.35 3.015c.365.206.811.206 1.177 0l5.304-2.984c.866-.487 1.964-.18 2.452.686.475.846.194 1.912-.626 2.416l-.06.036-3.063 1.723c-.29.162-.392.528-.229.817.054.096.133.175.228.228l8.268 4.661c.366.206.813.206 1.179 0l5.112-2.881c.866-.488 1.964-.182 2.452.684.476.845.196 1.911-.623 2.416l-.061.036-2.877 1.621c-.288.163-.39.529-.228.817.054.096.133.175.228.228l2.893 1.631c.866.489 1.172 1.586.684 2.452-.476.846-1.534 1.158-2.39.718l-.062-.034-5.128-2.89c-.366-.207-.813-.207-1.179 0l-8.359 4.711c-.288.163-.39.529-.228.818.054.095.133.174.228.228l3.454 1.946c.866.489 1.172 1.586.684 2.452-.476.846-1.534 1.158-2.39.718l-.062-.034-5.689-3.207c-.366-.206-.813-.206-1.179 0l-5.737 3.235c-.866.488-1.964.182-2.452-.684-.477-.845-.196-1.912.623-2.416l.06-.036 3.503-1.974c.289-.163.39-.529.228-.818-.054-.095-.133-.174-.228-.228l-8.285-4.67c-.365-.206-.812-.206-1.178 0l-4.878 2.745c-.867.488-1.964.18-2.452-.686-.476-.846-.194-1.912.625-2.416l.061-.035 2.638-1.485c.289-.162.391-.528.228-.817-.053-.095-.132-.174-.228-.228l-2.633-1.485c-.866-.488-1.172-1.586-.684-2.452.476-.845 1.534-1.157 2.39-.717l.062.033 4.873 2.747c.366.206.813.207 1.178 0l8.367-4.707c.289-.162.391-.528.228-.817-.053-.096-.132-.175-.228-.229L16.4 14.168c-.866-.488-1.172-1.586-.684-2.452.477-.845 1.534-1.157 2.39-.718zm5.41 7.844l-8.367 4.708c-.289.163-.391.529-.229.817.054.096.133.175.228.229l8.28 4.667c.366.207.813.207 1.18 0l8.358-4.712c.288-.162.39-.528.228-.817-.054-.095-.133-.174-.228-.228l-8.273-4.663c-.365-.206-.812-.206-1.178 0z" mask="url(#m4407qpcrc)"/>
                </g>
            </g>
        </g>
    </g>
</svg>
