<svg xmlns="http://www.w3.org/2000/svg" xmlns:xlink="http://www.w3.org/1999/xlink" width="48" height="48" viewBox="0 0 48 48">
    <defs>
        <filter id="zls1yb0wka">
            <feColorMatrix in="SourceGraphic" values="0 0 0 0 1.000000 0 0 0 0 1.000000 0 0 0 0 1.000000 0 0 0 1.000000 0"/>
        </filter>
        <path id="sllx47ylzb" d="M0 0H48V48H0z"/>
    </defs>
    <g fill="none" fill-rule="evenodd">
        <g>
            <g>
                <g filter="url(#zls1yb0wka)" transform="translate(-237 -151) translate(209 139) translate(28 12)">
                    <mask id="v7h6lpax2c" fill="#fff">
                        <use xlink:href="#sllx47ylzb"/>
                    </mask>
                    <path fill="#000" fill-rule="nonzero" d="M24.188 5.25c1.887 0 3.565 1.333 3.565 2.974 0 1.641-1.597 2.974-3.565 2.974-.226 0-.52-.037-.882-.11-.282-.058-.575-.011-.825.13L9.697 18.497c-.285.162-.385.525-.223.81.053.095.131.173.226.226l13.859 7.786c.36.202.798.203 1.159.002l13.934-7.751c.287-.16.39-.522.23-.809-.053-.095-.13-.174-.226-.228l-4.347-2.47c-.36-.204-.801-.207-1.163-.006l-4.59 2.548c-.116.064-.192.18-.206.31l-.002.044c0 1.642-1.598 2.974-3.566 2.974-1.968 0-3.566-1.332-3.566-2.974 0-1.641 1.598-2.974 3.566-2.974.073 0 .157.004.252.012l.15.015.167.02c.254.035.512-.013.736-.138l6.787-3.767c.52-.288 1.148-.298 1.674-.03l.071.039 9.478 5.384c1.189.675 1.202 2.373.05 3.075l-.064.037-6.34 3.526c-.287.16-.39.522-.23.81.055.1.14.183.242.237l6.28 3.305c1.247.657 1.277 2.432.053 3.13L25.016 42.516c-.548.312-1.22.312-1.767 0L4.286 31.683c-1.225-.7-1.191-2.48.06-3.132l6.348-3.315c.29-.152.404-.51.252-.802-.053-.102-.135-.187-.236-.244l-6.425-3.609c-1.188-.667-1.214-2.359-.072-3.07l.064-.037 15.779-8.98c.25-.143.439-.37.533-.64l.02-.064c.555-1.65 1.815-2.541 3.579-2.541zm8.804 21.908L25.2 31.64l-.072.04c-.53.273-1.163.263-1.685-.032l-7.767-4.382c-.35-.198-.775-.204-1.13-.018l-4.477 2.343c-.29.152-.403.51-.252.802.053.101.133.185.232.242l13.68 7.833c.363.208.81.208 1.174 0l13.798-7.888c.284-.163.383-.526.221-.812-.056-.099-.139-.18-.24-.232l-4.548-2.4c-.36-.19-.79-.182-1.142.02z" mask="url(#v7h6lpax2c)"/>
                </g>
            </g>
        </g>
    </g>
</svg>
