<svg xmlns="http://www.w3.org/2000/svg" xmlns:xlink="http://www.w3.org/1999/xlink" width="48" height="48" viewBox="0 0 48 48">
    <defs>
        <filter id="b5x33i44ia">
            <feColorMatrix in="SourceGraphic" values="0 0 0 0 1.000000 0 0 0 0 1.000000 0 0 0 0 1.000000 0 0 0 1.000000 0"/>
        </filter>
        <path id="ydattuutsb" d="M0 0H48V48H0z"/>
    </defs>
    <g fill="none" fill-rule="evenodd">
        <g>
            <g>
                <g filter="url(#b5x33i44ia)" transform="translate(-237 -343) translate(209 331) translate(28 12)">
                    <mask id="k5cowqeb4c" fill="#fff">
                        <use xlink:href="#ydattuutsb"/>
                    </mask>
                    <path fill="#000" fill-rule="nonzero" d="M24.767 1.998l.07.038L44.09 13.008c1.214.692 1.206 2.433.012 3.121l-.065.036-4.551 2.394c-.293.154-.406.517-.252.81.053.102.135.186.235.242l4.685 2.66c1.2.68 1.214 2.394.051 3.101l-.065.038-4.743 2.636c-.29.16-.394.526-.233.816.056.102.142.185.245.24l4.628 2.433.065.036c1.173.676 1.201 2.368.052 3.083l-.064.038-19.255 10.972-.07.038c-.515.265-1.128.264-1.643 0l-.07-.038L3.908 34.737l-.064-.038c-1.15-.717-1.119-2.412.058-3.086l.066-.035 4.755-2.48c.294-.154.408-.516.254-.81-.054-.103-.136-.189-.238-.246l-4.777-2.681c-1.2-.674-1.226-2.38-.073-3.097l.064-.038 4.649-2.643c.288-.164.389-.53.225-.818-.057-.1-.142-.182-.244-.235l-4.615-2.407c-1.241-.647-1.296-2.391-.124-3.122l.064-.038L23.053 2.037c.53-.303 1.174-.315 1.714-.039zM34.1 30.99l-9.227 5.128c-.522.29-1.153.302-1.683.035l-.072-.039-9.098-5.107c-.353-.198-.783-.205-1.142-.017L9.53 32.737c-.293.153-.407.515-.254.809.053.102.135.187.235.244l13.84 7.899c.369.21.821.21 1.19 0l13.96-7.955c.288-.164.389-.53.225-.818-.057-.1-.14-.18-.242-.234l-3.242-1.705c-.358-.189-.787-.184-1.141.013zM23.408 15.307l-13.983 7.95c-.288.163-.389.53-.225.817.054.095.133.173.228.227l13.991 7.854c.364.204.807.205 1.17.002l14.069-7.818c.29-.161.394-.527.233-.816-.054-.097-.133-.176-.229-.23l-14.068-7.986c-.368-.21-.818-.209-1.186 0zm-.057-9.296l-13.84 7.9c-.288.164-.388.53-.224.818.057.1.141.182.244.235l3.173 1.655c.362.189.794.18 1.148-.02l9.258-5.264c.528-.3 1.169-.313 1.706-.04l.073.04 9.341 5.302c.356.202.79.21 1.153.018l3.102-1.636c.294-.155.406-.518.251-.81-.053-.102-.134-.186-.233-.242L24.54 6.01c-.368-.21-.82-.21-1.189 0z" mask="url(#k5cowqeb4c)"/>
                </g>
            </g>
        </g>
    </g>
</svg>
