<?xml version="1.0" encoding="UTF-8"?>
<svg width="344px" height="130px" viewBox="0 0 344 130" version="1.1" xmlns="http://www.w3.org/2000/svg" xmlns:xlink="http://www.w3.org/1999/xlink">
    <title>TraefikProxy-horizontal-logo-color</title>
    <g id="TraefikProxy-horizontal-logo-color" stroke="none" stroke-width="1" fill="none" fill-rule="evenodd">
        <g id="Group-2-Copy-4" fill-rule="nonzero">
            <g id="Group" transform="translate(0.000000, 14.000000)" fill="#24A1C1">
                <path d="M55.5000945,0 C60.534079,0 65.0088027,3.55350399 65.0088027,7.93060089 C65.0088027,12.3074995 60.7481956,15.8612018 55.5000945,15.8612018 C54.89964,15.8612018 54.1159101,15.7628142 53.148905,15.5660391 C52.3977705,15.4131854 51.6167386,15.5379356 50.9504502,15.9171815 L16.8582123,35.3222049 C16.0973861,35.755261 15.8313839,36.7236073 16.2640796,37.4850671 C16.406547,37.7357818 16.6146243,37.9428718 16.8659226,38.0840547 L53.8227471,58.8469001 C54.7822103,59.3859395 55.9523515,59.3884122 56.9140804,58.8534326 L94.0711837,38.1841033 C94.8362184,37.7585386 95.1117001,36.7928507 94.6864895,36.027179 C94.5451634,35.7726949 94.3365764,35.5620525 94.0835824,35.4183309 L82.4903355,28.8324068 C81.5296794,28.2866747 80.3544322,28.2808583 79.3884304,28.8170552 L67.1494337,35.6105348 C66.8407138,35.7819033 66.637467,36.0919943 66.5999049,36.4384868 L66.5936032,36.5551921 L66.5936032,36.5551921 C66.5936032,40.9320907 62.3329961,44.485793 57.084895,44.485793 C51.836794,44.485793 47.5759971,40.9320907 47.5759971,36.5551921 C47.5759971,32.1780952 51.836794,28.6245912 57.084895,28.6245912 C57.2798697,28.6245912 57.5037439,28.6351548 57.7565177,28.6562819 L58.157353,28.6958953 L58.157353,28.6958953 L58.6015377,28.751354 L58.6015377,28.751354 C59.2788818,28.8435112 59.9678439,28.7140366 60.5656502,28.3822469 L78.665229,18.3367643 C80.0512284,17.5674767 81.7243752,17.5420339 83.1283073,18.2576746 L83.3180316,18.3598552 L108.592559,32.7181165 C111.761471,34.518351 111.797873,39.0460224 108.725944,40.9160986 L108.555301,41.0154348 L91.6480182,50.4198278 C90.8829721,50.8453718 90.6074643,51.8110523 91.0326543,52.5767355 C91.1823772,52.8463568 91.4074044,53.0664336 91.6801841,53.2100205 L108.426705,62.0251157 C111.750811,63.7748336 111.830692,68.5097454 108.567503,70.3707814 L57.7091987,99.3758839 C56.2490925,100.2086 54.4582153,100.208001 52.9986651,99.3743094 L2.42973738,70.4894426 C-0.837328569,68.6233013 -0.747593685,63.8788594 2.5876977,62.1378011 L19.5168832,53.2997925 C20.2929133,52.8946601 20.5938586,51.9366148 20.1890633,51.1599384 C20.0467285,50.8868422 19.8280226,50.6611322 19.5596491,50.510367 L2.42714917,40.8857812 C-0.741377668,39.1056711 -0.810102063,34.5947474 2.23547386,32.7005335 L2.40468483,32.59984 L44.4818414,8.65127468 C45.1479754,8.27213759 45.6525238,7.66543065 45.905281,6.94557077 L45.9592147,6.77712054 L45.9592147,6.77712054 C47.436185,2.37559758 50.7972868,0 55.5000945,0 Z M78.9788362,58.4205329 L58.2000604,70.3768893 L58.0091964,70.4809843 C56.5965734,71.2099726 54.9076515,71.1826818 53.5146791,70.3966932 L32.8022037,58.7106783 C31.8705428,58.1850336 30.7372859,58.1671237 29.7895865,58.6630673 L17.8503116,64.9110462 C17.0760098,65.3162485 16.7757093,66.2745082 17.1795716,67.0513791 C17.3198139,67.3211495 17.5344156,67.544769 17.797796,67.6955815 L54.275398,88.5827903 C55.2462517,89.1387047 56.4374886,89.1390936 57.4087027,88.5838132 L94.2013623,67.5480355 C94.9601128,67.1142287 95.2246947,66.1454291 94.7923224,65.3841612 C94.6429145,65.121102 94.4216007,64.9064311 94.1545148,64.7654976 L82.0242344,58.3647018 C81.0664434,57.8593034 79.9175855,57.8803653 78.9788362,58.4205329 Z" id="Shape"></path>
            </g>
            <g id="Group" transform="translate(135.000000, 0.000000)" fill="#000000">
                <path d="M21.408,86.056 C24.1386667,86.056 26.5493333,86.728 28.64,88.072 C30.7306667,89.416 32.352,91.304 33.504,93.736 C34.656,96.168 35.232,99.0053333 35.232,102.248 C35.232,105.448 34.656,108.253333 33.504,110.664 C32.352,113.074667 30.7306667,114.941333 28.64,116.264 C26.5493333,117.586667 24.1386667,118.248 21.408,118.248 C18.8053333,118.248 16.576,117.672 14.72,116.52 C12.864,115.368 11.4666667,113.704 10.528,111.528 L10.528,111.528 L10.528,128.168 L10.5225,128.339 C10.4968333,128.726333 10.3813333,129.032 10.176,129.256 C9.94133333,129.512 9.61066667,129.64 9.184,129.64 C8.288,129.64 7.84,129.149333 7.84,128.168 L7.84,128.168 L7.84,87.592 L7.84718367,87.4143673 C7.87591837,87.069551 7.99085714,86.7874286 8.192,86.568 C8.42666667,86.312 8.75733333,86.184 9.184,86.184 C9.61066667,86.184 9.94133333,86.312 10.176,86.568 C10.4106667,86.824 10.528,87.1653333 10.528,87.592 L10.528,87.592 L10.528,92.648 L10.6984083,92.2767336 C11.6326459,90.3244014 12.9731765,88.8161569 14.72,87.752 C16.576,86.6213333 18.8053333,86.056 21.408,86.056 Z M128.864,86.12 C129.333333,86.12 129.696,86.376 129.952,86.888 L129.952,86.888 L142.304,114.728 L142.432,114.408 L154.592,87.08 L154.659111,86.9368889 C154.916593,86.434963 155.299556,86.184 155.808,86.184 C156.149333,86.184 156.448,86.3013333 156.704,86.536 C156.96,86.7706667 157.088,87.08 157.088,87.464 C157.088,87.592 157.045333,87.784 156.96,88.04 L156.96,88.04 L138.592,128.744 L138.51136,128.88992 C138.25792,129.30464 137.9008,129.512 137.44,129.512 C137.098667,129.512 136.810667,129.405333 136.576,129.192 C136.341333,128.978667 136.224,128.701333 136.224,128.36 L136.224,128.36 L136.352,127.848 L140.96,117.736 L127.52,88.04 L127.47392,87.89408 C127.419307,87.70976 127.392,87.5664 127.392,87.464 C127.392,87.08 127.541333,86.76 127.84,86.504 C128.138667,86.248 128.48,86.12 128.864,86.12 Z M76.576,86.056 C79.3066667,86.056 81.7173333,86.7173333 83.808,88.04 C85.8986667,89.3626667 87.52,91.24 88.672,93.672 C89.824,96.104 90.4,98.92 90.4,102.12 C90.4,105.362667 89.824,108.2 88.672,110.632 C87.52,113.064 85.8986667,114.941333 83.808,116.264 C81.7173333,117.586667 79.3066667,118.248 76.576,118.248 C73.8453333,118.248 71.4346667,117.586667 69.344,116.264 C67.2533333,114.941333 65.632,113.064 64.48,110.632 C63.328,108.2 62.752,105.362667 62.752,102.12 C62.752,98.92 63.328,96.104 64.48,93.672 C65.632,91.24 67.2533333,89.3626667 69.344,88.04 C71.4346667,86.7173333 73.8453333,86.056 76.576,86.056 Z M58.016,86.184 L58.2005,86.1885 C58.6135,86.2095 58.904,86.304 59.072,86.472 C59.264,86.664 59.36,86.952 59.36,87.336 C59.36,88.0613333 58.912,88.488 58.016,88.616 L58.016,88.616 L56.096,88.808 L55.7259264,88.847936 C52.7948288,89.200192 50.57152,90.33888 49.056,92.264 C47.4773333,94.2693333 46.688,96.5733333 46.688,99.176 L46.688,99.176 L46.688,116.648 L46.6825,116.819 C46.6568333,117.206333 46.5413333,117.512 46.336,117.736 C46.1013333,117.992 45.7706667,118.12 45.344,118.12 C44.9173333,118.12 44.5866667,117.992 44.352,117.736 C44.1173333,117.48 44,117.117333 44,116.648 L44,116.648 L44,87.656 L44.0046505,87.487917 C44.0542561,86.618639 44.5007059,86.184 45.344,86.184 C45.728,86.184 46.048,86.312 46.304,86.568 C46.56,86.824 46.688,87.1866667 46.688,87.656 L46.688,87.656 L46.688,92.264 L46.8443457,91.9620741 C48.7087078,88.4845432 51.9845926,86.5798519 56.672,86.248 L56.672,86.248 L57.568,86.184 L58.016,86.184 Z M122.144,86.184 C122.485333,86.184 122.794667,86.312 123.072,86.568 C123.349333,86.824 123.488,87.144 123.488,87.528 C123.488,87.912 123.338667,88.2746667 123.04,88.616 L123.04,88.616 L111.648,101.928 L123.36,115.56 L123.478857,115.707592 C123.698286,116.005388 123.808,116.318857 123.808,116.648 C123.808,117.032 123.68,117.352 123.424,117.608 C123.168,117.864 122.869333,117.992 122.528,117.992 C122.144,117.992 121.781333,117.8 121.44,117.416 L121.44,117.416 L109.92,103.912 L98.464,117.416 L98.32,117.551 C97.984,117.845 97.648,117.992 97.312,117.992 C96.9706667,117.992 96.672,117.864 96.416,117.608 C96.16,117.352 96.032,117.032 96.032,116.648 C96.032,116.264 96.1813333,115.901333 96.48,115.56 L96.48,115.56 L108.192,101.928 L96.864,88.616 L96.7451429,88.4684082 C96.5257143,88.1706122 96.416,87.8571429 96.416,87.528 C96.416,87.144 96.544,86.824 96.8,86.568 C97.056,86.312 97.3546667,86.184 97.696,86.184 C98.08,86.184 98.4426667,86.376 98.784,86.76 L98.784,86.76 L109.92,99.944 L121.056,86.76 L121.185,86.625 C121.488333,86.331 121.808,86.184 122.144,86.184 Z M76.576,88.68 C73.1626667,88.68 70.4853333,89.864 68.544,92.232 C66.6026667,94.6 65.632,97.896 65.632,102.12 C65.632,106.472 66.5813333,109.810667 68.48,112.136 C70.3786667,114.461333 73.056,115.624 76.512,115.624 C80.0533333,115.624 82.7733333,114.461333 84.672,112.136 C86.5706667,109.810667 87.52,106.472 87.52,102.12 C87.52,97.896 86.5493333,94.6 84.608,92.232 C82.6666667,89.864 79.9893333,88.68 76.576,88.68 Z M21.408,88.68 C17.9093333,88.68 15.2213333,89.8426667 13.344,92.168 C11.4666667,94.4933333 10.528,97.8106667 10.528,102.12 C10.528,106.429333 11.4666667,109.757333 13.344,112.104 C15.2213333,114.450667 17.888,115.624 21.344,115.624 C24.8,115.624 27.488,114.461333 29.408,112.136 C31.328,109.810667 32.288,106.514667 32.288,102.248 C32.288,97.9813333 31.328,94.6533333 29.408,92.264 C27.488,89.8746667 24.8213333,88.68 21.408,88.68 Z M177.666296,0 C178.727056,0 179.640503,0.354168833 180.406629,1.06237429 C181.149155,1.72344714 181.545191,2.61584311 181.594696,3.73956528 L181.6,3.98390359 L181.6,38.968 L201.712053,20.8285434 C202.29678,20.3314566 202.917414,20.0580059 203.57396,20.0082866 L203.794139,20 C204.739161,20 205.566088,20.3634398 206.27492,21.0901885 C207.013207,21.8170229 207.382373,22.6310295 207.382411,23.5322102 C207.382376,24.2784199 207.084581,24.9635247 206.489025,25.5875251 L206.319219,25.756192 L190.238443,39.9286437 L207.82541,58.156588 C208.475095,58.8252398 208.8,59.5811037 208.8,60.4241795 C208.8,61.3544796 208.416029,62.1830181 207.648212,62.9098071 C206.909843,63.6366024 206.053386,64 205.078828,64 C204.118969,64 203.286465,63.6490632 202.581314,62.9471896 L202.420848,62.7789892 L181.6,40.976 L181.6,59.9718355 C181.6,61.1286431 181.24063,62.0669412 180.521937,62.7867298 L180.362432,62.9376257 C179.566836,63.6458752 178.623927,64 177.533704,64 C176.443456,64 175.515275,63.660632 174.749174,62.981896 C174.034128,62.3208631 173.652776,61.4027619 173.605107,60.2275923 L173.6,59.9718355 L173.6,3.98390359 C173.6,2.74450847 173.997782,1.77066663 174.793371,1.06237429 C175.61841,0.354168833 176.576048,0 177.666296,0 Z M161.666296,19.2 C162.727056,19.2 163.640503,19.5672862 164.406629,20.3017215 C165.149155,20.9872785 165.545191,21.9127262 165.594696,23.0780677 L165.6,23.3314556 L165.6,59.8226443 C165.6,61.107986 165.187458,62.1331974 164.362432,62.8982785 C163.566836,63.6327595 162.623927,64 161.533704,64 C160.443456,64 159.515275,63.6480628 158.749174,62.9441885 C158.034128,62.2586729 157.652776,61.3065679 157.605107,60.0878735 L157.6,59.8226443 L157.6,23.3314556 C157.6,22.0461569 157.997782,21.0362469 158.793371,20.3017215 C159.61841,19.5672862 160.576048,19.2 161.666296,19.2 Z M150.918922,0 L150.918,0.003 L150.970568,0.00511004474 C152.437537,0.093261098 153.6,1.31087667 153.6,2.8 C153.6,4.26262439 152.478541,5.46331802 151.048588,5.58911587 L150.875674,5.6 L146.724323,5.6 C145.484661,5.60005726 144.518897,5.7167604 143.827024,5.95010941 C143.135113,6.15439655 142.515295,6.71107022 141.967569,7.4695846 C141.448631,8.19903398 141.261243,9.58429844 141.059456,10.9846826 C140.897998,12.2645746 140.811897,13.9764815 140.80115,16.1204079 L140.8,16.5864332 L140.799,19.199 L148,19.2 C149.325483,19.2 150.4,20.2745166 150.4,21.6 C150.4,22.9254834 149.325483,24 148,24 L140.8,23.999 L140.8,59.9718355 C140.8,61.1286431 140.44063,62.0669412 139.721937,62.7867298 L139.562432,62.9376257 C138.766836,63.6458752 137.823927,64 136.733704,64 C135.643456,64 134.715275,63.660632 133.949174,62.981896 C133.234128,62.3208631 132.852776,61.4027619 132.805107,60.2275923 L132.8,59.9718355 L132.8,23.999 L126.4,24 C125.074517,24 124,22.9254834 124,21.6 C124,20.2745166 125.074517,19.2 126.4,19.2 L132.799,19.199 L132.8,14.4420134 C132.8,9.21960145 133.895483,5.51428054 136.086487,3.32603944 C138.199211,1.18793065 141.089334,0.0806097918 144.756863,0.00424262461 L145.167566,0 L150.918922,0 Z M103.665256,19.2000032 C107.833269,19.2000032 111.707471,20.2740664 114.595398,22.2242192 C116.886004,23.7710368 118.746837,26.15388 119.498561,28.5028656 C119.930187,29.851569 119.995802,30.3499443 119.999897,32.3088963 C120.002098,33.5278044 119.969154,34.3499692 119.90228,34.7309092 C119.226418,38.5810831 117.616566,41.248399 114.822306,43.1476991 C112.574357,44.6756381 109.751133,45.5696972 106.058707,45.9228419 C104.199973,46.100606 100.800337,46.0838169 98.5979902,45.8859235 C96.7288779,45.718018 94.4337279,45.4225684 93.454618,45.2238951 C92.6350648,45.057564 89.8285737,44.581216 89.805466,44.6045383 C89.7952902,44.6149855 89.6617522,45.4681535 89.5087527,46.5009249 C89.2644659,48.1499189 89.2298608,48.5613765 89.2247353,49.8780321 L89.2249838,50.5244157 C89.2312291,51.3182346 89.2677704,51.5673959 89.3968633,52.069368 C89.9077817,54.0559977 91.0337088,55.3848956 93.0764271,56.4122521 C95.0859081,57.4228932 97.1924837,57.8602333 100.375485,57.9276545 C101.78468,57.9577895 102.506354,57.9367774 103.387976,57.841914 C105.525206,57.611546 106.499105,57.3587974 109.33857,56.2976714 C110.045784,56.0333427 110.76753,55.7928365 110.942459,55.763187 C111.317329,55.6996504 112.016466,55.8308584 112.423934,56.0412884 C113.159403,56.4209925 113.777321,57.4336641 113.773471,58.2528713 C113.769273,59.2099226 113.451665,59.7896095 112.51957,60.543485 C110.290901,62.3460233 107.445313,63.4514395 104.048464,63.8342925 C102.837192,63.9708417 100.071665,63.9909562 98.7358476,63.8730354 C94.9739637,63.5408881 92.3621641,62.8868202 89.9752752,61.6792863 C88.1128473,60.7370671 86.6918715,59.5681584 85.6305747,58.1052421 C85.4219547,57.8176647 85.2384648,57.5661833 85.1683134,57.471421 L85.1383289,57.4316188 C85.1283413,57.420583 84.9550263,57.6282173 84.7531147,57.8929581 C83.8606182,59.0632793 82.4958035,60.3211951 81.1620461,61.2027618 C79.2365671,62.4754361 76.4723412,63.4463337 73.6753138,63.8324384 C72.8411728,63.9475342 70.0736249,64.0425006 69.3639534,63.9803177 C64.4619671,63.5507173 60.7161852,62.0476161 57.9917333,59.4168506 C55.21983,56.7401763 54.030445,53.250519 54.4998364,49.1714486 C55.0399868,44.4773768 57.2343381,41.1625261 61.0816064,39.2286767 C64.0467813,37.7382005 67.0048519,37.1712415 71.8221846,37.1700791 C75.2448714,37.1686076 78.1128793,37.4535218 82.4871258,38.2271439 C83.5687468,38.4184453 84.5051861,38.5750502 84.5681055,38.5751826 C84.6596027,38.5751826 84.7321667,38.2252457 84.9306289,36.8261604 C85.2897087,34.2947903 85.3540669,33.4213166 85.2562399,32.407306 C85.1423718,31.2269642 84.993764,30.664758 84.5538724,29.7500105 C83.4189115,27.389945 80.724702,25.9459661 76.3982761,25.3790072 C75.1609561,25.2168697 72.3052982,25.1941801 71.0658055,25.336571 C68.9891654,25.5752379 67.8303268,25.8793395 65.2458963,26.8637154 C63.7338705,27.4396501 63.7269602,27.4414306 63.1238296,27.4054392 C62.0869853,27.3436831 61.3791665,26.8664817 60.9251749,25.923203 C60.7382058,25.5347587 60.7053304,25.3744016 60.7053232,24.8509971 C60.7053232,24.0652651 60.9066239,23.6481424 61.6075628,22.9816114 C63.179403,21.4868827 65.8244645,20.2139729 68.4941187,19.6674375 C70.2035225,19.3175006 71.0449849,19.2439288 73.2971228,19.2474456 C75.627509,19.2536256 77.1176169,19.3848482 79.1885583,19.776309 C82.6331542,20.4273458 85.2486825,21.574904 87.2209429,23.3004127 C87.8061449,23.8123841 88.6885727,24.8200528 89.0666884,25.4080533 C89.1822573,25.5877892 89.3013117,25.7348592 89.3312458,25.7348592 C89.3611986,25.7348592 89.5523742,25.5188966 89.7561125,25.2550093 C92.7425437,21.3865602 97.7723908,19.1969312 103.665256,19.2000032 Z M53.5760704,19.2 C54.5728082,19.2 55.3515389,19.5584192 55.9122491,20.2751239 C56.504052,20.9919166 56.8,21.8281234 56.8,22.7837465 C56.8,23.6797239 56.5351978,24.4562016 56.0056997,25.1131817 C55.4761352,25.7403781 54.7129808,26.0539511 53.7162363,26.0539129 C49.5110853,26.0539511 46.6404337,27.0992137 44.3042748,29.1896942 C42.0545373,31.2300769 40.8548783,33.9389652 40.8005529,37.3163651 L40.8,59.8226443 C40.8,61.107986 40.3874584,62.1331974 39.5624317,62.8982785 C38.7668363,63.6327595 37.8239271,64 36.7337041,64 C35.6434559,64 34.7152749,63.6480628 33.9491737,62.9441885 C33.2125199,62.2379567 32.8300323,61.2487796 32.8016999,59.9766571 L32.8,59.8226443 L32.8,23.3314556 C32.8,22.0461569 33.197782,21.0362469 33.993371,20.3017215 C34.8184103,19.5672862 35.7760477,19.2 36.8662959,19.2 C37.9270562,19.2 38.8405027,19.5672862 39.606629,20.3017215 C40.3703703,21.0068659 40.767539,21.9658047 40.7980905,23.1785416 L40.8,23.3314556 L40.8,28.962 L40.916542,28.5720935 C41.7288056,25.9689642 43.247413,23.7856697 45.4723642,22.0222 C47.8396755,20.1407777 50.2742397,19.2 53.5760704,19.2 Z M12.3403336,6.4 C13.3215344,6.4 14.1701527,6.71780428 14.8861885,7.35341283 C15.6287125,8.01550224 16,8.90270443 16,10.0150194 L15.999,19.199 L24.8,19.2 C26.0702549,19.2 27.1100212,20.186839 27.1944631,21.4356813 L27.2,21.6 C27.2,22.8702549 26.213161,23.9100212 24.9643187,23.9944631 L24.8,24 L15.999,23.999 L16,47.4135668 L16.0011497,47.8795921 C16.0118972,50.0235185 16.0979977,51.7354254 16.2594564,53.0153174 C16.4612429,54.4157016 16.6486311,55.800966 17.1675685,56.5304154 C17.7152948,57.2889298 18.3351132,57.8456035 19.0270236,58.0498906 C19.6559995,58.2620261 20.5113315,58.37776 21.5930241,58.3970923 L21.9243227,58.4 L26.0756738,58.4 C27.5873285,58.4413502 28.8,59.6790578 28.8,61.2 C28.8,62.6318494 27.7252377,63.8126745 26.3384337,63.9797551 L26.1705682,63.99489 L26.118,63.997 L26.1189217,64 L20.3675658,64 L19.9568634,63.9957574 C16.2893343,63.9193902 13.3992106,62.8120694 11.2864868,60.6739606 C9.16187736,58.5520298 8.06739892,55.0035704 8.00301786,50.0285721 L8,49.5579866 L7.999,23.999 L2.4,24 C1.12974508,24 0.0899787563,23.013161 0.00553686671,21.7643187 L-5.32907052e-13,21.6 C-5.3275149e-13,20.3297451 0.986839031,19.2899788 2.23568127,19.2055369 L2.4,19.2 L8.165,19.199 L8.8,10.0150194 C8.79999434,8.84973705 9.14474835,7.9492916 9.83425636,7.31368305 C10.5237474,6.70456102 11.3591103,6.4 12.3403336,6.4 Z M72.4613086,43.031205 C69.4828963,43.2020766 68.2687011,43.4683803 66.4804749,44.3430475 C65.5643659,44.7911108 64.9320677,45.2773614 64.4317741,45.9184321 C63.7140148,46.8382479 63.2807824,47.752296 62.9788019,48.9839382 C62.759047,49.88018 62.7366221,52.2269177 62.9405836,52.9830247 C63.2841641,54.2566799 63.692028,54.9775482 64.6091692,55.9320561 C65.8650248,57.2390371 67.5205611,58.1109283 69.5740929,58.5469098 C70.6241431,58.7698628 70.5930673,58.7676909 72.3512304,58.7405787 C73.6269577,58.7207444 74.1042632,58.684053 74.6261489,58.565723 C76.8417204,58.0628311 78.8161204,56.9293251 80.2494428,55.3374718 C81.5568891,53.8854656 82.6292659,51.7102036 83.2194458,49.3130674 C83.5521243,47.961772 84.1051152,44.2008989 83.9825339,44.1233451 C83.9341577,44.0926802 83.6419109,44.044281 83.3331755,44.0156586 C83.1016175,43.9940083 82.5487036,43.9288716 81.9631969,43.8548111 L81.5711994,43.8044946 C81.506118,43.7960146 81.4414265,43.7875193 81.3775209,43.779056 C76.8224287,43.1756835 74.027936,42.9412529 72.4613086,43.031205 Z M100.242709,24.9852722 C98.6205706,25.2899412 97.2493869,25.845271 96.040059,26.6872575 C93.8057935,28.2428835 92.2638443,30.5878412 91.4051993,33.7357947 C91.0679301,34.9722814 90.9780231,35.4468941 90.677322,37.5782811 L90.3999432,39.544404 L90.7715021,39.5865336 C91.8937065,39.7146213 94.4242475,40.0300314 95.8938801,40.2250426 C96.8184622,40.3477165 97.953181,40.4786263 98.4154735,40.5160044 C99.6491138,40.6156852 101.78566,40.6147896 103.137894,40.5204635 L103.458636,40.4949396 L103.458636,40.4953571 C105.30415,40.3277316 106.438918,40.0327959 107.833162,39.3585358 C108.992743,38.7976914 109.666717,38.2244933 110.304505,37.2566941 C111.24348,35.831805 111.609119,34.4833712 111.59991,32.4799278 C111.59302,31.0519719 111.475458,30.4579538 110.996578,29.4327916 C109.926599,27.1423028 107.41307,25.5016401 104.116455,24.9419188 C103.293839,24.8022837 101.085906,24.8270776 100.242709,24.9852722 Z M161.641024,0 C163.063235,0 164.211953,0.392815037 165.087179,1.17828078 C165.962381,1.93851472 166.4,2.95208827 166.4,4.21900466 C166.4,5.46068331 165.962381,6.47425686 165.087179,7.25972854 C164.211953,8.01995654 163.049559,8.4 161.6,8.4 C160.150418,8.4 158.988023,8.01995654 158.112821,7.25972854 C157.237601,6.47425686 156.8,5.46068331 156.8,4.21900466 C156.8,2.97742764 157.237601,1.96385409 158.112821,1.17828078 C159.015377,0.392815037 160.191442,0 161.641024,0 Z" id="Combined-Shape"></path>
            </g>
        </g>
    </g>
</svg>