<svg xmlns="http://www.w3.org/2000/svg" width="160" height="32" viewBox="0 0 160 32">
    <defs>
        <filter id="udfy5naj7a">
            <feColorMatrix in="SourceGraphic" values="0 0 0 0 0.000000 0 0 0 0 0.000000 0 0 0 0 0.000000 0 0 0 1.000000 0"/>
        </filter>
    </defs>
    <g fill="none" fill-rule="evenodd">
        <g filter="url(#udfy5naj7a)" transform="translate(-109 -16) translate(1) translate(108 16)">
            <path fill="#000" fill-rule="nonzero" d="M9.445.198c.474-.264 1.054-.264 1.528 0l13.254 7.395c.184.103.4.134.607.086.29-.066.528-.1.718-.1 1.386 0 2.52.896 2.52 2.015 0 1.118-1.134 2.015-2.52 2.015-.202 0-.457-.039-.765-.114-.21-.052-.43-.022-.618.083l-18.96 10.56c-.09.049-.15.137-.163.23l-.004.05c0 .132.072.253.187.317l12.22 6.818c.257.144.572.144.83 0l4.528-2.526c.176-.098.238-.32.139-.493-.033-.058-.081-.105-.14-.138l-5.488-3.063c-.518-.288-.7-.937-.409-1.45.096-.168.238-.308.409-.404l5.583-3.114c.07-.04.117-.108.126-.18l.003-.04c0-1.119 1.135-2.015 2.522-2.015 1.386 0 2.52.896 2.52 2.015 0 .687-.428 1.29-1.08 1.653l-.067.037c-.396.205-.868.324-1.373.324-.21 0-.473-.04-.792-.121-.211-.054-.435-.025-.625.081L20.6 22.091c-.176.098-.238.319-.14.493.034.057.082.105.14.137l5.49 3.063c.517.289.7.938.408 1.45-.096.169-.238.309-.409.404l-7.461 4.164c-.474.264-1.054.264-1.528 0L3.862 24.415c-.186-.103-.404-.134-.61-.085-.295.069-.538.103-.73.103C1.134 24.433 0 23.537 0 22.42c0-1.119 1.135-2.015 2.521-2.015.199 0 .45.037.752.11.209.05.429.02.616-.084L22.877 9.854c.082-.046.138-.128.15-.213l.003-.047c0-.139-.075-.267-.197-.335L10.624 2.447c-.258-.144-.573-.144-.83 0L5.267 4.972c-.176.098-.238.32-.14.493.034.058.082.105.14.138l5.49 3.063c.517.289.7.938.409 1.45-.097.169-.238.309-.409.404l-5.581 3.114c-.072.04-.121.112-.132.186l-.003.043c0 1.118-1.134 2.014-2.52 2.014-.65 0-1.245-.196-1.694-.521l-.059-.044C.296 14.947 0 14.434 0 13.862c0-1.118 1.135-2.014 2.521-2.014.208 0 .469.04.785.12.211.053.435.024.625-.082l3.544-1.978c.176-.098.238-.318.139-.493-.033-.057-.08-.105-.139-.137l-5.49-3.063c-.517-.289-.7-.938-.408-1.45.096-.169.237-.309.408-.404zm28.497 5.038c.357 0 .665.116.926.347.27.24.405.563.405.968v3.34h3.2c.445 0 .812.333.866.763l.006.11c0 .445-.332.812-.763.866l-.11.006h-3.2v8.514l.002.314c.007.713.038 1.287.093 1.723.073.51.142 1.013.33 1.279.2.275.425.478.676.552.21.07.489.112.837.124l.217.003h1.51c.55.015.99.465.99 1.019 0 .484-.338.89-.791.993l-.116.019-.068.004v.002h-2.091l-.277-.006c-1.273-.05-2.282-.451-3.025-1.204-.75-.749-1.147-1.986-1.191-3.712l-.004-.33v-9.294h-2.037c-.445 0-.812-.333-.866-.763l-.006-.11c0-.444.332-.811.763-.865l.11-.007h2.096l.23-3.34c0-.424.126-.751.377-.982.25-.222.554-.333.91-.333zM98.06 2.91c.386 0 .718.129.997.386.253.226.395.525.427.898l.007.165V17.08l7.313-6.597c.237-.2.489-.301.758-.301.343 0 .644.132.902.396.268.265.402.56.402.888 0 .254-.094.488-.284.703l-.102.106-5.848 5.154 6.395 6.628c.237.243.355.518.355.825 0 .338-.14.64-.419.903-.269.265-.58.397-.934.397-.33 0-.617-.113-.864-.34l-.103-.104-7.571-7.929v6.908c0 .45-.15.81-.45 1.079-.29.257-.632.386-1.029.386-.396 0-.734-.124-1.012-.37-.244-.226-.381-.533-.412-.923l-.006-.172V4.357c0-.45.144-.804.434-1.062.3-.257.648-.386 1.044-.386zm-5.818 6.982c.386 0 .718.133.997.4.253.234.395.545.427.932l.007.17v13.27c0 .467-.15.84-.45 1.118-.29.267-.632.4-1.029.4-.396 0-.734-.127-1.012-.383-.244-.234-.381-.553-.412-.957l-.006-.178v-13.27c0-.467.144-.834.434-1.101.3-.268.648-.401 1.044-.401zm20.703-6.982c.187 0 .343.07.468.212.1.112.16.25.18.411l.007.126v21.775l-.007.126c-.02.161-.08.298-.18.411-.125.141-.28.212-.468.212-.207 0-.368-.065-.483-.195-.091-.105-.146-.244-.164-.417l-.007-.137V3.658l.007-.137c.018-.174.073-.312.164-.417.115-.13.276-.195.483-.195zm-24.61 0l-.002.002.069.004c.51.055.907.487.907 1.012 0 .514-.38.939-.875 1.008l-.116.01h-1.51c-.45 0-.801.043-1.053.128-.251.074-.477.276-.676.552-.189.266-.257.77-.33 1.279-.055.436-.086 1.01-.093 1.723l-.001.314v.95h2.618c.482 0 .872.39.872.873 0 .482-.39.872-.872.872h-2.619v13.081c0 .394-.114.719-.344.974l-.105.105c-.29.257-.633.386-1.03.386-.396 0-.733-.124-1.012-.37-.243-.226-.38-.533-.411-.923l-.007-.172v-13.08h-2.327c-.482 0-.873-.391-.873-.873s.391-.873.873-.873h2.326l.001-1.73c0-1.9.399-3.247 1.196-4.042.743-.753 1.752-1.154 3.025-1.205l.277-.005h2.091zm34.704 6.982c3.513 0 5.31 1.841 5.394 5.524l.003.273v9.652l-.007.136c-.019.173-.076.31-.17.414-.119.13-.286.195-.501.195-.216 0-.388-.07-.517-.21-.104-.113-.166-.25-.187-.41l-.007-.125v-2.267l-.135.265c-.466.865-1.105 1.543-1.918 2.034-.894.54-1.912.81-3.054.81-.991 0-1.896-.205-2.715-.616-.819-.41-1.47-.966-1.955-1.668-.485-.701-.738-1.484-.76-2.348-.021-1.187.27-2.105.873-2.753.603-.647 1.616-1.112 3.038-1.392 1.333-.263 3.168-.403 5.505-.42l.474-.001h.647v-1.36l-.004-.302c-.039-1.379-.344-2.396-.918-3.05-.614-.702-1.578-1.053-2.892-1.053-1.034 0-1.956.135-2.764.405-.808.27-1.449.577-1.923.923-.086.064-.264.189-.533.372-.27.184-.49.275-.662.275-.151 0-.286-.059-.404-.178-.119-.118-.178-.264-.178-.437 0-.41.377-.842 1.131-1.295.754-.454 1.578-.8 2.472-1.037.895-.237 1.783-.356 2.667-.356zm-70.102 0c.362 0 .645.13.85.39.214.262.322.566.322.913 0 .326-.096.608-.289.847-.192.228-.47.342-.832.342-1.53 0-2.573.38-3.423 1.14-.82.745-1.257 1.735-1.274 2.97v8.17c0 .467-.15.84-.45 1.118-.29.267-.632.4-1.029.4-.396 0-.734-.127-1.012-.383-.268-.257-.407-.617-.418-1.08V11.394c0-.467.144-.834.434-1.101.3-.268.648-.401 1.044-.401.386 0 .718.133.997.4.278.257.422.606.433 1.047v2.104c.284-1.01.85-1.852 1.7-2.525.86-.684 1.746-1.026 2.947-1.026zm101.513 0c.8 0 1.569.108 2.304.324.736.216 1.385.518 1.948.907.41.302.708.566.892.793.184.227.276.459.276.696 0 .152-.054.287-.162.405-.108.12-.238.178-.39.178-.173 0-.454-.162-.843-.485-.563-.432-1.153-.788-1.77-1.07-.616-.28-1.39-.42-2.32-.42-1.212 0-2.19.286-2.937.858-.747.572-1.12 1.323-1.12 2.251 0 .561.119 1.02.357 1.376.238.357.644.664 1.217.924.573.259 1.39.507 2.45.744 1.494.367 2.64.74 3.44 1.118.802.378 1.37.831 1.705 1.36.335.53.503 1.204.503 2.024 0 1.296-.536 2.338-1.607 3.126-1.07.788-2.493 1.182-4.268 1.182-.844 0-1.687-.124-2.531-.373-.844-.248-1.602-.588-2.272-1.02-.433-.28-.725-.513-.877-.696-.151-.184-.227-.394-.227-.632 0-.15.054-.286.162-.405.109-.118.238-.178.39-.178.108 0 .254.06.438.178l.373.243c.628.454 1.282.826 1.964 1.118.682.291 1.542.437 2.58.437 1.407 0 2.489-.26 3.246-.777.757-.519 1.136-1.253 1.136-2.203 0-.561-.135-1.025-.406-1.392-.27-.367-.714-.686-1.33-.956-.617-.27-1.499-.534-2.646-.793-1.904-.432-3.267-.983-4.09-1.652-.821-.67-1.233-1.555-1.233-2.656 0-1.339.525-2.429 1.575-3.271 1.049-.842 2.407-1.263 4.073-1.263zm-22.42-6.982c.218 0 .387.065.506.195.096.104.153.242.173.415l.007.137v9.575l.124-.265c.475-.954 1.145-1.699 2.013-2.234.946-.585 2.082-.877 3.409-.877 1.392 0 2.62.336 3.687 1.006 1.065.671 1.892 1.613 2.48 2.824.586 1.212.88 2.63.88 4.252 0 1.645-.294 3.09-.88 4.334-.588 1.244-1.415 2.207-2.48 2.888-1.066.682-2.295 1.023-3.687 1.023-1.327 0-2.463-.292-3.41-.877-.867-.535-1.537-1.289-2.012-2.26l-.124-.271v2.564l-.005.12c-.035.417-.262.626-.68.626-.218 0-.386-.064-.506-.194-.096-.104-.153-.243-.172-.416l-.008-.136V3.656l.005-.12c.035-.418.262-.627.68-.627zM71.152 9.891c1.516 0 2.924.39 3.975 1.1.833.562 1.51 1.429 1.783 2.283.157.49.18.671.182 1.384 0 .443-.011.742-.036.88-.245 1.4-.83 2.37-1.847 3.061-.817.556-1.844.88-3.187 1.01-.676.064-1.912.058-2.713-.014-.68-.061-1.514-.169-1.87-.24-.106-.022-.305-.058-.517-.095l-.255-.044c-.293-.05-.55-.091-.555-.087-.004.004-.052.314-.108.69-.089.6-.101.749-.103 1.228v.27c.003.261.018.352.062.526.186.723.596 1.206 1.339 1.58.73.367 1.496.526 2.654.55.512.012.775.004 1.095-.03.777-.084 1.131-.176 2.164-.562.257-.096.52-.184.583-.194.137-.023.39.024.539.1.267.139.492.507.49.805 0 .348-.116.559-.455.833-.81.655-1.845 1.057-3.08 1.197-.441.05-1.447.057-1.933.014-1.367-.121-2.317-.359-3.185-.798-.677-.343-1.194-.768-1.58-1.3-.095-.13-.175-.24-.18-.245-.003-.004-.066.072-.14.168-.324.426-.82.883-1.305 1.204-.7.462-1.705.815-2.722.956-.304.042-1.31.076-1.568.054-1.783-.157-3.145-.703-4.136-1.66-1.008-.973-1.44-2.242-1.27-3.725.197-1.707.995-2.913 2.394-3.616 1.078-.542 2.154-.748 3.906-.749 1.244 0 2.287.104 3.878.385l.638.11.1.014.019.002c.033 0 .06-.127.131-.636.131-.92.154-1.238.119-1.606-.042-.43-.096-.634-.256-.967-.412-.858-1.392-1.383-2.965-1.59-.45-.058-1.489-.066-1.94-.015-.754.087-1.176.198-2.116.556-.55.21-.552.21-.771.197-.377-.023-.635-.196-.8-.54-.068-.14-.08-.199-.08-.39 0-.285.073-.437.328-.679.572-.543 1.534-1.006 2.504-1.205.622-.127.928-.154 1.747-.153.847.002 1.39.05 2.142.192 1.253.237 2.204.655 2.921 1.282.213.186.534.553.671.766.042.066.086.12.097.12.01 0 .08-.08.154-.175 1.086-1.407 2.915-2.203 5.058-2.202zm55.976 8.29h-.616l-.447.002c-2.052.011-3.633.102-4.743.273-1.19.183-2.022.494-2.498.935-.476.44-.714 1.09-.714 1.95 0 .99.368 1.801 1.103 2.435.735.634 1.665.951 2.79.951.973 0 1.849-.23 2.627-.693.779-.462 1.39-1.102 1.833-1.918.394-.727.613-1.538.657-2.433l.008-.34v-1.161zm11.022-7.126c-1.755 0-3.11.595-4.064 1.786-.954 1.19-1.43 2.869-1.43 5.034 0 2.186.476 3.875 1.43 5.066.954 1.19 2.32 1.786 4.097 1.786 1.734 0 3.089-.606 4.064-1.818.975-1.213 1.463-2.913 1.463-5.1 0-2.143-.488-3.804-1.463-4.984-.975-1.18-2.341-1.77-4.097-1.77zm-78.345 7.502c-1.083.062-1.524.159-2.175.477-.333.163-.563.34-.745.573-.26.334-.418.667-.528 1.114-.08.326-.088 1.18-.014 1.455.125.463.273.725.607 1.072.456.475 1.058.792 1.805.95.382.082.37.081 1.01.071.464-.007.638-.02.827-.063.806-.183 1.524-.595 2.045-1.174.476-.528.866-1.32 1.08-2.19.121-.492.322-1.86.278-1.888-.018-.011-.124-.029-.236-.04-.08-.007-.267-.029-.468-.054l-.244-.031c-1.656-.22-2.672-.305-3.242-.272zm10.102-6.562c-.59.11-1.088.312-1.528.619-.812.565-1.373 1.418-1.685 2.563-.123.45-.156.622-.265 1.397l-.1.715.134.015c.182.02.464.055.77.093l.463.058.63.081c.336.045.749.093.917.106.486.04 1.357.036 1.834-.007.671-.061 1.084-.169 1.59-.414.422-.204.667-.412.9-.764.34-.518.474-1.009.47-1.737-.002-.52-.045-.735-.22-1.108-.388-.833-1.302-1.43-2.5-1.633-.3-.05-1.103-.042-1.41.016zm22.327-9.086c.517 0 .935.143 1.253.429.319.276.478.645.478 1.105 0 .452-.16.82-.478 1.106-.318.276-.74.415-1.268.415-.527 0-.95-.139-1.268-.415-.318-.286-.477-.654-.477-1.106 0-.451.159-.82.477-1.105.328-.286.756-.429 1.283-.429z"/>
        </g>
    </g>
</svg>
