<svg width="60px" height="60px" viewBox="0 0 60 60" version="1.1" xmlns="http://www.w3.org/2000/svg" xmlns:xlink="http://www.w3.org/1999/xlink">
    <defs>
        <linearGradient x1="50%" y1="97.783801%" x2="50%" y2="2.08133569%" id="linearGradient-1">
            <stop stop-color="#2BB415" offset="0%"></stop>
            <stop stop-color="#5AD946" offset="100%"></stop>
        </linearGradient>
    </defs>
    <g id="Page-1" stroke="none" stroke-width="1" fill="none" fill-rule="evenodd">
        <g id="Group">
            <g id="Icon">
                <rect id="Base" fill="url(#linearGradient-1)" x="0" y="0" width="60" height="60" rx="30"></rect>
                <rect id="Base" stroke="#FFFFFF" stroke-width="2" opacity="0.202955163" x="5" y="5" width="50" height="50" rx="25"></rect>
            </g>
            <path d="M30,15 C21.72165,15 15,21.7216916 15,30.0000075 C15,38.2782534 21.72165,45 30,45 C38.27835,45 45,38.2782534 45,30.0000075 C45,21.7216916 38.27835,15 30,15 Z M30,15.9999995 C37.7379,15.9999995 44,22.2621314 44,30.0000075 C44,37.7378036 37.7379,44.0000005 30,44.0000005 C22.2621,44.0000005 16,37.7378036 16,30.0000075 C16,22.2621314 22.2621,15.9999995 30,15.9999995 Z M30,19.9999975 C29.72385,19.9999975 29.5,20.2238474 29.5,20.4999973 L29.5,30.0000075 C29.5,30.1380574 29.5502,30.2689074 29.64065,30.3593573 L35.65625,36.3593543 C35.8515,36.5546542 36.16405,36.5546042 36.35935,36.3593543 C36.5546,36.1641044 36.5546,35.8515046 36.35935,35.6562547 L30.5,29.7812576 L30.5,20.4999973 C30.5,20.2238474 30.27615,19.9999975 30,19.9999975 Z" id="Shape" fill="#FFFFFF" fill-rule="nonzero"></path>
        </g>
    </g>
</svg>