<svg width="60px" height="60px" viewBox="0 0 60 60" version="1.1" xmlns="http://www.w3.org/2000/svg" xmlns:xlink="http://www.w3.org/1999/xlink">
    <defs>
        <linearGradient x1="50%" y1="-2.22044605e-14%" x2="50%" y2="98.4853316%" id="linearGradient-1">
            <stop stop-color="#2EA1F8" offset="0%"></stop>
            <stop stop-color="#1990EA" offset="100%"></stop>
        </linearGradient>
    </defs>
    <g id="Page-1" stroke="none" stroke-width="1" fill="none" fill-rule="evenodd">
        <g id="Group">
            <g id="Icon">
                <rect id="Base" fill="url(#linearGradient-1)" x="0" y="0" width="60" height="60" rx="30"></rect>
                <rect id="Base" stroke="#FFFFFF" stroke-width="2" opacity="0.202955163" x="5" y="5" width="50" height="50" rx="25"></rect>
            </g>
            <path d="M21.2082445,22.6366666 L25.9099998,22.6366666 C26.9128107,22.6366666 27.7283332,21.8211441 27.7283332,20.8183333 C27.7283332,19.8155225 26.9128107,19 25.9099998,19 L16.8183333,19 C15.8155225,19 15,19.8155225 15,20.8183333 L15,29.9099998 C15,30.9128107 15.8155225,31.7283332 16.8183333,31.7283332 C17.8211441,31.7283332 18.6366666,30.9128107 18.6366666,29.9099998 L18.6366666,25.2082445 L28.3256556,34.8967789 C29.0338965,35.6059289 30.1844469,35.609111 30.8972335,34.8967789 C31.609111,34.1839923 31.6068381,33.0348056 30.8972335,32.3256556 L21.2082445,22.6366666 Z M17.2729166,23.0135162 L17.2729166,29.9099998 C17.2729166,30.1604753 17.0688087,30.3645832 16.8183333,30.3645832 C16.5678579,30.3645832 16.36375,30.1604753 16.36375,29.9099998 L16.36375,20.8183333 C16.36375,20.5678579 16.5678579,20.36375 16.8183333,20.36375 L25.9099998,20.36375 C26.1604753,20.36375 26.3645832,20.5678579 26.3645832,20.8183333 C26.3645832,21.0688087 26.1604753,21.2729166 25.9099998,21.2729166 L19.0135162,21.2729166 C18.6112099,21.2729166 18.4052837,21.7620483 18.6921258,22.0488904 L29.9330623,33.2902815 L29.9330623,33.2902815 C30.108986,33.465296 30.1126227,33.7530473 29.9330623,33.9330623 C29.7616844,34.1044402 29.462114,34.1044402 29.2902815,33.9330623 L18.0488904,22.6921258 C17.7675033,22.409375 17.2729166,22.6043912 17.2729166,23.0135162 Z M43.1841663,28.0916665 C42.1813555,28.0916665 41.365833,28.907189 41.365833,29.9099998 L41.365833,34.6117552 L31.6768439,24.9227662 C30.9695123,24.2136162 29.8180527,24.2104341 29.1057206,24.9227662 C28.3938431,25.6350982 28.3961161,26.7851941 29.1057206,27.4938895 L38.7942551,37.1833331 L34.0924997,37.1833331 C33.0896889,37.1833331 32.2741664,37.9988556 32.2741664,39.0016664 C32.2741664,40.0044772 33.0896889,40.8199997 34.0924997,40.8199997 L43.1841663,40.8199997 C44.1869771,40.8199997 45.0024996,40.0044772 45.0024996,39.0016664 L45.0024996,29.9099998 C45.0024996,28.907189 44.1869771,28.0916665 43.1841663,28.0916665 Z M34.0924997,38.5470831 L40.9889834,38.5470831 C41.3921988,38.5470831 41.598125,38.0588606 41.3103738,37.7711093 L30.0698919,26.5301728 L30.0698919,26.5301728 C29.8944227,26.3560674 29.8898769,26.067407 30.0698919,25.887392 C30.2408152,25.7155595 30.5412948,25.7155595 30.7126727,25.887392 L41.9540638,37.1283285 C42.2404513,37.4151706 42.7295829,37.2087897 42.7295829,36.8064835 L42.7295829,29.9099998 C42.7295829,29.6595244 42.9336909,29.4554165 43.1841663,29.4554165 C43.4346417,29.4554165 43.6387496,29.6595244 43.6387496,29.9099998 L43.6387496,39.0016664 C43.6387496,39.2521418 43.4346417,39.4562497 43.1841663,39.4562497 L34.0924997,39.4562497 C33.8420243,39.4562497 33.6379164,39.2521418 33.6379164,39.0016664 C33.6379164,38.751191 33.8420243,38.5470831 34.0924997,38.5470831 Z" id="Shape" fill="#FFFFFF" fill-rule="nonzero"></path>
        </g>
    </g>
</svg>