<svg width="60px" height="60px" viewBox="0 0 60 60" version="1.1" xmlns="http://www.w3.org/2000/svg" xmlns:xlink="http://www.w3.org/1999/xlink">
    <defs>
        <linearGradient x1="50%" y1="97.783801%" x2="50%" y2="1.55905295%" id="linearGradient-1">
            <stop stop-color="#FD9918" offset="0%"></stop>
            <stop stop-color="#F8C95D" offset="100%"></stop>
        </linearGradient>
    </defs>
    <g id="Source-Sans---White-Screens" stroke="none" stroke-width="1" fill="none" fill-rule="evenodd">
        <g id="6---Analytics" transform="translate(-1285.000000, -681.000000)">
            <g id="Stats" transform="translate(280.000000, 651.000000)">
                <g id="Stats-Widget-4" transform="translate(975.000000, 0.000000)">
                    <g id="Icon" transform="translate(30.000000, 30.000000)">
                        <rect id="Base" fill="url(#linearGradient-1)" x="0" y="0" width="60" height="60" rx="30"></rect>
                        <rect id="Base" stroke="#FFFFFF" stroke-width="2" opacity="0.202955163" x="5" y="5" width="50" height="50" rx="25"></rect>
                        <path d="M38,29 L34.288,29 C34.155,29 34.028,29.053 33.934,29.146 L32.533,30.548 C32.302,30.779 31.914,30.729 31.748,30.447 C29.527,26.655 29.847,27.202 29.413,26.46 C29.082,25.895 28.306,25.796 27.843,26.259 L27.344,26.757 L27.352,26.771 L25.269,28.854 C25.175,28.947 25.048,29 24.915,29 L22,29 L22,23 C22,22.448 22.448,22 23,22 L37,22 C37.552,22 38,22.448 38,23 L38,29 Z M38,37 C38,37.552 37.552,38 37,38 L23,38 C22.448,38 22,37.552 22,37 L22,31 L25.745,31 C25.878,31 26.005,30.947 26.099,30.854 L27.939,29.013 C28.17,28.781 28.558,28.831 28.724,29.114 C30.922,32.866 30.484,32.115 31.043,33.078 C31.372,33.645 32.149,33.747 32.613,33.284 L34.761,31.146 C34.854,31.052 34.981,31 35.113,31 L38,31 L38,37 Z M38,20 L22,20 C20.895,20 20,20.895 20,22 L20,38 C20,39.104 20.895,40 22,40 L38,40 C39.105,40 40,39.104 40,38 L40,22 C40,20.895 39.105,20 38,20 L38,20 Z" fill="#FFFFFF"></path>
                    </g>
                </g>
            </g>
        </g>
    </g>
</svg>