<svg width="60px" height="60px" viewBox="0 0 60 60" version="1.1" xmlns="http://www.w3.org/2000/svg" xmlns:xlink="http://www.w3.org/1999/xlink">
    <defs>
        <linearGradient x1="50%" y1="1.55905295%" x2="50%" y2="97.783801%" id="linearGradient-1">
            <stop stop-color="#9D90E4" offset="0%"></stop>
            <stop stop-color="#8261E6" offset="100%"></stop>
        </linearGradient>
    </defs>
    <g id="Page-1" stroke="none" stroke-width="1" fill="none" fill-rule="evenodd">
        <g id="Group-2">
            <g id="Icon">
                <rect id="Base" fill="url(#linearGradient-1)" x="0" y="0" width="60" height="60" rx="30"></rect>
                <rect id="Base" stroke="#FFFFFF" stroke-width="2" opacity="0.202955163" x="5" y="5" width="50" height="50" rx="25"></rect>
            </g>
            <g id="Group" transform="translate(17.000000, 15.000000)" fill-rule="nonzero" fill="#FFFFFF">
                <path d="M25.7498436,14.9285545 C25.7498436,10.0408592 23.0262108,5.658535 18.6419334,3.4920311 C18.1458396,3.2459373 17.5472068,3.4495506 17.3025779,3.9456444 C17.057949,4.4407616 17.261074,5.040371 17.7561912,5.2849999 C21.4529685,7.1121483 23.7498435,10.8069726 23.7498435,14.9285546 C23.7498435,20.2613793 19.8428,24.6870385 14.7432517,25.5240746 L14.7820701,25.4817772 C15.155117,25.0745506 15.1277732,24.4422264 14.7205467,24.0686913 C14.3133202,23.6951562 13.6805076,23.7224999 13.3074608,24.1302147 L11.5159569,26.0843163 C11.3367577,26.2796288 11.2425194,26.5384179 11.2542381,26.8035546 C11.2659568,27.0686913 11.3821678,27.318203 11.5774803,27.4974023 L13.5315819,29.2884217 C13.7234764,29.4642029 13.9656639,29.551117 14.2068749,29.551117 C14.477871,29.551117 14.7474022,29.441742 14.9446679,29.2268982 C15.3177148,28.8196678 15.290371,28.1868553 14.8831445,27.8138084 L14.6117822,27.5650901 C20.8821068,26.7686424 25.7498436,21.4116478 25.7498436,14.9285545 Z" id="Shape"></path>
                <path d="M11.4778709,5.9534569 C11.6634178,6.1038475 11.886074,6.1770897 12.1077537,6.1770897 C12.3987693,6.1770897 12.6868553,6.0506249 12.8846092,5.8074608 L14.5550194,3.7493553 C14.9031639,3.3201561 14.8377342,2.6907615 14.4090233,2.342617 L12.3509178,0.6722068 C11.9222069,0.3245506 11.2928123,0.3904685 10.9441795,0.8182029 C10.596035,1.2474021 10.6614647,1.8767967 11.0901756,2.2249412 L11.2069359,2.3197288 C5.024807,3.1959495 0.2498436,8.5083274 0.2498436,14.9285545 C0.2498436,19.7356834 2.9090233,24.0857811 7.1902733,26.2806053 C7.3362694,26.3558006 7.4920311,26.3909569 7.6453514,26.3909569 C8.0086326,26.3909569 8.3592186,26.1927147 8.5359764,25.8474999 C8.7879295,25.3558007 8.5940819,24.7532616 8.1023826,24.5013085 C4.4925193,22.649746 2.2498435,18.9817773 2.2498435,14.9285546 C2.2498435,9.496914 6.3024558,5.0053368 11.540676,4.2895165 L11.3318747,4.5467186 C10.9837303,4.9759178 11.04916,5.6053123 11.4778709,5.9534569 Z" id="Shape"></path>
            </g>
        </g>
    </g>
</svg>