
<svg width="14px" height="14px" viewBox="0 0 14 14" version="1.1" xmlns="http://www.w3.org/2000/svg" xmlns:xlink="http://www.w3.org/1999/xlink">
  <g stroke="none" stroke-width="1" fill="none" fill-rule="evenodd">
    <g transform="translate(-1222.000000, -291.000000)" fill="#7F8FA4">
      <g transform="translate(1180.000000, 95.000000)">
        <g transform="translate(0.000000, 135.000000)">
          <path d="M51.2221776,64.0326263 C49.5126324,62.3230811 46.7421714,62.3230811 45.0326263,64.0326263 C43.3230811,65.7421714 43.3230811,68.5126324 45.0326263,70.2221776 C46.7421714,71.9317227 49.5126324,71.9317227 51.2221776,70.2221776 C52.9317227,68.5126324 52.9317227,65.7421714 51.2221776,64.0326263 M55.7739619,74.7739619 C55.4317027,75.1153457 54.8776105,75.1153457 54.5353513,74.7739619 L51.7788958,72.016631 C49.3787049,73.8110844 45.9753708,73.6412679 43.7948911,71.4599128 C41.401703,69.0676 41.401703,65.1880792 43.7948911,62.7948911 C46.1872039,60.401703 50.0676,60.401703 52.4599128,62.7948911 C54.6412679,64.9753708 54.8110844,68.3787049 53.016631,70.7788958 L55.7739619,73.5362267 C56.1153457,73.8776105 56.1153457,74.4317027 55.7739619,74.7739619" id="Search-icon"></path>
        </g>
      </g>
    </g>
  </g>
</svg>