<svg xmlns="http://www.w3.org/2000/svg" width="84" height="24" viewBox="0 0 84 24">
    <g fill="none" fill-rule="nonzero">
        <path fill="#FFF" d="M7.142 24c-1.241 0-2.23-.406-2.963-1.217-.735-.822-1.102-2.082-1.102-3.781v-9.47H1.101c-.356 0-.631-.088-.826-.263C.092 9.093 0 8.858 0 8.562c0-.285.092-.516.275-.691.184-.186.454-.28.81-.28h1.992l.389-4.669c.022-.35.173-.652.453-.904.292-.252.61-.378.956-.378.324 0 .594.104.81.312.216.197.324.488.324.872v4.768h2.98c.356 0 .62.093.793.279.184.186.276.428.276.723 0 .625-.357.938-1.07.938h-2.98v8.96c0 1.13.157 1.946.47 2.45.314.493.81.74 1.49.74h.179l1.101-.05h.097c.356 0 .637.116.842.346.205.23.308.498.308.805 0 .274-.06.5-.178.674-.119.165-.302.285-.55.362a3.31 3.31 0 0 1-.73.148c-.237.022-.55.033-.939.033h-.956zm7.771 0c-.405 0-.75-.12-1.035-.358-.284-.238-.427-.574-.427-1.007V9.228c0-.434.148-.764.444-.992a1.623 1.623 0 0 1 1.051-.357c.405 0 .75.119 1.035.357.295.228.443.547.443.96l-.016 1.95a4.815 4.815 0 0 1 1.642-2.52c.832-.682 1.829-1.024 2.99-1.024.35 0 .624.13.82.39.209.26.313.564.313.91 0 .326-.093.607-.28.846-.186.227-.454.34-.804.34-1.478 0-2.628.38-3.45 1.139-.81.758-1.215 1.77-1.215 3.038v8.37c0 .433-.153.77-.46 1.007a1.623 1.623 0 0 1-1.05.358zm40.61-.383a1.522 1.522 0 0 1-1.037.383c-.4 0-.745-.128-1.037-.383-.28-.267-.42-.633-.42-1.1V9.578h-2.123c-.357 0-.621-.09-.794-.267a.997.997 0 0 1-.26-.7c0-.288.087-.527.26-.715.173-.19.437-.284.794-.284h2.122V5.496c0-1.987.41-3.397 1.232-4.23C55.08.422 56.215 0 57.662 0h1.977c.313 0 .556.117.729.35.183.222.275.488.275.8 0 .31-.092.577-.275.799-.173.222-.421.333-.745.333h-1.378c-.464 0-.826.044-1.085.133-.26.078-.492.26-.697.55-.194.277-.33.682-.405 1.215-.065.522-.097 1.233-.097 2.132v1.3h2.738c.356 0 .616.094.778.283.173.188.259.427.259.716 0 .644-.346.966-1.037.966h-2.738v12.94c0 .467-.146.833-.438 1.1zm9.557-20.04c-.58 0-1.045-.161-1.396-.485-.35-.335-.525-.766-.525-1.295 0-.529.175-.96.525-1.295.362-.335.832-.502 1.413-.502.57 0 1.03.167 1.38.502.35.324.525.755.525 1.295 0 .529-.175.96-.526 1.295-.35.324-.815.486-1.396.486zM65.056 24a1.49 1.49 0 0 1-1.03-.38c-.282-.263-.424-.637-.424-1.121V9.087c0-.462.147-.825.441-1.089a1.573 1.573 0 0 1 1.062-.396c.392 0 .73.132 1.013.396.294.264.44.627.44 1.09v13.41c0 .463-.152.831-.457 1.106a1.513 1.513 0 0 1-1.045.396zm8.44-.407a1.53 1.53 0 0 1-1.048.39c-.403 0-.747-.124-1.03-.374-.284-.26-.426-.629-.426-1.106V1.464c0-.455.147-.813.442-1.073.305-.26.66-.391 1.063-.391.393 0 .731.13 1.015.39.294.26.442.619.442 1.074V14.66l7.428-6.768c.24-.207.496-.31.77-.31.348 0 .654.136.915.407.273.271.41.575.41.911 0 .304-.132.58-.393.83l-5.94 5.288 6.496 6.802c.24.25.36.531.36.846 0 .347-.142.656-.425.927-.273.271-.59.407-.95.407-.381 0-.708-.152-.981-.456l-7.69-8.135v7.094c0 .466-.153.83-.459 1.09z"/>
        <path fill="#4B76DD" d="M28.93 23.993c-1.942-.163-3.427-.734-4.506-1.732-1.1-1.016-1.57-2.34-1.384-3.888.214-1.781 1.083-3.039 2.608-3.773 1.175-.565 2.348-.78 4.257-.781 1.357 0 2.493.108 4.227.401.429.073.8.132.825.132.036 0 .065-.133.144-.664.142-.96.167-1.292.129-1.676-.046-.448-.104-.662-.279-1.009-.45-.895-1.517-1.443-3.232-1.658-.49-.062-1.622-.07-2.114-.016-.823.09-1.282.206-2.306.58-.6.218-.602.218-.841.205-.411-.024-.692-.205-.872-.563-.074-.147-.087-.208-.087-.407 0-.298.08-.456.358-.709.623-.567 1.671-1.05 2.73-1.258.677-.132 1.01-.16 1.903-.159.923.002 1.514.052 2.335.2 1.365.248 2.402.683 3.183 1.338.232.194.582.577.732.8a.433.433 0 0 0 .105.124c.012 0 .087-.082.168-.182C38.197 7.83 40.19 6.998 42.526 7c1.652 0 3.187.408 4.332 1.148.908.587 1.645 1.49 1.943 2.382.171.512.197.701.199 1.444 0 .463-.012.775-.039.92-.268 1.46-.906 2.473-2.013 3.193-.891.58-2.01.92-3.474 1.053-.736.068-2.084.061-2.957-.014-.74-.063-1.65-.175-2.038-.25a34.12 34.12 0 0 0-1.446-.236 22.15 22.15 0 0 0-.118.72c-.097.625-.11.782-.113 1.281-.002.508.006.597.069.832.202.754.648 1.258 1.458 1.648.797.383 1.631.55 2.893.575.559.011.845.003 1.194-.033.847-.087 1.233-.183 2.358-.586.28-.1.567-.191.636-.203.149-.024.426.026.587.106.292.144.537.528.535.84-.001.362-.127.582-.497.868-.883.684-2.01 1.104-3.357 1.25-.48.05-1.576.059-2.106.014-1.49-.126-2.526-.374-3.472-.833-.738-.357-1.301-.8-1.722-1.356a24.69 24.69 0 0 0-.195-.255 1.301 1.301 0 0 0-.153.175 6.104 6.104 0 0 1-1.423 1.256c-.763.482-1.859.85-2.967.997-.331.044-1.428.08-1.71.057zm1.904-2.08c.906-.195 1.712-.635 2.298-1.253.534-.563.972-1.408 1.213-2.338.136-.525.362-1.985.312-2.015-.02-.012-.14-.03-.266-.042a31.364 31.364 0 0 1-.799-.092c-1.86-.234-3.002-.325-3.642-.29-1.217.066-1.713.17-2.443.51-.374.173-.633.362-.837.61-.293.358-.47.713-.594 1.191-.09.348-.099 1.259-.015 1.552.14.495.307.775.681 1.145.513.508 1.19.846 2.029 1.015.429.087.416.086 1.134.076.521-.008.716-.022.93-.068zm11.857-6.845c.757-.065 1.222-.18 1.794-.44.476-.218.752-.44 1.014-.816.385-.552.535-1.075.531-1.852-.003-.554-.05-.784-.247-1.182-.44-.888-1.47-1.524-2.822-1.741-.338-.055-1.243-.045-1.59.016-.664.119-1.227.334-1.723.66-.916.604-1.549 1.513-1.9 2.734-.14.48-.176.663-.3 1.49l-.113.762.152.017c.46.05 1.498.172 2.101.247.38.048.845.099 1.034.113.549.042 1.531.038 2.069-.008z"/>
    </g>
</svg>
