<svg xmlns="http://www.w3.org/2000/svg" width="32" height="32" viewBox="0 0 32 32">
    <g fill="none" fill-rule="evenodd">
        <circle cx="16" cy="16" r="16" fill="#326CE6"/>
        <path fill="#FFF" fill-rule="nonzero" d="M27.35 18.155c-.036 0-.073 0-.073-.037s-.072-.037-.144-.037c-.145-.037-.289-.037-.434-.037-.072 0-.144 0-.216-.037h-.036a7.13 7.13 0 0 1-1.229-.223.442.442 0 0 1-.253-.26c.037 0 0 0 0 0l-.289-.074c.145-1.075.073-2.187-.144-3.263a10.189 10.189 0 0 0-1.265-3.04l.217-.223v-.037c0-.112.036-.26.109-.334.325-.297.65-.52 1.011-.742l.217-.111c.144-.074.253-.148.397-.222.036-.038.073-.038.109-.075.036-.037 0-.037 0-.074.325-.26.397-.704.144-1.038a.684.684 0 0 0-.506-.26.85.85 0 0 0-.505.186l-.036.037c-.037.037-.073.074-.109.074a2.38 2.38 0 0 0-.289.334c-.036.074-.108.11-.144.148a4.791 4.791 0 0 1-.904.816c-.072.037-.144.074-.216.074-.036 0-.109 0-.145-.037h-.036l-.289.185c-.289-.296-.614-.593-.903-.89a9.125 9.125 0 0 0-4.696-1.928l-.037-.297v.037c-.108-.074-.144-.185-.18-.296 0-.408 0-.816.072-1.261v-.037c0-.074.036-.148.036-.223.036-.148.036-.296.072-.445v-.222c.037-.371-.252-.742-.614-.779-.216-.037-.433.074-.614.26a.742.742 0 0 0-.217.519v.185c0 .149.037.297.073.445a.481.481 0 0 1 .036.223v.037c.072.408.072.816.072 1.26-.036.112-.072.223-.18.297v.075l-.037.296c-.397.037-.795.111-1.228.186-1.698.37-3.251 1.298-4.444 2.595l-.216-.148H9.25c-.037 0-.073.037-.145.037s-.144-.037-.217-.074a6.73 6.73 0 0 1-.903-.853c-.036-.074-.108-.111-.144-.148-.109-.111-.181-.223-.29-.334-.035-.037-.072-.037-.108-.074l-.036-.037a.85.85 0 0 0-.506-.186c-.216 0-.397.075-.505.26a.813.813 0 0 0 .144 1.038c.036 0 .036.037.036.037s.073.075.109.075c.108.074.253.148.397.222l.217.111c.361.223.722.445 1.011.742.073.074.145.222.109.334v-.037l.216.222c-.036.074-.072.111-.108.186-1.12 1.817-1.59 3.967-1.264 6.081l-.29.074c0 .037-.035.037-.035.037-.037.112-.145.186-.253.26a6.554 6.554 0 0 1-1.229.223c-.072 0-.144 0-.216.037-.145 0-.29.037-.434.037-.036 0-.072.037-.144.037-.037 0-.037 0-.073.037a.722.722 0 0 0-.578.853.672.672 0 0 0 .723.519c.072 0 .108 0 .18-.037.037 0 .037 0 .037-.037s.108 0 .144 0c.145-.037.29-.111.397-.149.073-.037.145-.074.217-.074h.036a6.31 6.31 0 0 1 1.193-.333h.036c.108 0 .216.037.289.11.036 0 .036.038.036.038l.325-.037c.542 1.706 1.553 3.226 2.962 4.339.325.26.614.482.976.667l-.181.26c0 .037.036.037.036.037.072.11.072.26.036.37-.144.371-.361.742-.578 1.076v.037c-.036.074-.072.111-.144.185-.073.075-.145.223-.253.371-.036.037-.036.074-.072.112 0 0 0 .037-.037.037-.18.37-.036.815.29 1 .072.038.18.075.252.075.29 0 .542-.185.687-.445 0 0 0-.037.036-.037 0-.037.036-.074.072-.111.036-.149.109-.26.145-.408l.072-.223c.108-.408.289-.778.47-1.15a.563.563 0 0 1 .289-.222c.036 0 .036 0 .036-.037l.144-.297a8.31 8.31 0 0 0 3.143.594c.65 0 1.3-.074 1.951-.26.397-.074.795-.222 1.156-.334l.144.26c.037 0 .037 0 .037.037a.563.563 0 0 1 .289.223c.18.37.36.741.47 1.15v.036l.072.223c.036.148.072.296.144.408.036.037.036.074.072.11 0 0 0 .038.036.038.145.26.398.445.687.445.108 0 .18-.037.289-.074a.617.617 0 0 0 .325-.408.978.978 0 0 0-.036-.556c0-.037-.036-.037-.036-.037 0-.037-.036-.075-.073-.112a1.333 1.333 0 0 0-.252-.37.649.649 0 0 0-.145-.186v-.074a4.417 4.417 0 0 1-.578-1.075.449.449 0 0 1 .036-.371c0-.037.036-.037.036-.037l-.108-.297a9.128 9.128 0 0 0 3.902-5.043l.289.037c.036 0 .036-.037.036-.037a.404.404 0 0 1 .289-.112h.036c.397.075.795.186 1.156.334h.036c.072.037.144.074.217.074.144.074.253.149.397.186.036 0 .072.037.145.037.036 0 .036 0 .072.037a.319.319 0 0 0 .18.037.787.787 0 0 0 .723-.52.867.867 0 0 0-.65-.778zm-10.44-1.15l-.976.483-.976-.483-.252-1.075.686-.89h1.084l.686.89-.253 1.075zm5.888-2.41c.18.779.217 1.558.144 2.336L19.51 15.93c-.325-.074-.505-.408-.433-.742a.602.602 0 0 1 .144-.26l2.71-2.52c.397.667.686 1.408.867 2.187zm-1.951-3.56l-2.962 2.15c-.253.15-.614.112-.795-.147a.34.34 0 0 1-.108-.26l-.217-3.745a6.73 6.73 0 0 1 4.082 2.002zm-6.539-1.891l.723-.149-.18 3.709c0 .334-.29.593-.615.593-.108 0-.18-.037-.289-.074l-2.998-2.188c.939-.927 2.095-1.595 3.36-1.891zm-4.407 3.263l2.673 2.448a.607.607 0 0 1 .072.853c-.072.11-.144.148-.289.185L8.853 16.93a7.972 7.972 0 0 1 1.048-4.524zm-.614 6.267l3.576-.63c.29 0 .578.185.614.482a.449.449 0 0 1-.036.37l-1.373 3.412a7.268 7.268 0 0 1-2.781-3.634zm8.2 4.599a7.13 7.13 0 0 1-1.553.185c-.759 0-1.554-.148-2.276-.37l1.77-3.301c.18-.223.47-.297.723-.149.108.075.18.149.289.26l1.734 3.226c-.217.037-.434.074-.687.149zm4.408-3.227a6.992 6.992 0 0 1-2.168 2.225l-1.409-3.486a.608.608 0 0 1 .325-.704c.109-.037.217-.074.325-.074l3.613.63c-.18.52-.397 1.001-.686 1.41z"/>
    </g>
</svg>
