<svg xmlns="http://www.w3.org/2000/svg" width="32" height="32">
    <g fill="none">
        <circle cx="16" cy="16" r="16" fill="#000"/>
        <path fill="#A41E11" d="M26.04 21.21c-1.214.634-7.504 3.22-8.843 3.918-1.34.698-2.083.691-3.141.186-1.058-.506-7.752-3.21-8.959-3.787-.603-.288-.919-.53-.919-.76v-2.3s8.715-1.897 10.123-2.402c1.407-.505 1.894-.523 3.092-.084 1.198.438 8.357 1.73 9.54 2.163v2.269c0 .227-.273.482-.891.798h-.001l-.001-.001z"/>
        <path fill="#D82C20" d="M26.04 18.909c-1.214.633-7.504 3.22-8.843 3.918-1.34.698-2.083.69-3.141.185-1.058-.505-7.752-3.209-8.959-3.786-1.206-.576-1.23-.973-.046-1.437l9.249-3.58c1.407-.505 1.894-.524 3.092-.085 1.198.439 7.45 2.927 8.633 3.367 1.182.44 1.229.79.014 1.424l.002-.006h-.001z"/>
        <path fill="#A41E11" d="M26.04 17.46c-1.214.633-7.504 3.219-8.843 3.917-1.34.698-2.083.691-3.141.186-1.058-.506-7.752-3.21-8.959-3.787-.603-.288-.919-.53-.919-.76v-2.3s8.715-1.897 10.123-2.402c1.407-.505 1.894-.523 3.092-.084 1.198.438 8.357 1.73 9.54 2.163v2.269c0 .227-.273.482-.891.798h-.002z"/>
        <path fill="#D82C20" d="M26.04 15.158c-1.214.634-7.504 3.22-8.843 3.918-1.34.698-2.083.691-3.141.186-1.058-.506-7.752-3.21-8.959-3.786-1.206-.577-1.23-.974-.046-1.437l9.249-3.58c1.407-.506 1.894-.524 3.092-.085 1.198.438 7.45 2.927 8.634 3.36 1.184.432 1.229.79.015 1.424h-.001z"/>
        <path fill="#A41E11" d="M26.04 13.569c-1.214.633-7.504 3.22-8.843 3.918-1.34.699-2.083.692-3.141.186-1.058-.506-7.752-3.21-8.959-3.786-.603-.288-.919-.53-.919-.76v-2.302s8.715-1.897 10.123-2.402c1.407-.505 1.894-.523 3.092-.084 1.198.438 8.357 1.73 9.54 2.164v2.268c0 .227-.273.483-.891.799l-.001-.001h-.001z"/>
        <path fill="#D82C20" d="M26.04 11.268c-1.214.634-7.504 3.22-8.843 3.918-1.34.698-2.083.691-3.141.186-1.058-.506-7.752-3.21-8.959-3.786-1.206-.577-1.23-.974-.046-1.437l9.249-3.58c1.407-.506 1.894-.524 3.092-.085 1.198.438 7.45 2.927 8.634 3.36 1.184.432 1.229.79.015 1.424h-.001z"/>
        <g fill="#FFF" transform="translate(8 7)">
            <path d="M8.503 3.446L7.79 2.26l-2.276-.205 1.699-.613-.51-.94 1.59.62 1.5-.49-.406.972 1.529.573-1.972.205-.44 1.064h-.001zm-3.798 2.36l5.273-.81-1.593 2.336-3.68-1.526z"/>
            <ellipse cx="3.284" cy="3.862" rx="2.818" ry="1.092"/>
        </g>
        <path fill="#7A0C00" d="M23.987 10.577l-3.119 1.232-.002-2.466z"/>
        <path fill="#AD2115" d="M20.869 11.809l-.338.132-3.116-1.231 3.452-1.366z"/>
    </g>
</svg>
