<svg xmlns="http://www.w3.org/2000/svg" width="32" height="32" viewBox="0 0 32 32">
    <g fill="none" fill-rule="evenodd">
        <circle cx="16" cy="16" r="16" fill="#815E89"/>
        <path fill="#FFF" fill-rule="nonzero" d="M26.5 13.5A1.5 1.5 0 0 1 28 15v2a1.5 1.5 0 0 1-1.5 1.502h-1.862a8.909 8.909 0 0 1-.763 1.84l1.317 1.317a1.5 1.5 0 0 1 0 2.121l-1.414 1.414a1.5 1.5 0 0 1-2.121 0l-1.318-1.317c-.583.322-1.2.578-1.839.763v1.86A1.5 1.5 0 0 1 17 28h-2a1.5 1.5 0 0 1-1.5-1.5v-1.86a8.977 8.977 0 0 1-1.84-.764l-1.318 1.317a1.545 1.545 0 0 1-2.122 0l-1.414-1.414a1.5 1.5 0 0 1 0-2.121l1.319-1.319a8.878 8.878 0 0 1-.763-1.839H5.5A1.5 1.5 0 0 1 4 17v-2a1.5 1.5 0 0 1 1.5-1.5h1.862c.185-.64.44-1.256.763-1.838l-1.318-1.317a1.5 1.5 0 0 1 0-2.122l1.415-1.414a1.5 1.5 0 0 1 2.121 0l1.318 1.317a8.969 8.969 0 0 1 1.839-.763V5.5A1.5 1.5 0 0 1 15 4h2a1.5 1.5 0 0 1 1.5 1.5v1.863c.64.185 1.256.44 1.838.763l1.318-1.317a1.5 1.5 0 0 1 2.121 0l1.415 1.413a1.5 1.5 0 0 1 0 2.122l-1.317 1.316c.322.583.578 1.2.763 1.84H26.5zm-11.379 4.805l-2.447-4.962a.551.551 0 0 0-.242-.255.726.726 0 0 0-.35-.088c-.123 0-.24.03-.348.088a.551.551 0 0 0-.243.255l-2.438 4.962a.493.493 0 0 0-.053.218c0 .128.056.237.168.326a.581.581 0 0 0 .645.063.482.482 0 0 0 .194-.222l.53-1.121h3.11l.529 1.121c.047.1.112.175.194.222.083.048.171.071.265.071a.575.575 0 0 0 .376-.134.408.408 0 0 0 .163-.326.493.493 0 0 0-.053-.218zm-4.195-1.573l1.165-2.485 1.166 2.485h-2.331zM16.596 19a.585.585 0 0 0 .42-.146.521.521 0 0 0 .154-.398v-1.8h1.581c.666 0 1.184-.158 1.555-.476.371-.318.556-.762.556-1.33 0-.57-.185-1.012-.556-1.327-.371-.315-.89-.473-1.555-.473H16.58a.572.572 0 0 0-.402.134.486.486 0 0 0-.146.377v4.895c0 .167.051.3.154.398.104.097.24.146.411.146zm2.014-3.172h-1.44v-1.941h1.44c.783 0 1.175.324 1.175.97 0 .648-.392.971-1.175.971zM22.426 19c.177 0 .316-.05.42-.15a.525.525 0 0 0 .154-.394v-4.912a.51.51 0 0 0-.155-.39.585.585 0 0 0-.42-.146.573.573 0 0 0-.41.147.51.51 0 0 0-.154.389v4.912c0 .162.051.293.154.393.103.1.24.151.41.151z"/>
    </g>
</svg>
