<?xml version="1.0" encoding="UTF-8"?>
<svg width="209px" height="318px" viewBox="0 0 209 318" version="1.1" xmlns="http://www.w3.org/2000/svg" xmlns:xlink="http://www.w3.org/1999/xlink">
    <title>TraefikProxy-vertical-logo-color</title>
    <g id="TraefikProxy-vertical-logo-color" stroke="none" stroke-width="1" fill="none" fill-rule="evenodd">
        <path d="M105.820468,0.96875 C114.079348,0.96875 121.420692,6.79871749 121.420692,13.9798921 C121.420692,21.1607414 114.430633,26.9910342 105.820468,26.9910342 C104.835347,26.9910342 103.54954,26.829617 101.963047,26.5067828 C100.730717,26.2560073 99.4493367,26.4606756 98.3562074,27.0828759 L42.4236296,58.9192424 C41.1753991,59.629725 40.7389891,61.2184183 41.4488806,62.4676881 C41.6826162,62.8790171 42.0239929,63.2187741 42.4362793,63.4504022 L103.06857,97.5144454 C104.642689,98.398807 106.562452,98.4028638 108.140288,97.5251629 L169.101161,63.6145445 C170.356296,62.9163524 170.808258,61.3320206 170.110647,60.0758406 C169.878784,59.6583276 169.536571,59.3127423 169.121502,59.0769492 L150.101332,48.2719175 C148.525255,47.3765756 146.597115,47.3670331 145.012269,48.2467312 L124.932665,59.3922836 C124.426171,59.6734351 124.092719,60.1821781 124.031094,60.7506424 L124.020755,60.9421121 L124.020755,60.9421121 C124.020755,68.1229614 117.030697,73.9532541 108.420531,73.9532541 C99.8103652,73.9532541 92.8199953,68.1229614 92.8199953,60.9421121 C92.8199953,53.7609375 99.8103652,47.93097 108.420531,47.93097 C108.740411,47.93097 109.107705,47.9483008 109.522412,47.9829625 L110.180032,48.0479532 L110.180032,48.0479532 L110.908773,48.1389401 L110.908773,48.1389401 C112.02004,48.2901355 113.150369,48.0777163 114.131145,47.5333739 L143.825766,31.0525039 C146.099672,29.7903915 148.844678,29.7486493 151.148004,30.9227474 L151.459271,31.0903874 L192.925292,54.6469099 C198.124289,57.6004197 198.18401,65.0286305 193.144126,68.0967243 L192.864166,68.2596977 L165.125655,83.6887799 C163.870501,84.3869382 163.418496,85.9712577 164.116073,87.2274566 C164.361713,87.6698041 164.730898,88.0308677 165.178427,88.2664398 L192.653189,102.728705 C198.106799,105.599336 198.237855,113.367551 192.884185,116.420813 L109.444779,164.00731 C107.049292,165.373484 104.111134,165.372502 101.71656,164.004726 L18.7519129,116.615492 C13.3918828,113.553854 13.5391041,105.770004 19.0110665,102.91358 L46.7855114,88.4137221 C48.0586859,87.7490518 48.5524243,86.1772587 47.888307,84.903024 C47.654789,84.4549755 47.2959746,84.08467 46.8556742,83.8373208 L18.7476666,68.0469848 C13.5493023,65.1264916 13.4365513,57.7257574 18.4331993,54.6180628 L18.7108111,54.4528625 L87.7436461,15.1622475 C88.8365221,14.5402257 89.6642968,13.5448472 90.0789766,12.363827 L90.1674616,12.0874634 L90.1674616,12.0874634 C92.5906161,4.86621477 98.1049236,0.96875 105.820468,0.96875 Z M144.340278,96.8149368 L110.250099,116.430834 L109.936963,116.601615 C107.619378,117.797611 104.848491,117.752837 102.563145,116.463325 L68.5817405,97.2909567 C67.0532343,96.4285708 65.1939846,96.3991874 63.6391653,97.2128447 L44.0512925,107.463435 C42.7809536,108.12822 42.288273,109.700365 42.9508596,110.974919 C43.1809446,111.417511 43.5330256,111.784387 43.965134,112.031813 L103.8112,146.29989 C105.404007,147.211937 107.35838,147.212575 108.951778,146.301569 L169.314735,111.789746 C170.55956,111.078031 170.99364,109.488595 170.284279,108.239639 C170.039157,107.808058 169.676064,107.455863 169.237876,107.224645 L149.336635,96.7233389 C147.765259,95.8941696 145.880414,95.9287243 144.340278,96.8149368 Z" id="Shape" fill="#24A1C1" fill-rule="nonzero"></path>
        <path d="M177.666296,188 C178.727056,188 179.640503,188.354169 180.406629,189.062374 C181.149155,189.723447 181.545191,190.615843 181.594696,191.739565 L181.6,191.983904 L181.6,226.968 L201.712053,208.828543 C202.29678,208.331457 202.917414,208.058006 203.57396,208.008287 L203.794139,208 C204.739161,208 205.566088,208.36344 206.27492,209.090189 C207.013207,209.817023 207.382373,210.631029 207.382411,211.53221 C207.382376,212.27842 207.084581,212.963525 206.489025,213.587525 L206.319219,213.756192 L190.238443,227.928644 L207.82541,246.156588 C208.475095,246.82524 208.8,247.581104 208.8,248.424179 C208.8,249.35448 208.416029,250.183018 207.648212,250.909807 C206.909843,251.636602 206.053386,252 205.078828,252 C204.118969,252 203.286465,251.649063 202.581314,250.94719 L202.420848,250.778989 L181.6,228.976 L181.6,247.971836 C181.6,249.128643 181.24063,250.066941 180.521937,250.78673 L180.362432,250.937626 C179.566836,251.645875 178.623927,252 177.533704,252 C176.443456,252 175.515275,251.660632 174.749174,250.981896 C174.034128,250.320863 173.652776,249.402762 173.605107,248.227592 L173.6,247.971836 L173.6,191.983904 C173.6,190.744508 173.997782,189.770667 174.793371,189.062374 C175.61841,188.354169 176.576048,188 177.666296,188 Z M161.666296,207.2 C162.727056,207.2 163.640503,207.567286 164.406629,208.301721 C165.149155,208.987279 165.545191,209.912726 165.594696,211.078068 L165.6,211.331456 L165.6,247.822644 C165.6,249.107986 165.187458,250.133197 164.362432,250.898279 C163.566836,251.63276 162.623927,252 161.533704,252 C160.443456,252 159.515275,251.648063 158.749174,250.944188 C158.034128,250.258673 157.652776,249.306568 157.605107,248.087874 L157.6,247.822644 L157.6,211.331456 C157.6,210.046157 157.997782,209.036247 158.793371,208.301721 C159.61841,207.567286 160.576048,207.2 161.666296,207.2 Z M150.918922,188 L150.918,188.003 L150.970568,188.00511 C152.437537,188.093261 153.6,189.310877 153.6,190.8 C153.6,192.262624 152.478541,193.463318 151.048588,193.589116 L150.875674,193.6 L146.724323,193.6 C145.484661,193.600057 144.518897,193.71676 143.827024,193.950109 C143.135113,194.154397 142.515295,194.71107 141.967569,195.469585 C141.448631,196.199034 141.261243,197.584298 141.059456,198.984683 C140.897998,200.264575 140.811897,201.976482 140.80115,204.120408 L140.8,204.586433 L140.799,207.199 L148,207.2 C149.325483,207.2 150.4,208.274517 150.4,209.6 C150.4,210.925483 149.325483,212 148,212 L140.8,211.999 L140.8,247.971836 C140.8,249.128643 140.44063,250.066941 139.721937,250.78673 L139.562432,250.937626 C138.766836,251.645875 137.823927,252 136.733704,252 C135.643456,252 134.715275,251.660632 133.949174,250.981896 C133.234128,250.320863 132.852776,249.402762 132.805107,248.227592 L132.8,247.971836 L132.8,211.999 L126.4,212 C125.074517,212 124,210.925483 124,209.6 C124,208.274517 125.074517,207.2 126.4,207.2 L132.799,207.199 L132.8,202.442013 C132.8,197.219601 133.895483,193.514281 136.086487,191.326039 C138.199211,189.187931 141.089334,188.08061 144.756863,188.004243 L145.167566,188 L150.918922,188 Z M103.665256,207.200003 C107.833269,207.200003 111.707471,208.274066 114.595398,210.224219 C116.886004,211.771037 118.746837,214.15388 119.498561,216.502866 C119.930187,217.851569 119.995802,218.349944 119.999897,220.308896 C120.002098,221.527804 119.969154,222.349969 119.90228,222.730909 C119.226418,226.581083 117.616566,229.248399 114.822306,231.147699 C112.574357,232.675638 109.751133,233.569697 106.058707,233.922842 C104.199973,234.100606 100.800337,234.083817 98.5979902,233.885924 C96.7288779,233.718018 94.4337279,233.422568 93.454618,233.223895 C92.6350648,233.057564 89.8285737,232.581216 89.805466,232.604538 C89.7952902,232.614985 89.6617522,233.468153 89.5087527,234.500925 C89.2644659,236.149919 89.2298608,236.561377 89.2247353,237.878032 L89.2249838,238.524416 C89.2312291,239.318235 89.2677704,239.567396 89.3968633,240.069368 C89.9077817,242.055998 91.0337088,243.384896 93.0764271,244.412252 C95.0859081,245.422893 97.1924837,245.860233 100.375485,245.927655 C101.78468,245.95779 102.506354,245.936777 103.387976,245.841914 C105.525206,245.611546 106.499105,245.358797 109.33857,244.297671 C110.045784,244.033343 110.76753,243.792836 110.942459,243.763187 C111.317329,243.69965 112.016466,243.830858 112.423934,244.041288 C113.159403,244.420992 113.777321,245.433664 113.773471,246.252871 C113.769273,247.209923 113.451665,247.789609 112.51957,248.543485 C110.290901,250.346023 107.445313,251.45144 104.048464,251.834292 C102.837192,251.970842 100.071665,251.990956 98.7358476,251.873035 C94.9739637,251.540888 92.3621641,250.88682 89.9752752,249.679286 C88.1128473,248.737067 86.6918715,247.568158 85.6305747,246.105242 C85.4219547,245.817665 85.2384648,245.566183 85.1683134,245.471421 L85.1383289,245.431619 L85.1383289,245.431619 C85.1283413,245.420583 84.9550263,245.628217 84.7531147,245.892958 C83.8606182,247.063279 82.4958035,248.321195 81.1620461,249.202762 C79.2365671,250.475436 76.4723412,251.446334 73.6753138,251.832438 C72.8411728,251.947534 70.0736249,252.042501 69.3639534,251.980318 C64.4619671,251.550717 60.7161852,250.047616 57.9917333,247.416851 C55.21983,244.740176 54.030445,241.250519 54.4998364,237.171449 C55.0399868,232.477377 57.2343381,229.162526 61.0816064,227.228677 C64.0467813,225.7382 67.0048519,225.171241 71.8221846,225.170079 C75.2448714,225.168608 78.1128793,225.453522 82.4871258,226.227144 C83.5687468,226.418445 84.5051861,226.57505 84.5681055,226.575183 C84.6596027,226.575183 84.7321667,226.225246 84.9306289,224.82616 C85.2897087,222.29479 85.3540669,221.421317 85.2562399,220.407306 C85.1423718,219.226964 84.993764,218.664758 84.5538724,217.75001 C83.4189115,215.389945 80.724702,213.945966 76.3982761,213.379007 C75.1609561,213.21687 72.3052982,213.19418 71.0658055,213.336571 C68.9891654,213.575238 67.8303268,213.87934 65.2458963,214.863715 C63.7338705,215.43965 63.7269602,215.441431 63.1238296,215.405439 C62.0869853,215.343683 61.3791665,214.866482 60.9251749,213.923203 C60.7382058,213.534759 60.7053304,213.374402 60.7053232,212.850997 C60.7053232,212.065265 60.9066239,211.648142 61.6075628,210.981611 C63.179403,209.486883 65.8244645,208.213973 68.4941187,207.667438 C70.2035225,207.317501 71.0449849,207.243929 73.2971228,207.247446 C75.627509,207.253626 77.1176169,207.384848 79.1885583,207.776309 C82.6331542,208.427346 85.2486825,209.574904 87.2209429,211.300413 C87.8061449,211.812384 88.6885727,212.820053 89.0666884,213.408053 C89.1822573,213.587789 89.3013117,213.734859 89.3312458,213.734859 C89.3611986,213.734859 89.5523742,213.518897 89.7561125,213.255009 C92.7425437,209.38656 97.7723908,207.196931 103.665256,207.200003 Z M53.5760704,207.2 C54.5728082,207.2 55.3515389,207.558419 55.9122491,208.275124 C56.504052,208.991917 56.8,209.828123 56.8,210.783746 C56.8,211.679724 56.5351978,212.456202 56.0056997,213.113182 C55.4761352,213.740378 54.7129808,214.053951 53.7162363,214.053913 C49.5110853,214.053951 46.6404337,215.099214 44.3042748,217.189694 C42.0545373,219.230077 40.8548783,221.938965 40.8005529,225.316365 L40.8,247.822644 C40.8,249.107986 40.3874584,250.133197 39.5624317,250.898279 C38.7668363,251.63276 37.8239271,252 36.7337041,252 C35.6434559,252 34.7152749,251.648063 33.9491737,250.944188 C33.2125199,250.237957 32.8300323,249.24878 32.8016999,247.976657 L32.8,247.822644 L32.8,211.331456 C32.8,210.046157 33.197782,209.036247 33.993371,208.301721 C34.8184103,207.567286 35.7760477,207.2 36.8662959,207.2 C37.9270562,207.2 38.8405027,207.567286 39.606629,208.301721 C40.3703703,209.006866 40.767539,209.965805 40.7980905,211.178542 L40.8,211.331456 L40.8,216.962 L40.916542,216.572093 C41.7288056,213.968964 43.247413,211.78567 45.4723642,210.0222 C47.8396755,208.140778 50.2742397,207.2 53.5760704,207.2 Z M12.3403336,194.4 C13.3215344,194.4 14.1701527,194.717804 14.8861885,195.353413 C15.6287125,196.015502 16,196.902704 16,198.015019 L15.999,207.199 L24.8,207.2 C26.0702549,207.2 27.1100212,208.186839 27.1944631,209.435681 L27.2,209.6 C27.2,210.870255 26.213161,211.910021 24.9643187,211.994463 L24.8,212 L15.999,211.999 L16,235.413567 L16.0011497,235.879592 C16.0118972,238.023518 16.0979977,239.735425 16.2594564,241.015317 C16.4612429,242.415702 16.6486311,243.800966 17.1675685,244.530415 C17.7152948,245.28893 18.3351132,245.845603 19.0270236,246.049891 C19.6559995,246.262026 20.5113315,246.37776 21.5930241,246.397092 L21.9243227,246.4 L26.0756738,246.4 C27.5873285,246.44135 28.8,247.679058 28.8,249.2 C28.8,250.631849 27.7252377,251.812675 26.3384337,251.979755 L26.1705682,251.99489 L26.118,251.997 L26.1189217,252 L20.3675658,252 L19.9568634,251.995757 C16.2893343,251.91939 13.3992106,250.812069 11.2864868,248.673961 C9.16187736,246.55203 8.06739892,243.00357 8.00301786,238.028572 L8,237.557987 L7.999,211.999 L2.4,212 C1.12974508,212 0.0899787563,211.013161 0.00553686671,209.764319 L7.10542736e-15,209.6 C7.26098872e-15,208.329745 0.986839031,207.289979 2.23568127,207.205537 L2.4,207.2 L8.165,207.199 L8.8,198.015019 C8.79999434,196.849737 9.14474835,195.949292 9.83425636,195.313683 C10.5237474,194.704561 11.3591103,194.4 12.3403336,194.4 Z M72.4613086,231.031205 C69.4828963,231.202077 68.2687011,231.46838 66.4804749,232.343047 C65.5643659,232.791111 64.9320677,233.277361 64.4317741,233.918432 C63.7140148,234.838248 63.2807824,235.752296 62.9788019,236.983938 C62.759047,237.88018 62.7366221,240.226918 62.9405836,240.983025 C63.2841641,242.25668 63.692028,242.977548 64.6091692,243.932056 C65.8650248,245.239037 67.5205611,246.110928 69.5740929,246.54691 C70.6241431,246.769863 70.5930673,246.767691 72.3512304,246.740579 C73.6269577,246.720744 74.1042632,246.684053 74.6261489,246.565723 C76.8417204,246.062831 78.8161204,244.929325 80.2494428,243.337472 C81.5568891,241.885466 82.6292659,239.710204 83.2194458,237.313067 C83.5521243,235.961772 84.1051152,232.200899 83.9825339,232.123345 C83.9341577,232.09268 83.6419109,232.044281 83.3331755,232.015659 C83.1016175,231.994008 82.5487036,231.928872 81.9631969,231.854811 L81.5711994,231.804495 C81.506118,231.796015 81.4414265,231.787519 81.3775209,231.779056 C76.8224287,231.175684 74.027936,230.941253 72.4613086,231.031205 Z M100.242709,212.985272 C98.6205706,213.289941 97.2493869,213.845271 96.040059,214.687257 C93.8057935,216.242883 92.2638443,218.587841 91.4051993,221.735795 C91.0679301,222.972281 90.9780231,223.446894 90.677322,225.578281 L90.3999432,227.544404 L90.7715021,227.586534 C91.8937065,227.714621 94.4242475,228.030031 95.8938801,228.225043 C96.8184622,228.347717 97.953181,228.478626 98.4154735,228.516004 C99.6491138,228.615685 101.78566,228.61479 103.137894,228.520463 L103.458636,228.49494 L103.458636,228.495357 C105.30415,228.327732 106.438918,228.032796 107.833162,227.358536 C108.992743,226.797691 109.666717,226.224493 110.304505,225.256694 C111.24348,223.831805 111.609119,222.483371 111.59991,220.479928 C111.59302,219.051972 111.475458,218.457954 110.996578,217.432792 C109.926599,215.142303 107.41307,213.50164 104.116455,212.941919 C103.293839,212.802284 101.085906,212.827078 100.242709,212.985272 Z M161.641024,188 C163.063235,188 164.211953,188.392815 165.087179,189.178281 C165.962381,189.938515 166.4,190.952088 166.4,192.219005 C166.4,193.460683 165.962381,194.474257 165.087179,195.259729 C164.211953,196.019957 163.049559,196.4 161.6,196.4 C160.150418,196.4 158.988023,196.019957 158.112821,195.259729 C157.237601,194.474257 156.8,193.460683 156.8,192.219005 C156.8,190.977428 157.237601,189.963854 158.112821,189.178281 C159.015377,188.392815 160.191442,188 161.641024,188 Z" id="Combined-Shape" fill="#000000" fill-rule="nonzero"></path>
        <path d="M32.8,317.64 C33.2266667,317.64 33.5573333,317.512 33.792,317.256 C34.0266667,317 34.144,316.637333 34.144,316.168 L34.144,316.168 L34.144,299.528 C35.0826667,301.704 36.48,303.368 38.336,304.52 C40.192,305.672 42.4213333,306.248 45.024,306.248 C47.7546667,306.248 50.1653333,305.586667 52.256,304.264 C54.3466667,302.941333 55.968,301.074667 57.12,298.664 C58.272,296.253333 58.848,293.448 58.848,290.248 C58.848,287.005333 58.272,284.168 57.12,281.736 C55.968,279.304 54.3466667,277.416 52.256,276.072 C50.1653333,274.728 47.7546667,274.056 45.024,274.056 C42.4213333,274.056 40.192,274.621333 38.336,275.752 C36.48,276.882667 35.0826667,278.514667 34.144,280.648 L34.144,280.648 L34.144,275.592 C34.144,275.165333 34.0266667,274.824 33.792,274.568 C33.5573333,274.312 33.2266667,274.184 32.8,274.184 C32.3733333,274.184 32.0426667,274.312 31.808,274.568 C31.5733333,274.824 31.456,275.165333 31.456,275.592 L31.456,275.592 L31.456,316.168 C31.456,317.149333 31.904,317.64 32.8,317.64 Z M44.96,303.624 C41.504,303.624 38.8373333,302.450667 36.96,300.104 C35.0826667,297.757333 34.144,294.429333 34.144,290.12 C34.144,285.810667 35.0826667,282.493333 36.96,280.168 C38.8373333,277.842667 41.5253333,276.68 45.024,276.68 C48.4373333,276.68 51.104,277.874667 53.024,280.264 C54.944,282.653333 55.904,285.981333 55.904,290.248 C55.904,294.514667 54.944,297.810667 53.024,300.136 C51.104,302.461333 48.416,303.624 44.96,303.624 Z M68.96,306.12 C69.3866667,306.12 69.7173333,305.992 69.952,305.736 C70.1866667,305.48 70.304,305.117333 70.304,304.648 L70.304,304.648 L70.304,287.176 C70.304,284.573333 71.0933333,282.269333 72.672,280.264 C74.2506667,278.258667 76.5973333,277.106667 79.712,276.808 L79.712,276.808 L81.632,276.616 C82.528,276.488 82.976,276.061333 82.976,275.336 C82.976,274.952 82.88,274.664 82.688,274.472 C82.496,274.28 82.144,274.184 81.632,274.184 L81.632,274.184 L81.184,274.184 L80.288,274.248 C75.4666667,274.589333 72.1386667,276.594667 70.304,280.264 L70.304,280.264 L70.304,275.656 C70.304,275.186667 70.176,274.824 69.92,274.568 C69.664,274.312 69.344,274.184 68.96,274.184 C68.064,274.184 67.616,274.674667 67.616,275.656 L67.616,275.656 L67.616,304.648 C67.616,305.117333 67.7333333,305.48 67.968,305.736 C68.2026667,305.992 68.5333333,306.12 68.96,306.12 Z M100.192,306.248 C102.922667,306.248 105.333333,305.586667 107.424,304.264 C109.514667,302.941333 111.136,301.064 112.288,298.632 C113.44,296.2 114.016,293.362667 114.016,290.12 C114.016,286.92 113.44,284.104 112.288,281.672 C111.136,279.24 109.514667,277.362667 107.424,276.04 C105.333333,274.717333 102.922667,274.056 100.192,274.056 C97.4613333,274.056 95.0506667,274.717333 92.96,276.04 C90.8693333,277.362667 89.248,279.24 88.096,281.672 C86.944,284.104 86.368,286.92 86.368,290.12 C86.368,293.362667 86.944,296.2 88.096,298.632 C89.248,301.064 90.8693333,302.941333 92.96,304.264 C95.0506667,305.586667 97.4613333,306.248 100.192,306.248 Z M100.128,303.624 C96.672,303.624 93.9946667,302.461333 92.096,300.136 C90.1973333,297.810667 89.248,294.472 89.248,290.12 C89.248,285.896 90.2186667,282.6 92.16,280.232 C94.1013333,277.864 96.7786667,276.68 100.192,276.68 C103.605333,276.68 106.282667,277.864 108.224,280.232 C110.165333,282.6 111.136,285.896 111.136,290.12 C111.136,294.472 110.186667,297.810667 108.288,300.136 C106.389333,302.461333 103.669333,303.624 100.128,303.624 Z M146.144,305.992 C146.485333,305.992 146.784,305.864 147.04,305.608 C147.296,305.352 147.424,305.032 147.424,304.648 C147.424,304.264 147.274667,303.901333 146.976,303.56 L146.976,303.56 L135.264,289.928 L146.656,276.616 C146.954667,276.274667 147.104,275.912 147.104,275.528 C147.104,275.144 146.965333,274.824 146.688,274.568 C146.410667,274.312 146.101333,274.184 145.76,274.184 C145.376,274.184 145.013333,274.376 144.672,274.76 L144.672,274.76 L133.536,287.944 L122.4,274.76 C122.058667,274.376 121.696,274.184 121.312,274.184 C120.970667,274.184 120.672,274.312 120.416,274.568 C120.16,274.824 120.032,275.144 120.032,275.528 C120.032,275.912 120.181333,276.274667 120.48,276.616 L120.48,276.616 L131.808,289.928 L120.096,303.56 C119.797333,303.901333 119.648,304.264 119.648,304.648 C119.648,305.032 119.776,305.352 120.032,305.608 C120.288,305.864 120.586667,305.992 120.928,305.992 C121.312,305.992 121.696,305.8 122.08,305.416 L122.08,305.416 L133.536,291.912 L145.056,305.416 C145.397333,305.8 145.76,305.992 146.144,305.992 Z M161.056,317.512 C161.568,317.512 161.952,317.256 162.208,316.744 L162.208,316.744 L180.576,276.04 C180.661333,275.784 180.704,275.592 180.704,275.464 C180.704,275.08 180.576,274.770667 180.32,274.536 C180.064,274.301333 179.765333,274.184 179.424,274.184 C178.869333,274.184 178.464,274.482667 178.208,275.08 L178.208,275.08 L166.048,302.408 L165.92,302.728 L153.568,274.888 C153.312,274.376 152.949333,274.12 152.48,274.12 C152.096,274.12 151.754667,274.248 151.456,274.504 C151.157333,274.76 151.008,275.08 151.008,275.464 C151.008,275.592 151.050667,275.784 151.136,276.04 L151.136,276.04 L164.576,305.736 L159.968,315.848 L159.84,316.36 C159.84,316.701333 159.957333,316.978667 160.192,317.192 C160.426667,317.405333 160.714667,317.512 161.056,317.512 Z" id="proxy" fill="#000000" fill-rule="nonzero"></path>
    </g>
</svg>