<?xml version="1.0" encoding="UTF-8" standalone="no"?>
<!-- Created with Inkscape (http://www.inkscape.org/) -->

<svg
   xmlns:dc="http://purl.org/dc/elements/1.1/"
   xmlns:cc="http://creativecommons.org/ns#"
   xmlns:rdf="http://www.w3.org/1999/02/22-rdf-syntax-ns#"
   xmlns:svg="http://www.w3.org/2000/svg"
   xmlns="http://www.w3.org/2000/svg"
   xmlns:sodipodi="http://sodipodi.sourceforge.net/DTD/sodipodi-0.dtd"
   xmlns:inkscape="http://www.inkscape.org/namespaces/inkscape"
   width="445.01358"
   height="135.4519"
   id="svg3205"
   version="1.1"
   inkscape:version="0.48.5 r10040"
   sodipodi:docname="traefik_logo_mini.svg">
  <defs
     id="defs3" />
  <sodipodi:namedview
     inkscape:document-units="mm"
     id="base"
     pagecolor="#ffffff"
     bordercolor="#666666"
     borderopacity="1.0"
     inkscape:pageopacity="0.0"
     inkscape:pageshadow="2"
     inkscape:zoom="0.35"
     inkscape:cx="359.62272"
     inkscape:cy="-338.10782"
     inkscape:current-layer="layer1"
     showgrid="false"
     units="mm"
     fit-margin-left="3"
     fit-margin-top="3"
     fit-margin-bottom="3"
     fit-margin-right="3"
     inkscape:window-width="927"
     inkscape:window-height="569"
     inkscape:window-x="376"
     inkscape:window-y="420"
     inkscape:window-maximized="0" />
  <metadata
     id="metadata4">
    <rdf:RDF>
      <cc:Work
         rdf:about="">
        <dc:format>image/svg+xml</dc:format>
        <dc:type
           rdf:resource="http://purl.org/dc/dcmitype/StillImage" />
        <dc:title></dc:title>
      </cc:Work>
    </rdf:RDF>
  </metadata>
  <g
     inkscape:label="Layer 1"
     inkscape:groupmode="layer"
     id="layer1"
     transform="translate(-19.998488,-33.415875)">
    <path
       style="fill:#37abc8;fill-opacity:1"
       d="m 128.89516,122.68692 c 0.018,6.45988 1.6964,12.99132 5.1999,18.85671 5.419,9.07256 14.7824,15.27296 24.8786,16.47286 2.3484,0.279 109.5528,0.3023 111.8633,0.024 2.5377,-0.3059 4.6511,-0.7851 7.0354,-1.5853 4.6786,-1.5703 8.9974,-4.322 12.598,-7.8669 l 4.0218,-4.70825 c 2.6092,-3.63737 4.5687,-7.7709 5.6306,-12.146 2.8011,-11.5432 0.2746,-23.22654 -6.9675,-32.301979 -0.5105,-0.63974 -1.0524,-1.26954 -1.6316,-1.88329 l -5.4832,-4.72014 c -2.2384,-1.56333 -4.6319,-2.8493 -6.9785,-3.73082 l -1.8808,-0.71517 -0.068,-2.62231 c -0.2716,-10.82625 -4.2245,-20.75616 -11.3857,-28.60691 -8.0658,-8.84217 -19.0835,-13.32447 -30.1127,-13.09956 -7.5463,0.15387 -15.1024,2.51339 -21.7292,7.17556 -4.8975,3.4456 -9.5335,8.56598 -12.2807,13.54059 l -0.9516,1.71642 -0.6571,-0.44102 c -7.1101,-4.8714 -15.5127,-6.14105 -23.3152,-3.51626 -9.8352,3.30858 -17.2387,12.42634 -18.5911,22.88552 -0.2025,1.56641 -0.2971,1.83131 -0.6683,1.90714 -5.2882,1.07993 -9.1699,2.66943 -13.1191,5.36379 -8.6456,5.89822 -13.8875,15.276889 -15.1244,25.281339 z"
       id="path3000-8-5"
       inkscape:connector-curvature="0"
       sodipodi:nodetypes="cssssccsscccccssscccsssscc"
       inkscape:export-filename="C:\Users\pkeersbulik\traefik\traefik\docs\img\Traefik_logo_64_horiz.png"
       inkscape:export-xdpi="13.5928"
       inkscape:export-ydpi="13.5928" />
    <path
       style="color:#000000;fill:#4d4d4d;fill-opacity:1;fill-rule:nonzero;stroke:none;stroke-width:0.41299999;marker:none;visibility:visible;display:inline;overflow:visible;enable-background:accumulate"
       d="m 351.46906,79.375051 0,18.5625 0,50.468739 22.5313,0 0,-50.468739 0,-18.5625 -22.5313,0 z"
       id="rect3816-1-7-7-22-1-2"
       inkscape:export-filename="C:\Users\pkeersbulik\traefik\traefik\docs\img\Traefik_logo_64_horiz.png"
       inkscape:export-xdpi="13.5928"
       inkscape:export-ydpi="13.5928"
       inkscape:connector-curvature="0" />
    <path
       style="color:#000000;fill:#4d4d4d;fill-opacity:1;fill-rule:nonzero;stroke:none;stroke-width:0.41299999;marker:none;visibility:visible;display:inline;overflow:visible;enable-background:accumulate"
       d="m 30.628409,52.546621 0,17.40625 27.56255,0 0,76.031249 0,0.59375 22.5,0 0,-0.59375 0,-76.031249 28.031201,0 0,-17.40625 -78.093751,0 z"
       id="rect3816-1-7-7-22-1-6-7-7"
       inkscape:export-filename="C:\Users\pkeersbulik\traefik\traefik\docs\img\Traefik_logo_64_horiz.png"
       inkscape:export-xdpi="13.5928"
       inkscape:export-ydpi="13.5928"
       inkscape:connector-curvature="0" />
    <path
       style="font-size:72.26069641px;font-style:normal;font-variant:normal;font-weight:normal;font-stretch:normal;text-align:start;line-height:125%;letter-spacing:0px;word-spacing:0px;writing-mode:lr-tb;text-anchor:start;fill:#4d4d4d;fill-opacity:1;stroke:none;font-family:Roboto;-inkscape-font-specification:Roboto"
       inkscape:connector-curvature="0"
       id="path32847-4-6"
       d="m 137.48546,96.111861 c -0.428,-0.0428 -0.952,-0.0962 -1.5725,-0.16043 -0.6204,-0.0642 -1.2621,-0.11767 -1.9253,-0.16042 -0.6631,-0.0428 -1.3155,-0.0854 -1.9572,-0.12841 -0.6419,-0.0428 -1.1981,-0.0643 -1.6686,-0.0643 -3.4655,6e-5 -6.268,0.52417 -8.4071,1.57232 -2.1392,1.04825 -3.7009,2.66334 -4.6849,4.845289 l 0,43.96046 -21.627201,0 0,-69.438299 20.279601,0 0.7058,8.92045 c 1.7114,-3.20873 3.8398,-5.71159 6.3856,-7.50858 2.5457,-1.79685 5.4869,-2.69531 8.8242,-2.69539 1.0695,8e-5 2.1284,0.0642 3.1766,0.19253 1.0482,0.12841 2.0002,0.32095 2.856,0.57758 z"
       inkscape:export-filename="C:\Users\pkeersbulik\traefik\traefik\docs\img\Traefik_logo_64_horiz.png"
       inkscape:export-xdpi="13.5928"
       inkscape:export-ydpi="13.5928" />
    <path
       style="font-size:72.26069641px;font-style:normal;font-variant:normal;font-weight:normal;font-stretch:normal;text-align:start;line-height:125%;letter-spacing:0px;word-spacing:0px;writing-mode:lr-tb;text-anchor:start;fill:#ffffff;fill-opacity:1;stroke:none;font-family:Roboto;-inkscape-font-specification:Roboto"
       inkscape:connector-curvature="0"
       id="path32849-0-14"
       d="m 238.98006,148.67429 c -5.0968,0 -9.5977,-0.7296 -13.5024,-2.18878 -3.9048,-1.45917 -7.2138,-3.48351 -9.9265,-6.07302 -1.1097,1.1098 -2.4251,2.16821 -3.946,3.17523 -1.5208,1.00704 -3.2368,1.88049 -5.1481,2.62034 -1.9113,0.73988 -4.0281,1.33587 -6.3504,1.78803 -2.3225,0.4521 -4.8606,0.6782 -7.6145,0.6782 -4.2337,0 -7.9741,-0.5035 -11.2213,-1.51056 -3.2471,-1.00702 -5.9702,-2.43538 -8.1691,-4.28504 -2.1992,-1.84965 -3.8638,-4.07952 -4.9941,-6.68957 -1.1304,-2.61008 -1.6956,-5.51812 -1.6956,-8.72419 0,-6.53542 2.6922,-11.57059 8.0769,-15.10552 5.3845,-3.53485 13.379,-5.30229 23.9839,-5.30235 l 8.3849,0 0,-2.83611 c 0,-2.71279 -0.6988,-4.839879 -2.0962,-6.381299 -1.3975,-1.54133 -3.4322,-2.31203 -6.1039,-2.31207 -2.9594,4e-5 -5.2203,0.60632 -6.7821,1.8188 -1.562,1.21261 -2.3428,2.702629 -2.3428,4.470009 l -20.7777,-1.17147 c 0,-3.082669 0.7088,-5.908549 2.127,-8.477559 1.4181,-2.56891 3.4322,-4.79875 6.0422,-6.68958 2.6101,-1.89069 5.7749,-3.36013 9.4949,-4.40834 3.7199,-1.04807 7.8814,-1.57213 12.4851,-1.57221 4.0692,8e-5 7.7583,0.46248 11.067,1.38725 3.3091,0.92489 6.1758,2.33268 8.6011,4.22337 2.5072,-1.84958 5.3946,-3.25738 8.6625,-4.22337 3.2676,-0.96587 6.9565,-1.42827 11.067,-1.38725 4.3568,8e-5 8.272,0.69883 11.7453,2.09628 3.4732,1.39759 6.4326,3.41166 8.8784,6.04222 2.4456,2.63066 4.326,5.80588 5.6414,9.52569 1.3153,3.719899 1.9728,7.902179 1.973,12.546829 l 0,10.91295 -39.3976,0 c 0.2465,1.76747 0.7088,3.39105 1.3873,4.87077 0.6783,1.47972 1.6132,2.74366 2.8053,3.79176 1.192,1.04816 2.651,1.87026 4.3775,2.46621 1.7261,0.59603 3.7609,0.89401 6.1038,0.89401 2.0139,0 3.8226,-0.10272 5.4256,-0.30827 1.6032,-0.20552 3.093,-0.49322 4.4701,-0.86318 1.3768,-0.36991 2.6819,-0.81177 3.9151,-1.32559 1.2329,-0.51377 2.4865,-1.05836 3.761,-1.63386 l 4.994,12.70096 c -1.2744,0.98648 -2.8156,1.92158 -4.6242,2.80533 -1.8085,0.88369 -3.8226,1.67494 -6.0422,2.37371 -2.2198,0.69875 -4.5728,1.25367 -7.0595,1.66464 -2.4868,0.4111 -5.0455,0.6166 -7.6761,0.6166 z m -42.5419,-14.30401 c 1.8496,2e-5 3.7096,-0.38019 5.5799,-1.14062 1.87,-0.7604 3.4832,-1.67495 4.8397,-2.74364 l 0,-10.8513 -8.2619,0 c -1.8907,2e-5 -3.545,0.22607 -4.963,0.67819 -1.4181,0.45218 -2.6102,1.04817 -3.5761,1.78802 -0.9659,0.73987 -1.6851,1.60304 -2.1579,2.58951 -0.4728,0.98651 -0.7091,1.99353 -0.7089,3.02109 -2e-4,2.0963 0.7499,3.73015 2.2504,4.90158 1.5002,1.17147 3.8329,1.75719 6.9978,1.75717 z m 41.8637,-38.842709 c -1.8496,5e-5 -3.4321,0.28778 -4.7474,0.86317 -1.3153,0.57549 -2.4045,1.39757 -3.2677,2.46619 -0.8631,1.06874 -1.5415,2.342939 -2.0347,3.822619 -0.4932,1.47977 -0.8425,3.12389 -1.048,4.93241 l 19.0514,0 0,-1.60303 c -2e-4,-3.32933 -0.6784,-5.90855 -2.0348,-7.737709 -1.3563,-1.82906 -3.3293,-2.7436 -5.9188,-2.74365 z"
       inkscape:export-filename="C:\Users\pkeersbulik\traefik\traefik\docs\img\Traefik_logo_64_horiz.png"
       inkscape:export-xdpi="13.5928"
       inkscape:export-ydpi="13.5928" />
    <path
       style="font-size:72.26069641px;font-style:normal;font-variant:normal;font-weight:normal;font-stretch:normal;text-align:start;line-height:125%;letter-spacing:0px;word-spacing:0px;writing-mode:lr-tb;text-anchor:start;fill:#4d4d4d;fill-opacity:1;stroke:none;font-family:Roboto;-inkscape-font-specification:Roboto"
       inkscape:connector-curvature="0"
       id="path32851-9-2"
       d="m 305.41936,148.80499 0,-54.421179 -10.0755,0 0,-15.01717 10.0755,0 0,-5.64747 c 0,-4.02161 0.6205,-7.58338 1.8613,-10.68529 1.2407,-3.10174 3.0161,-5.70088 5.3265,-7.79737 2.3104,-2.09633 5.1019,-3.67932 8.375,-4.74901 3.2728,-1.06952 6.9629,-1.60431 11.0702,-1.6044 1.8399,9e-5 3.594,0.12841 5.2625,0.38505 1.6685,0.2568 3.2944,0.57768 4.8774,0.96263 l 0.064,15.91562 c -0.7273,-0.21383 -1.5082,-0.36356 -2.3423,-0.44922 -0.8345,-0.0854 -1.8292,-0.12822 -2.9842,-0.12841 -3.1661,7e-5 -5.5941,0.69532 -7.284,2.08571 -1.6901,1.39056 -2.5349,3.4121 -2.5349,6.06463 l 0,5.64747 13.5411,0 0,15.01718 -13.5411,0 0,54.421129 z"
       inkscape:export-filename="C:\Users\pkeersbulik\traefik\traefik\docs\img\Traefik_logo_64_horiz.png"
       inkscape:export-xdpi="13.5928"
       inkscape:export-ydpi="13.5928" />
    <path
       style="font-size:72.26069641px;font-style:normal;font-variant:normal;font-weight:normal;font-stretch:normal;text-align:start;line-height:125%;letter-spacing:0px;word-spacing:0px;writing-mode:lr-tb;text-anchor:start;fill:#4d4d4d;fill-opacity:1;stroke:none;font-family:Roboto;-inkscape-font-specification:Roboto"
       inkscape:connector-curvature="0"
       id="path32855-4-3"
       d="m 414.46486,122.94208 -6.0967,6.09671 0,19.7662 -21.6273,0 0,-98.638369 21.6273,0 0,52.367549 2.1819,-2.887929 16.3007,-20.27958 25.9272,0 -24.3227,28.558289 25.9269,40.88004 -24.7719,0 z"
       inkscape:export-filename="C:\Users\pkeersbulik\traefik\traefik\docs\img\Traefik_logo_64_horiz.png"
       inkscape:export-xdpi="13.5928"
       inkscape:export-ydpi="13.5928" />
    <path
       sodipodi:nodetypes="cccccccccsccccccc"
       style="font-size:72.26069641px;font-style:normal;font-variant:normal;font-weight:normal;font-stretch:normal;text-align:start;line-height:125%;letter-spacing:0px;word-spacing:0px;writing-mode:lr-tb;text-anchor:start;fill:#4d4d4d;fill-opacity:1;stroke:none;font-family:Roboto;-inkscape-font-specification:Roboto"
       inkscape:connector-curvature="0"
       id="path32853-6-8-2"
       d="m 348.22486,61.461561 c -2e-4,-1.54012 0.2996,-2.95199 0.8991,-4.2356 0.5995,-1.28343 1.4544,-2.3958 2.5644,-3.33715 1.1102,-0.94116 2.4199,-1.66848 3.9297,-2.18199 1.5099,-0.51329 3.1973,-0.77001 5.0625,-0.7701 1.8647,9e-5 3.5523,0.25681 5.0619,0.7701 1.5099,0.51351 2.8198,1.24083 3.9298,2.18199 1.1104,0.94135 1.965,2.05372 2.5646,3.33715 0.5994,1.28361 0.8991,2.69548 0.8991,4.2356 0,1.54031 -0.2997,2.95218 -0.8991,4.23562 -0.5996,1.28359 -1.4542,2.39597 -2.5646,3.33715 -1.11,0.9413 -2.4199,1.66863 -3.9298,2.18198 -1.5096,0.51349 -3.1972,0.77017 -5.0619,0.77009 -1.8652,8e-5 -3.5526,-0.2566 -5.0625,-0.77009 -1.5098,-0.51335 -2.8195,-1.24068 -3.9297,-2.18198 -1.11,-0.94118 -1.9649,-2.05356 -2.5644,-3.33715 -0.5995,-1.28344 -0.8993,-2.69531 -0.8991,-4.23562 z"
       inkscape:export-filename="C:\Users\pkeersbulik\traefik\traefik\docs\img\Traefik_logo_64_horiz.png"
       inkscape:export-xdpi="13.5928"
       inkscape:export-ydpi="13.5928" />
  </g>
</svg>
