<?xml version="1.0" encoding="UTF-8" standalone="no"?>
<!-- Created with Inkscape (http://www.inkscape.org/) -->

<svg
   xmlns:dc="http://purl.org/dc/elements/1.1/"
   xmlns:cc="http://creativecommons.org/ns#"
   xmlns:rdf="http://www.w3.org/1999/02/22-rdf-syntax-ns#"
   xmlns:svg="http://www.w3.org/2000/svg"
   xmlns="http://www.w3.org/2000/svg"
   xmlns:sodipodi="http://sodipodi.sourceforge.net/DTD/sodipodi-0.dtd"
   xmlns:inkscape="http://www.inkscape.org/namespaces/inkscape"
   width="231.00354"
   height="385.91306"
   id="svg3300"
   version="1.1"
   inkscape:version="0.48.5 r10040"
   sodipodi:docname="traefik_logo_mini_vertical.svg">
  <defs
     id="defs3302" />
  <sodipodi:namedview
     id="base"
     pagecolor="#ffffff"
     bordercolor="#666666"
     borderopacity="1.0"
     inkscape:pageopacity="0.0"
     inkscape:pageshadow="2"
     inkscape:zoom="0.35"
     inkscape:cx="53.35891"
     inkscape:cy="212.95653"
     inkscape:document-units="px"
     inkscape:current-layer="layer1"
     showgrid="false"
     fit-margin-left="3"
     fit-margin-top="3"
     fit-margin-bottom="3"
     fit-margin-right="3"
     inkscape:window-width="511"
     inkscape:window-height="401"
     inkscape:window-x="125"
     inkscape:window-y="125"
     inkscape:window-maximized="0" />
  <metadata
     id="metadata3305">
    <rdf:RDF>
      <cc:Work
         rdf:about="">
        <dc:format>image/svg+xml</dc:format>
        <dc:type
           rdf:resource="http://purl.org/dc/dcmitype/StillImage" />
        <dc:title></dc:title>
      </cc:Work>
    </rdf:RDF>
  </metadata>
  <g
     inkscape:label="Calque 1"
     inkscape:groupmode="layer"
     id="layer1"
     transform="translate(-321.64109,-130.83423)">
    <path
       style="fill:#37abc8;fill-opacity:1"
       d="m 324.64109,315.4995 c 0.023,8.01593 2.2148,16.12064 6.7887,23.39889 7.0748,11.2579 19.2993,18.95194 32.4804,20.44076 3.0659,0.34627 143.027,0.37515 146.0434,0.0296 3.3131,-0.3795 6.0722,-0.97419 9.1851,-1.96715 6.1082,-1.94849 11.7466,-5.36302 16.4473,-9.76186 l 5.2508,-5.84233 c 3.4064,-4.51354 5.9646,-9.64276 7.3509,-15.07173 3.657,-14.32371 0.3586,-28.82131 -9.0963,-40.08282 -0.6666,-0.79385 -1.3741,-1.57535 -2.1301,-2.33694 l -7.1586,-5.85711 c -2.9224,-1.93991 -6.0473,-3.53565 -9.1109,-4.6295 l -2.4554,-0.88744 -0.089,-3.25397 c -0.3546,-13.43407 -5.5153,-25.75588 -14.8647,-35.49769 -10.5303,-10.97208 -24.9144,-16.53405 -39.3137,-16.25498 -9.8521,0.19094 -19.717,3.11882 -28.3686,8.904 -6.394,4.27557 -12.4464,10.62935 -16.0331,16.80224 l -1.2423,2.12987 -0.858,-0.54726 c -9.2825,-6.0448 -20.2527,-7.62029 -30.4392,-4.36325 -12.8404,4.10554 -22.5061,15.41958 -24.2716,28.39815 -0.2643,1.94373 -0.3879,2.27243 -0.8726,2.36651 -6.904,1.34009 -11.9717,3.31246 -17.1277,6.65582 -11.2871,7.31899 -18.1307,18.95679 -19.7456,31.37108 z"
       id="path3000-8-2"
       inkscape:connector-curvature="0"
       sodipodi:nodetypes="cssssccsscccccssscccsssscc"
       inkscape:export-filename="C:\Users\pkeersbulik\traefik\traefik\docs\img\Traefik_logo_64_vert.png"
       inkscape:export-xdpi="15.161364"
       inkscape:export-ydpi="15.161364" />
    <path
       style="color:#000000;fill:#4d4d4d;fill-opacity:1;fill-rule:nonzero;stroke:none;stroke-width:0.41299999;marker:none;visibility:visible;display:inline;overflow:visible;enable-background:accumulate"
       d="m 467.35329,410.83418 -18.5625,0 -50.4687,0 0,22.5313 50.4687,0 18.5625,0 0,-22.5313 z"
       id="rect3816-1-7-7-22-1-4"
       inkscape:export-filename="C:\Users\pkeersbulik\traefik\traefik\docs\img\Traefik_logo_64_vert.png"
       inkscape:export-xdpi="15.161364"
       inkscape:export-ydpi="15.161364"
       inkscape:connector-curvature="0" />
    <path
       style="color:#000000;fill:#4d4d4d;fill-opacity:1;fill-rule:nonzero;stroke:none;stroke-width:0.41299999;marker:none;visibility:visible;display:inline;overflow:visible;enable-background:accumulate"
       d="m 491.35329,133.83423 -17.4062,0 0,27.5625 -76.0313,0 -0.5937,0 0,22.5 0.5937,0 76.0313,0 0,28.03125 17.4062,0 0,-78.09375 z"
       id="rect3816-1-7-7-22-1-6-7-5"
       inkscape:export-filename="C:\Users\pkeersbulik\traefik\traefik\docs\img\Traefik_logo_64_vert.png"
       inkscape:export-xdpi="15.161364"
       inkscape:export-ydpi="15.161364"
       inkscape:connector-curvature="0" />
    <path
       style="font-size:72.26069641px;font-style:normal;font-variant:normal;font-weight:normal;font-stretch:normal;text-align:start;line-height:125%;letter-spacing:0px;word-spacing:0px;writing-mode:lr-tb;text-anchor:start;fill:#4d4d4d;fill-opacity:1;stroke:none;font-family:Roboto;-inkscape-font-specification:Roboto"
       inkscape:connector-curvature="0"
       id="path32847-4-5"
       d="m 447.78809,240.69128 c 0.043,-0.428 0.096,-0.952 0.1604,-1.5725 0.064,-0.6204 0.1177,-1.2621 0.1604,-1.9253 0.043,-0.6631 0.085,-1.3155 0.1284,-1.9572 0.043,-0.6419 0.064,-1.1981 0.064,-1.6686 0,-3.4655 -0.5241,-6.268 -1.5723,-8.4071 -1.0482,-2.1392 -2.6633,-3.7009 -4.8453,-4.6849 l -43.9604,0 0,-21.6272 69.4383,0 0,20.2796 -8.9205,0.7058 c 3.2087,1.7114 5.7116,3.8398 7.5086,6.3856 1.7968,2.5457 2.6953,5.4869 2.6954,8.8242 -10e-5,1.0695 -0.064,2.1284 -0.1925,3.1766 -0.1285,1.0482 -0.321,2.0002 -0.5776,2.856 z"
       inkscape:export-filename="C:\Users\pkeersbulik\traefik\traefik\docs\img\Traefik_logo_64_vert.png"
       inkscape:export-xdpi="15.161364"
       inkscape:export-ydpi="15.161364" />
    <path
       style="font-size:72.26069641px;font-style:normal;font-variant:normal;font-weight:normal;font-stretch:normal;text-align:start;line-height:125%;letter-spacing:0px;word-spacing:0px;writing-mode:lr-tb;text-anchor:start;fill:#ffffff;fill-opacity:1;stroke:none;font-family:Roboto;-inkscape-font-specification:Roboto"
       inkscape:connector-curvature="0"
       id="path32849-0-1"
       d="m 464.21799,341.88675 c -6.0346,0 -11.3635,-0.8638 -15.9867,-2.59141 -4.6231,-1.72771 -8.541,-4.12449 -11.7527,-7.19033 -1.314,1.3139 -2.8714,2.56705 -4.6721,3.75937 -1.8005,1.1923 -3.8323,2.22649 -6.0952,3.10246 -2.263,0.87597 -4.7692,1.58167 -7.5189,2.11696 -2.7497,0.5353 -5.7548,0.80295 -9.0154,0.80295 -5.0126,0 -9.4411,-0.59616 -13.2859,-1.78846 -3.8443,-1.1923 -7.0686,-2.88339 -9.672,-5.07337 -2.6038,-2.19 -4.5747,-4.83009 -5.913,-7.92038 -1.3383,-3.0903 -2.0075,-6.53333 -2.0075,-10.32932 0,-7.73781 3.1876,-13.69933 9.5628,-17.88469 6.3753,-4.18523 15.8407,-6.27784 28.3966,-6.27784 l 9.9277,0 0,-3.35796 c 0,-3.21189 -0.8273,-5.73027 -2.4819,-7.55535 -1.6546,-1.82486 -4.0637,-2.73734 -7.2269,-2.73745 -3.5039,1.1e-4 -6.1808,0.71786 -8.0299,2.15347 -1.8495,1.43572 -2.7739,3.19984 -2.7739,5.29234 l -24.6004,-1.38692 c 0,-3.64983 0.8392,-6.99561 2.5184,-10.03733 1.6789,-3.04151 4.0636,-5.68159 7.1538,-7.92038 3.0903,-2.23855 6.8373,-3.97833 11.2418,-5.21943 4.4043,-1.24088 9.3315,-1.86136 14.7822,-1.86136 4.8177,0 9.1857,0.54746 13.1031,1.64239 3.9178,1.09506 7.312,2.76192 10.1836,5.00048 2.9684,-2.18988 6.3872,-3.85674 10.2563,-5.00048 3.8688,-1.1435 8.2363,-1.69097 13.1031,-1.64239 5.1584,0 9.7939,0.8274 13.9063,2.48186 4.1122,1.65479 7.6161,4.03941 10.5118,7.15394 2.8956,3.11463 5.1219,6.87412 6.6793,11.2782 1.5574,4.40432 2.3359,9.35609 2.3361,14.85534 l 0,12.92073 -46.6462,0 c 0.2919,2.09262 0.8393,4.01496 1.6425,5.7669 0.8031,1.75194 1.9101,3.24841 3.3215,4.4894 1.4112,1.24099 3.1387,2.21433 5.1829,2.9199 2.0436,0.7057 4.4528,1.05855 7.2267,1.05855 2.3846,0 4.5259,-0.1216 6.424,-0.36502 1.898,-0.24331 3.6619,-0.58398 5.2924,-1.02203 1.6301,-0.43792 3.1754,-0.96105 4.6355,-1.56938 1.4597,-0.60832 2.9439,-1.25316 4.453,-1.93451 l 5.9127,15.03769 c -1.5088,1.16808 -3.3337,2.27518 -5.4749,3.32155 -2.1414,1.04625 -4.5259,1.98308 -7.1539,2.81037 -2.6282,0.82729 -5.4141,1.4844 -8.3584,1.97101 -2.9444,0.48662 -5.9738,0.72993 -9.0883,0.72993 z m -50.3691,-16.93568 c 2.1901,0 4.3922,-0.45011 6.6067,-1.35042 2.2139,-0.90032 4.124,-1.98319 5.7301,-3.24852 l 0,-12.8477 -9.782,0 c -2.2386,0 -4.1973,0.26765 -5.8762,0.80295 -1.6788,0.53541 -3.0904,1.24098 -4.234,2.11696 -1.1435,0.87597 -1.9952,1.89799 -2.5549,3.06595 -0.5597,1.16797 -0.8396,2.36027 -0.8393,3.57692 -3e-4,2.48198 0.8879,4.41648 2.6644,5.8034 1.7763,1.38705 4.5381,2.08046 8.2852,2.08046 z m 49.5661,-45.98914 c -2.19,1.1e-4 -4.0636,0.34067 -5.6209,1.02202 -1.5572,0.68135 -2.8469,1.65469 -3.8689,2.9199 -1.0218,1.26534 -1.8251,2.77397 -2.4089,4.52592 -0.5841,1.75205 -0.9977,3.69862 -1.241,5.83993 l 22.5565,0 0,-1.89801 c -2e-4,-3.94192 -0.8031,-6.9956 -2.409,-9.16136 -1.6059,-2.16553 -3.9419,-3.24829 -7.0078,-3.2484 z"
       inkscape:export-filename="C:\Users\pkeersbulik\traefik\traefik\docs\img\Traefik_logo_64_vert.png"
       inkscape:export-xdpi="15.161364"
       inkscape:export-ydpi="15.161364" />
    <path
       style="font-size:72.26069641px;font-style:normal;font-variant:normal;font-weight:normal;font-stretch:normal;text-align:start;line-height:125%;letter-spacing:0px;word-spacing:0px;writing-mode:lr-tb;text-anchor:start;fill:#4d4d4d;fill-opacity:1;stroke:none;font-family:Roboto;-inkscape-font-specification:Roboto"
       inkscape:connector-curvature="0"
       id="path32851-9-7"
       d="m 397.92339,364.78448 54.4212,0 0,-10.0755 15.0171,0 0,10.0755 5.6475,0 c 4.0216,0 7.5834,0.6205 10.6853,1.8613 3.1017,1.2407 5.7009,3.0161 7.7974,5.3265 2.0963,2.3104 3.6793,5.1019 4.749,8.375 1.0695,3.2728 1.6043,6.9629 1.6044,11.0702 -10e-5,1.8399 -0.1284,3.594 -0.3851,5.2625 -0.2568,1.6685 -0.5777,3.2944 -0.9626,4.8774 l -15.9156,0.064 c 0.2138,-0.7273 0.3635,-1.5082 0.4492,-2.3423 0.085,-0.8345 0.1282,-1.8292 0.1284,-2.9842 -10e-5,-3.1661 -0.6953,-5.5941 -2.0857,-7.284 -1.3906,-1.6901 -3.4121,-2.5349 -6.0646,-2.5349 l -5.6475,0 0,13.5411 -15.0172,0 0,-13.5411 -54.4211,0 z"
       inkscape:export-filename="C:\Users\pkeersbulik\traefik\traefik\docs\img\Traefik_logo_64_vert.png"
       inkscape:export-xdpi="15.161364"
       inkscape:export-ydpi="15.161364" />
    <path
       style="font-size:72.26069641px;font-style:normal;font-variant:normal;font-weight:normal;font-stretch:normal;text-align:start;line-height:125%;letter-spacing:0px;word-spacing:0px;writing-mode:lr-tb;text-anchor:start;fill:#4d4d4d;fill-opacity:1;stroke:none;font-family:Roboto;-inkscape-font-specification:Roboto"
       inkscape:connector-curvature="0"
       id="path32855-4-1"
       d="m 423.78629,473.82998 -6.0967,-6.0967 -19.7662,0 0,-21.6273 98.6383,0 0,21.6273 -52.3675,0 2.8879,2.1819 20.2796,16.3007 0,25.9272 -28.5583,-24.3227 -40.88,25.9269 0,-24.7719 z"
       inkscape:export-filename="C:\Users\pkeersbulik\traefik\traefik\docs\img\Traefik_logo_64_vert.png"
       inkscape:export-xdpi="15.161364"
       inkscape:export-ydpi="15.161364" />
    <path
       sodipodi:nodetypes="cccccccccsccccccc"
       style="font-size:72.26069641px;font-style:normal;font-variant:normal;font-weight:normal;font-stretch:normal;text-align:start;line-height:125%;letter-spacing:0px;word-spacing:0px;writing-mode:lr-tb;text-anchor:start;fill:#4d4d4d;fill-opacity:1;stroke:none;font-family:Roboto;-inkscape-font-specification:Roboto"
       inkscape:connector-curvature="0"
       id="path32853-6-8-1"
       d="m 485.26679,407.58998 c 1.5401,-2e-4 2.952,0.2996 4.2356,0.8991 1.2834,0.5995 2.3958,1.4544 3.3372,2.5644 0.9411,1.1102 1.6684,2.4199 2.1819,3.9297 0.5133,1.5099 0.7701,3.1973 0.7701,5.0625 0,1.8647 -0.2568,3.5523 -0.7701,5.0619 -0.5135,1.5099 -1.2408,2.8198 -2.1819,3.9298 -0.9414,1.1104 -2.0538,1.965 -3.3372,2.5646 -1.2836,0.5994 -2.6955,0.8991 -4.2356,0.8991 -1.5403,0 -2.9522,-0.2997 -4.2356,-0.8991 -1.2836,-0.5996 -2.396,-1.4542 -3.3372,-2.5646 -0.9413,-1.11 -1.6686,-2.4199 -2.1819,-3.9298 -0.5135,-1.5096 -0.7702,-3.1972 -0.7701,-5.0619 -10e-5,-1.8652 0.2566,-3.5526 0.7701,-5.0625 0.5133,-1.5098 1.2406,-2.8195 2.1819,-3.9297 0.9412,-1.11 2.0536,-1.9649 3.3372,-2.5644 1.2834,-0.5995 2.6953,-0.8993 4.2356,-0.8991 z"
       inkscape:export-filename="C:\Users\pkeersbulik\traefik\traefik\docs\img\Traefik_logo_64_vert.png"
       inkscape:export-xdpi="15.161364"
       inkscape:export-ydpi="15.161364" />
  </g>
</svg>
