<svg xmlns="http://www.w3.org/2000/svg" width="88" height="96" viewBox="0 0 88 96">
    <g fill="none" fill-rule="nonzero" stroke="#7A7A7A" stroke-width="4">
        <path fill="#3D3D3D" d="M41.05 42.807zm0 0l-.006.003 1.917 3.508-1.876-3.532c1.866-1.05 4.007-1.044 5.82-.006 8.058 4.62 22.413 13.097 37.112 21.84C85.14 65.299 86 66.39 86 68c0 1.612-.866 2.71-1.993 3.383-15.424 9.173-29.305 17.368-37.1 21.836a5.813 5.813 0 0 1-5.812 0C33.322 88.765 19.88 80.83 3.983 71.38 2.86 70.7 2 69.61 2 67.999c0-1.615.869-2.72 1.993-3.382a8052.42 8052.42 0 0 1 17.004-10.023l.05-.03a33723.823 33723.823 0 0 1 18.288-10.75l1.27-.746.334-.196.085-.05.022-.013.004-.002z"/>
        <path fill="#1D1D1D" stroke-dasharray="0,10" stroke-linecap="round" d="M4 48c0-.96.707-1.483 1.012-1.662 9.254-5.48 37.058-21.81 37.054-21.809 1.274-.717 2.664-.69 3.844-.014 10.211 5.854 30.961 18.182 37.074 21.819.305.183 1.016.71 1.016 1.666 0 .955-.71 1.482-1.016 1.664-7.914 4.707-27.37 16.26-37.07 21.818a3.813 3.813 0 0 1-3.824.002c-9.703-5.56-29.16-17.113-37.074-21.818C4.71 49.482 4 48.955 4 48z"/>
        <path fill="#3D3D3D" d="M41.05 2.807zm0 0l-.006.003 1.917 3.508-1.876-3.532c1.866-1.05 4.007-1.044 5.82-.006 8.058 4.62 22.413 13.097 37.112 21.84C85.14 25.299 86 26.39 86 28c0 1.612-.866 2.71-1.993 3.383-15.424 9.173-29.305 17.368-37.1 21.836a5.813 5.813 0 0 1-5.812 0C33.322 48.765 19.88 40.83 3.983 31.38 2.86 30.7 2 29.61 2 27.999c0-1.615.869-2.72 1.993-3.382a8052.42 8052.42 0 0 1 17.004-10.023l.05-.03a33723.375 33723.375 0 0 1 18.288-10.75l1.27-.746.334-.196.085-.05.022-.013.004-.002z"/>
    </g>
</svg>
