<svg xmlns:xlink="http://www.w3.org/1999/xlink" xmlns="http://www.w3.org/2000/svg" viewBox="0 0 120 120" fill="#fff"
     fill-rule="evenodd" stroke="#000" stroke-linecap="round" stroke-linejoin="round">
  <style><![CDATA[.B{stroke:none}.C{fill:#9d5025}.D{fill:#f58536}]]></style>
  <circle cx="60" cy="60" r="60" fill="#FFFFFF" stroke="none"/>
  <use xlink:href="#A" x="20" y="20"/>
  <symbol id="A" overflow="visible">
    <path
      d="M4.282 5.345L0 7.627v64.746l4.282 2.282 16.87-33.306L4.282 5.345zM17.318 17.03l6.306-9.568 28.26 13.464-6.588 1.122L17.32 17.03zm-4.894 46.632l6.94 10.224 32.518-15.04L45.6 57.8l-33.176 5.862z"
      class="B C"/>
    <path d="M14.258 72.146l-9.976 2.51v-69.3l9.976 2.433v64.368z" class="B D"/>
    <path
      d="M9.012 2.8L14.26 0l9.882 44.488L14.26 80l-5.247-2.8V2.8zm36.235 54.94l6.635 1.097 6.07-18.115-6.07-19.805-6.635 1.122v35.7z"
      class="B C"/>
    <g class="D">
      <path d="M24.47 76.912L14.26 80V0L24.47 3.1v73.8z" class="B"/>
      <path d="M58.836 57.447L14.26 66.322V80l44.577-13.5v-9.064zm.082-35.097l-44.66-9.1V0l44.66 13.577v8.774z"
            class="B"/>
      <path d="M51.882 11.434l7.165 2.118v52.96l-7.165 2.105V11.434z" class="B"/>
    </g>
    <path d="M80 33.003l-19.177.97-6.776-.492 19.388-16.74L80 33.003z" fill="#6b3a19" class="B"/>
    <path d="M54.047 33.482L73.435 32.3V16.74l-19.388 3.366v13.375z" class="B C"/>
    <path d="M35.8 32.172l19.647-21.217 9.988 20.498L45.07 32.84l-9.27-.668z" fill="#6b3a19" class="B"/>
    <g class="C">
      <path
        d="M35.8 32.172l19.647-1.8V10.955L35.8 15.884V32.17zm18.247 14.623l25.953.48-6.565 16.262-19.388-3.366V46.795z"
        class="B"/>
      <path d="M35.8 48.106l29.635.73-9.988 20.485L35.8 64.406v-16.3z" class="B"/>
    </g>
    <path
      d="M35.8 48.106l19.647 1.803 9.988-1.072-20.365-1.4-9.27.668zm44.2-.832l-19.177-.958-6.776.48 19.388 1.185L80 47.274z"
      class="B" fill="#fbbf93"/>
    <path
      d="M73.435 32.3l6.565.693V18.846l-6.565-2.105V32.3zm-8-.847l-9.988-1.072V10.955l9.988 3.215v17.283zm8 16.527L80 47.274V61.43l-6.565 2.105V47.98zm-8 .857l-9.988 1.072v19.414l9.988-3.202V48.837z"
      class="B D"/>
  </symbol>
</svg>
