<svg xmlns="http://www.w3.org/2000/svg" width="32" height="32" viewBox="0 0 32 32">
  <g fill="none">
    <circle cx="16" cy="16" r="16" fill="#419EDA"/>
    <path fill="#FFF" d="M15.2941176,14.587756 C15.2941176,15.4465307 14.5982287,16.1411765 13.7405374,16.1411765 C12.8822069,16.1411765 12.1882353,15.4466372 12.1882353,14.587756 C12.1882353,13.7326026 12.8823134,13.0352941 13.7405374,13.0352941 C14.5982287,13.0352941 15.2941176,13.7326026 15.2941176,14.587756 Z M17.5529412,14.5879158 C17.5529412,13.7325308 18.2488173,13.0352941 19.1063616,13.0352941 C19.9636929,13.0352941 20.6588235,13.7325308 20.6588235,14.5879158 C20.6588235,15.4467087 19.9636929,16.1411765 19.1063616,16.1411765 C18.2488173,16.1411765 17.5529412,15.4466022 17.5529412,14.5879158 Z M28.4963286,16.4275595 L28.8470588,16.4005593 L28.8136083,16.7562292 C28.6413549,18.5561348 28.0815868,20.2707062 27.1497512,21.8521653 L26.9690518,22.1596126 L26.6964468,21.9286105 C26.0607761,21.3912721 25.2930814,21.0362689 24.4788227,20.8941564 C23.9428367,21.9894999 23.3080549,23.0179539 22.5879244,23.9729627 C21.4441616,24.3731886 20.2525012,24.6721914 19.0221671,24.8506375 C18.9037011,25.667534 18.9980516,26.5133196 19.3194432,27.2944379 L19.4556901,27.6261076 L19.1058489,27.7029972 L16.4248074,28 C15.5407583,28 14.637928,27.8997768 13.742988,27.7029972 L13.3934802,27.6261076 L13.5293938,27.2951046 C13.8516744,26.5139862 13.9460248,25.6692006 13.8275589,24.8524153 C12.592335,24.6740803 11.3962294,24.3744109 10.2482435,23.9729627 C9.52877981,23.0187317 8.89455375,21.9909444 8.35945677,20.8970453 C7.5477541,21.0400467 6.78439353,21.3948277 6.15261236,21.9306105 L5.8800074,22.1619459 L5.69841893,21.8537209 C4.76825035,20.2742618 4.2083711,18.5595793 4.03345051,16.7567848 L4,16.4004482 L4.35695358,16.4276706 C4.4715299,16.4372263 4.58944016,16.4417819 4.715463,16.4417819 C5.43337089,16.4417819 6.13060837,16.2742248 6.76005579,15.9667775 C6.54846188,14.7422106 6.46344647,13.5164214 6.49011797,12.3045213 C7.17535328,11.31729 7.95827295,10.3845036 8.8403217,9.52571783 C8.45714114,8.81004454 7.89126081,8.19459439 7.18513283,7.75725701 L6.88129998,7.56925527 L7.11900973,7.30147501 C8.32011631,5.94712914 9.81760994,4.85545237 11.4491279,4.14466801 L11.7774096,4.00200002 L11.8616471,4.35011435 C12.0579049,5.15934407 12.4687571,5.88968416 13.0318592,6.47646737 C14.1181671,5.89979537 15.2514837,5.43434661 16.4194731,5.08156557 C17.5902409,5.4351244 18.7255577,5.9019065 19.8123103,6.4794674 C20.3777461,5.89190641 20.7895985,5.15978852 20.9866342,4.34822545 L21.070316,4 L21.3998202,4.14333466 C23.0521197,4.86456356 24.5094949,5.92746229 25.7306051,7.3022528 L25.9676481,7.5694775 L25.6634818,7.75747924 C24.9551312,8.1964833 24.3876951,8.81560014 24.0038477,9.53516236 C24.8885636,10.3972815 25.6723723,11.3330679 26.3581633,12.3248549 C26.381612,13.5373105 26.2920402,14.7542107 26.0814465,15.9621108 C26.7140056,16.272447 27.4151326,16.441893 28.1378192,16.441893 C28.2623973,16.441893 28.3796408,16.4373374 28.4963286,16.4275595 Z M20.2563907,20.7843776 C20.9539616,19.7022565 21.5063951,18.539468 21.9016889,17.3193455 C22.2969828,16.1066677 22.5306918,14.8414337 22.6009268,13.5385328 C21.7771108,12.5187455 20.8407189,11.6240706 19.8066426,10.8727303 C18.7623422,10.1147233 17.6256917,9.49716201 16.4194731,9.03182437 C15.2112541,9.4970509 14.0724922,10.1155011 13.0257469,10.8767303 C11.9956714,11.6240706 11.0633913,12.5118566 10.243576,13.5253104 C10.3105882,14.8356559 10.5415189,16.1082232 10.936146,17.3229011 C11.33244,18.5432458 11.8830954,19.7023676 12.579555,20.7843776 C13.8490073,21.1293808 15.1355738,21.3033824 16.4194731,21.3033824 C17.6999274,21.3033824 18.9880498,21.1292697 20.2563907,20.7843776 Z"/>
  </g>
</svg>
