<svg xmlns="http://www.w3.org/2000/svg" width="32" height="32" viewBox="0 0 32 32">
    <g fill="none" fill-rule="evenodd">
        <circle cx="16" cy="16" r="16" fill="#5E7D89"/>
        <path fill="#FFF" fill-rule="nonzero" d="M20.625 11c-.621 0-1.125-.56-1.125-1.25V6.5a.209.209 0 0 1 .117-.19.174.174 0 0 1 .203.047l3.863 4.287c.054.06.07.15.04.227a.188.188 0 0 1-.173.129h-2.925zm3.188.833c.05 0 .097.022.132.062a.22.22 0 0 1 .055.147v12.291c0 .92-.672 1.667-1.5 1.667h-12c-.828 0-1.5-.746-1.5-1.667V7.667C9 6.747 9.672 6 10.5 6h8.063c.05 0 .097.022.132.061a.22.22 0 0 1 .055.148V9.75c0 1.15.84 2.083 1.875 2.083h3.188z"/>
    </g>
</svg>
