<svg width="32" height="32"
	xmlns="http://www.w3.org/2000/svg"
	xmlns:xlink="http://www.w3.org/1999/xlink">
	<defs>
		<path d="M18.748 23.93a13.78 13.78 0 002.476-6.88h3.102a8.413 8.413 0 01-5.578 6.88zM7.672 17.05h3.142a13.547 13.547 0 002.463 6.89 8.416 8.416 0 01-5.605-6.89zm5.638-9a13.801 13.801 0 00-2.492 6.9H7.672a8.414 8.414 0 015.638-6.9zm-.377 6.9c.321-3.436 2.079-5.827 3.094-6.933 1.05 1.124 2.78 3.494 3.08 6.933h-6.174zm.001 2.1h6.176c-.321 3.44-2.083 5.833-3.097 6.938a11.57 11.57 0 01-3.079-6.938zm11.393-2.1h-3.1a13.537 13.537 0 00-2.445-6.866 8.409 8.409 0 015.544 6.866zM26.5 16c0-5.78-4.695-10.481-10.47-10.498h-.014L16 5.5C10.21 5.5 5.5 10.211 5.5 16c0 5.79 4.71 10.5 10.5 10.5l.016-.001.005.001.008-.002C21.805 26.482 26.5 21.779 26.5 16z" id="a"/>
	</defs>
	<g fill-rule="nonzero" fill="none">
		<circle fill="#45BBEA" cx="16" cy="16" r="16"/>
		<use fill="#FFF" xlink:href="#a"/>
	</g>
</svg>