<svg xmlns="http://www.w3.org/2000/svg" width="72" height="72" viewBox="0 0 72 72">
  <circle cx="36" cy="36" r="36" fill="#dfdfdf"/>
 <path d="m20.79 54.774c-4.1802-0.36038-7.3744-1.6213-9.6977-3.8282-2.3638-2.2454-3.378-5.1728-2.9777-8.5946 0.46062-3.9378 2.3319-6.7185 5.6126-8.3408 2.5286-1.2503 5.0511-1.7259 9.1591-1.7269 2.9187-0.0012 5.3644 0.23777 9.0946 0.88675 0.92236 0.16048 1.7209 0.29185 1.7746 0.29196 0.07803 0 0.1399-0.29356 0.30914-1.4672 0.30621-2.1235 0.36109-2.8562 0.27767-3.7069-0.0971-0.99016-0.22383-1.4618-0.59895-2.2291-0.96784-1.9798-3.2653-3.1911-6.9547-3.6667-1.0551-0.13602-3.4903-0.15505-4.5473-0.0356-1.7709 0.20021-2.7591 0.45532-4.963 1.2811-1.2894 0.48314-1.2953 0.48463-1.8096 0.45444-0.88418-0.05181-1.4878-0.45212-1.8749-1.2434-0.15944-0.32586-0.18748-0.46038-0.18748-0.89945 0-0.65913 0.17166-1.009 0.76939-1.5682 1.3404-1.2539 3.596-2.3217 5.8726-2.7802 1.4577-0.29355 2.1753-0.35527 4.0958-0.35232 1.9873 0.0052 3.258 0.11526 5.024 0.44365 2.9374 0.54614 5.1678 1.5088 6.8497 2.9563 0.49904 0.42948 1.2515 1.2748 1.574 1.7681 0.09855 0.15078 0.20008 0.27415 0.2256 0.27415 0.02554 0 0.18857-0.18117 0.36231-0.40254 2.5467-3.2452 6.8359-5.082 11.861-5.0794 3.5543 0 6.8581 0.901 9.3207 2.5369 1.9533 1.2976 3.5402 3.2965 4.1812 5.267 0.36807 1.1314 0.42403 1.5495 0.42742 3.1928 0.0021 1.0225-0.02612 1.7122-0.08315 2.0318-0.57634 3.2298-1.9492 5.4674-4.332 7.0607-1.917 1.2818-4.3245 2.0318-7.4732 2.328-1.585 0.14912-4.4841 0.13504-6.3622-0.03097-1.5939-0.14085-3.5511-0.3887-4.386-0.55536-0.69888-0.13953-3.0921-0.53913-3.1118-0.51957-0.0087 0.0088-0.12256 0.72447-0.25302 1.5908-0.20832 1.3833-0.23783 1.7285-0.2422 2.833-0.0047 1.123 0.01128 1.32 0.14678 1.8383 0.43569 1.6665 1.3958 2.7813 3.1378 3.6431 1.7136 0.8478 3.51 1.2147 6.2243 1.2712 1.2017 0.02528 1.8171 0.0077 2.5689-0.07192 1.8225-0.19325 2.653-0.40528 5.0744-1.2954 0.60308-0.22174 1.2186-0.42349 1.3677-0.44836 0.31967-0.0533 0.91586 0.05677 1.2633 0.23329 0.62718 0.31853 1.1541 1.168 1.1508 1.8552-0.0036 0.80285-0.27442 1.2891-1.0693 1.9215-1.9005 1.5121-4.3271 2.4394-7.2238 2.7606-1.0329 0.11455-3.3912 0.13142-4.5304 0.0325-3.208-0.27863-5.4352-0.82731-7.4706-1.8403-1.5882-0.79041-2.7999-1.771-3.705-2.9982-0.22238-0.30156-0.41127-0.55579-0.41977-0.56509-0.0085-0.0093-0.15631 0.16492-0.32849 0.38701-0.76108 0.98176-1.9249 2.037-3.0623 2.7765-1.642 1.0676-3.9992 1.8821-6.3844 2.206-0.71132 0.09655-3.0714 0.17621-3.6765 0.12405zm4.0958-4.5958c1.9474-0.43158 3.6827-1.4044 4.9426-2.7705 1.1492-1.2461 2.0917-3.1129 2.6105-5.1701 0.2924-1.1597 0.77845-4.3872 0.67071-4.4538-0.04252-0.02632-0.29939-0.06785-0.57075-0.09242-0.27137-0.02477-1.0449-0.11589-1.7189-0.20305-4.0037-0.51781-6.4599-0.719-7.8368-0.6418-2.6178 0.14664-3.6851 0.37518-5.2568 1.1258-0.80521 0.38453-1.361 0.80183-1.8007 1.352-0.63087 0.78938-1.0117 1.5738-1.2771 2.6308-0.19315 0.76915-0.21286 2.7831-0.03359 3.432 0.30199 1.093 0.66048 1.7117 1.4666 2.5308 1.1038 1.1216 2.5589 1.8699 4.3639 2.2441 0.92293 0.19134 0.89562 0.18948 2.4409 0.16621 1.1213-0.01703 1.5408-0.04851 1.9995-0.15006zm25.51-15.133c1.6286-0.1437 2.6301-0.39655 3.8605-0.97459 1.0233-0.48081 1.6181-0.9722 2.1809-1.8019 0.82864-1.2215 1.1513-2.3775 1.143-4.0951-0.0059-1.2242-0.10967-1.7334-0.53228-2.6123-0.94425-1.9636-3.1624-3.3701-6.0716-3.85-0.72595-0.11971-2.6744-0.09845-3.4185 0.03717-1.4315 0.26119-2.6416 0.73727-3.7088 1.4591-1.9717 1.3336-3.3325 3.3439-4.0902 6.0426-0.29764 1.06-0.37698 1.4669-0.64234 3.2941l-0.24478 1.6855 0.32789 0.03611c0.99033 0.10981 3.2235 0.38021 4.5204 0.54739 0.81593 0.10517 1.8173 0.2174 2.2253 0.24944 1.1794 0.09258 3.2939 0.08396 4.4505-0.01807z" fill="#37abc8"/>
</svg>
