<svg xmlns="http://www.w3.org/2000/svg" xmlns:xlink="http://www.w3.org/1999/xlink" width="32" height="32" viewBox="0 0 32 32">
    <defs>
        <path id="a" d="M12 24C5.373 24 0 18.627 0 12S5.373 0 12 0s12 5.373 12 12-5.373 12-12 12zm0-7a5 5 0 1 0 0-10 5 5 0 0 0 0 10z"/>
    </defs>
    <g fill="none" fill-rule="evenodd">
        <circle cx="16" cy="16" r="16" fill="#1E2022"/>
        <g transform="translate(4 4)">
            <mask id="b" fill="#fff">
                <use xlink:href="#a"/>
            </mask>
            <use fill="#00F99A" xlink:href="#a"/>
            <path fill="#72FF00" d="M-4-4l36 9.61L12 12H-4z" mask="url(#b)"/>
            <path fill="#0077FC" d="M-4-4l29.488.644L12 12l7.736 15.37C7.17 24.444.073 20.988-1.557 17-3.187 13.012-4.001 6.012-4-4z" mask="url(#b)"/>
            <path fill="#00BEFF" d="M-4-4l29.488.644L12 12 9.08 28C3.62 24.654.074 20.988-1.556 17-3.187 13.012-4.001 6.012-4-4z" mask="url(#b)"/>
            <path fill="#0077FC" d="M-4-4l29.488.644L12 12l-14.043 8.516z" mask="url(#b)"/>
            <path fill="#00DAA5" d="M-4-4l29.488.644L12 12H-4z" mask="url(#b)"/>
        </g>
    </g>
</svg>
