<svg xmlns="http://www.w3.org/2000/svg" width="32" height="32" viewBox="0 0 32 32">
    <g fill="none" fill-rule="evenodd">
        <circle cx="16" cy="16" r="16" fill="#0075A8"/>
        <path fill="#FFF" fill-rule="nonzero" d="M27.988 12.417c.08.482-.252.881-.734.881h-1.56v-1.096H26.167c.483 0 .885-.41.885-.901v-.4c0-.491.121-.901.272-.901.14 0 .332.4.412.891l.252 1.526zm-3.531-1.29c.493 0 .885.4.905.911v4.691a.901.901 0 0 1-.885.901h-2.384a.901.901 0 0 1-.885-.9v-1.845a.902.902 0 0 0-.352.717v1.547c0 .492.402.901.885.901h1.55v2.397a.546.546 0 0 1-.544.553h-2.918a.546.546 0 0 1-.543-.553v-2.233a.546.546 0 0 0-.543-.553H11.46a.546.546 0 0 0-.543.553v2.233a.546.546 0 0 1-.544.553H7.456a.546.546 0 0 1-.543-.553v-6.412L5.595 15.09c-.06.041-.14.041-.191-.02l-.372-.45a.141.141 0 0 1-.01-.165l1.931-3a.542.542 0 0 1 .493-.328h10.281c.332 0 .583.307.533.645l-.211 1.28c-.05.338.201.645.533.645h2.062a.543.543 0 0 0 .534-.45c-.131.04-.272.061-.423.061h-1.469c-.493 0-.825-.4-.744-.89l.251-1.527c.08-.492.262-.891.413-.891.15 0 .271.41.271.901v.236c.02-.01.05-.01.08-.01h4.9z"/>
    </g>
</svg>
